<?xml version="1.0" encoding="UTF-8" standalone="no"?>
<!-- Created with Inkscape (http://www.inkscape.org/) -->

<svg
   version="1.1"
   id="svg18"
   width="336.46323"
   height="288.64484"
   viewBox="0 0 336.46323 288.64484"
   sodipodi:docname="current-flash-electricity-electric-61.png"
   inkscape:export-filename="../9edfc3db/electric-quote.svg"
   inkscape:export-xdpi="96"
   inkscape:export-ydpi="96"
   xmlns:inkscape="http://www.inkscape.org/namespaces/inkscape"
   xmlns:sodipodi="http://sodipodi.sourceforge.net/DTD/sodipodi-0.dtd"
   xmlns="http://www.w3.org/2000/svg"
   xmlns:svg="http://www.w3.org/2000/svg">
  <defs
     id="defs22" />
  <sodipodi:namedview
     id="namedview20"
     pagecolor="#ffffff"
     bordercolor="#000000"
     borderopacity="0.25"
     inkscape:showpageshadow="2"
     inkscape:pageopacity="0.0"
     inkscape:pagecheckerboard="true"
     inkscape:deskcolor="#d1d1d1"
     showgrid="false" />
  <g
     inkscape:groupmode="layer"
     inkscape:label="Image"
     id="g24"
     transform="translate(-87.768385,-111.67759)">
    <g
       id="g661"
       transform="translate(-8.1680647)"
       style="display:inline">
      <g
         id="g7897">
        <path
           style="display:inline;fill:#1e9cf1;fill-opacity:1;stroke:#000000;stroke-width:7.55906;stroke-linecap:round;stroke-linejoin:round;stroke-miterlimit:4;stroke-dasharray:none;stroke-opacity:1;paint-order:normal"
           d="m 326.34296,317.97741 c -32.24484,-41.96041 -58.62698,-76.49791 -58.62698,-76.75 0,-0.25209 13.01237,-2.27646 37.54966,-0.45835 40.70533,3.01609 42.71909,-0.23833 44.04432,-5.51845 0.83336,-3.3204 1.2803,-2.31981 -28.51225,-63.83232 -14.34495,-29.61793 -26.20305,-55.26099 -26.20305,-55.75556 0,-0.518 -0.87971,0.10634 42.06065,0.10634 h 41.93933 l 25.01283,75.25 25.01283,75.24999 -37.54141,0.5 -37.54141,0.5 -1.91076,2.36078 c -1.05091,1.29844 -1.91075,3.27837 -1.91075,4.39985 0,1.51806 29.93553,98.58958 37.0799,120.23847 0.8575,2.59841 0.80164,2.79882 -0.4181,1.5 -0.77431,-0.8245 -27.78998,-35.83034 -60.03481,-77.79075 z"
           id="path3319-3"
           sodipodi:nodetypes="ssssssscccccsssss" />
        <path
           style="display:inline;fill:#1e9cf1;fill-opacity:1;stroke:#000000;stroke-width:7.55906;stroke-linecap:round;stroke-linejoin:round;stroke-miterlimit:4;stroke-dasharray:none;stroke-opacity:1;paint-order:normal"
           d="m 158.34296,317.97741 c -32.24484,-41.96041 -58.62698,-76.49791 -58.62698,-76.75 0,-0.25209 13.01237,-2.27646 37.54966,-0.45835 40.70533,3.01609 42.71909,-0.23833 44.04432,-5.51845 0.83336,-3.3204 1.2803,-2.31981 -28.51225,-63.83232 -14.34495,-29.61794 -26.20305,-55.261 -26.20305,-55.75557 0,-0.518 -1.26251,0.10634 42.06065,0.10634 h 41.93933 l 25.01283,75.25001 25.01283,75.24999 -37.54141,0.5 -37.54141,0.5 -1.91076,2.36078 c -1.05091,1.29844 -1.91075,3.27837 -1.91075,4.39985 0,1.51806 29.93553,98.58958 37.0799,120.23847 0.8575,2.59841 0.80164,2.79882 -0.4181,1.5 -0.77431,-0.8245 -27.78998,-35.83034 -60.03481,-77.79075 z"
           id="path3319-3-6"
           sodipodi:nodetypes="ssssssscccccsssss" />
      </g>
    </g>
  </g>
</svg>
