<?xml version="1.0" encoding="UTF-8" standalone="no"?>
<!-- Created with Inkscape (http://www.inkscape.org/) -->

<svg
   version="1.1"
   id="svg1329"
   width="132.884"
   height="132.88269"
   viewBox="0 0 132.884 132.88269"
   sodipodi:docname="IconsEdited"
   inkscape:version="1.2.2 (732a01da63, 2022-12-09, custom)"
   xmlns:inkscape="http://www.inkscape.org/namespaces/inkscape"
   xmlns:sodipodi="http://sodipodi.sourceforge.net/DTD/sodipodi-0.dtd"
   xmlns="http://www.w3.org/2000/svg"
   xmlns:svg="http://www.w3.org/2000/svg">
  <defs
     id="defs1333">
    <linearGradient
       id="linearGradient12516"
       inkscape:swatch="solid">
      <stop
         style="stop-color:#000000;stop-opacity:1;"
         offset="0"
         id="stop12514" />
    </linearGradient>
    <linearGradient
       id="linearGradient10464"
       inkscape:swatch="solid">
      <stop
         style="stop-color:#000000;stop-opacity:1;"
         offset="0"
         id="stop10462" />
    </linearGradient>
  </defs>
  <sodipodi:namedview
     id="namedview1331"
     pagecolor="#ffffff"
     bordercolor="#999999"
     borderopacity="1"
     inkscape:showpageshadow="0"
     inkscape:pageopacity="0"
     inkscape:pagecheckerboard="0"
     inkscape:deskcolor="#d1d1d1"
     showgrid="false"
     inkscape:lockguides="true"
     inkscape:zoom="0.64785944"
     inkscape:cx="236.16234"
     inkscape:cy="329.54679"
     inkscape:window-width="1366"
     inkscape:window-height="704"
     inkscape:window-x="0"
     inkscape:window-y="0"
     inkscape:window-maximized="1"
     inkscape:current-layer="g1339" />
  <g
     id="g1337"
     inkscape:groupmode="layer"
     inkscape:label="Page 1"
     transform="matrix(1.3333333,0,0,-1.3333333,-163.20532,155.38267)">
    <g
       id="g1339"
       transform="scale(0.1)">
      <path
         d="M 2209.42,667.051 C 2209.42,398.07 1991.35,180 1722.35,180 c -268.99,0 -487.06,218.07 -487.06,487.051 0,269.008 218.07,487.069 487.06,487.069 269,0 487.07,-218.061 487.07,-487.069"
         style="fill:#1e9cf1;fill-opacity:1;fill-rule:nonzero;stroke:#000000;stroke-width:22.5;stroke-dasharray:none;stroke-opacity:1"
         id="path2401"
         inkscape:export-filename="../3cb8410b/installation@64x64_border.png"
         inkscape:export-xdpi="46.235813"
         inkscape:export-ydpi="46.235813" />
      <path
         d="m 1523.33,475.492 h 406.023 V 953.109 H 1523.33 Z"
         style="fill:#dfebe7;fill-opacity:1;fill-rule:nonzero;stroke:none"
         id="path2403" />
      <path
         d="m 1929.58,475.492 h -406.04 405.81 V 952.84 l 0.23,0.269 V 475.492"
         style="fill:#debb10;fill-opacity:1;fill-rule:nonzero;stroke:none"
         id="path2405" />
      <path
         d="M 1929.35,475.492 H 1523.54 L 1929.35,952.84 V 475.492"
         style="fill:#cad9d8;fill-opacity:1;fill-rule:nonzero;stroke:none"
         id="path2407" />
      <path
         d="m 1871.79,532.82 h -289.36 v 360.399 h 289.36 V 532.82"
         style="fill:#afc7c8;fill-opacity:1;fill-rule:nonzero;stroke:none"
         id="path2409" />
      <path
         d="m 1659.23,575.332 c -2.74,0 -4.8,0.977 -5.84,2.75 -1.01,1.758 -0.82,4.039 0.55,6.418 l 68.15,118.059 c 1.39,2.382 3.26,3.683 5.3,3.683 2.04,0 3.92,-1.301 5.29,-3.683 L 1800.84,584.5 c 1.37,-2.379 1.57,-4.66 0.53,-6.418 -1.01,-1.773 -3.08,-2.75 -5.81,-2.75 h -136.33"
         style="fill:#f1ea0a;fill-opacity:1;fill-rule:nonzero;stroke:none"
         id="path2411" />
      <path
         d="m 1676.75,591.551 50.64,87.719 50.63,-87.719 z m 111.16,-1.781 -57.14,98.96 c -1.86,3.219 -4.91,3.219 -6.76,0 l -57.13,-98.96 c -1.88,-3.239 -0.35,-5.868 3.36,-5.868 h 114.29 c 3.72,0 5.26,2.629 3.38,5.868"
         style="fill:#3b2d38;fill-opacity:1;fill-rule:nonzero;stroke:none"
         id="path2413" />
      <path
         d="m 1729.58,653.551 -17.6,-31.352 h 14.55 l -6.2,-25.949 19.9,32.75 -15.48,-0.02 4.83,24.571"
         style="fill:#3b2d38;fill-opacity:1;fill-rule:nonzero;stroke:none"
         id="path2415" />
      <path
         d="m 1648.91,714.289 c 0,-13.5 -10.96,-24.449 -24.46,-24.449 -13.5,0 -24.45,10.949 -24.45,24.449 0,13.5 10.95,24.461 24.45,24.461 13.5,0 24.46,-10.961 24.46,-24.461"
         style="fill:#dfebe7;fill-opacity:1;fill-rule:nonzero;stroke:none"
         id="path2417" />
      <path
         d="m 1630.21,716.879 c 0,-2.387 -1.47,-4.477 -3.56,-5.27 v -5.98 c 0,-1.231 -0.97,-2.199 -2.2,-2.199 -1.22,0 -2.19,0.968 -2.19,2.199 v 5.98 c -2.08,0.793 -3.55,2.883 -3.55,5.27 0,3.172 2.58,5.73 5.74,5.73 3.18,0 5.76,-2.558 5.76,-5.73"
         style="fill:#8e989a;fill-opacity:1;fill-rule:nonzero;stroke:none"
         id="path2419" />
      <path
         d="m 1801,842.949 h -149.29 c 0,3.551 1.46,6.723 3.72,9.051 2.33,2.332 5.57,3.73 9.05,3.73 h 123.79 c 7.03,0 12.73,-5.75 12.73,-12.781"
         style="fill:#dfebe7;fill-opacity:1;fill-rule:nonzero;stroke:none"
         id="path2421" />
      <path
         d="m 1797.62,842.949 c 0,-6.699 -5.42,-12.129 -12.15,-12.129 h -118.21 c -6.71,0 -12.2,5.43 -12.2,12.129 h 142.56"
         style="fill:#8e989a;fill-opacity:1;fill-rule:nonzero;stroke:none"
         id="path2423" />
      <path
         d="m 1667.26,836.93 c -3.96,0 -7.34,2.511 -8.61,6.019 h 135.39 c -1.27,-3.508 -4.62,-6.019 -8.57,-6.019 h -118.21"
         style="fill:#6b7577;fill-opacity:1;fill-rule:nonzero;stroke:none"
         id="path2425" />
      <path
         d="m 1801,812.379 h -149.29 c 0,3.57 1.46,6.73 3.72,9.07 2.33,2.313 5.57,3.723 9.05,3.723 h 123.79 c 7.03,0 12.73,-5.762 12.73,-12.793"
         style="fill:#dfebe7;fill-opacity:1;fill-rule:nonzero;stroke:none"
         id="path2427" />
      <path
         d="m 1797.62,812.379 c 0,-6.699 -5.42,-12.137 -12.15,-12.137 h -118.21 c -6.71,0 -12.2,5.438 -12.2,12.137 h 142.56"
         style="fill:#8e989a;fill-opacity:1;fill-rule:nonzero;stroke:none"
         id="path2429" />
      <path
         d="m 1801,781.832 h -149.29 c 0,3.539 1.46,6.707 3.72,9.047 2.33,2.312 5.57,3.723 9.05,3.723 h 123.79 c 7.03,0 12.73,-5.75 12.73,-12.77"
         style="fill:#dfebe7;fill-opacity:1;fill-rule:nonzero;stroke:none"
         id="path2431" />
      <path
         d="m 1797.62,781.832 c 0,-6.711 -5.42,-12.152 -12.15,-12.152 h -118.21 c -6.71,0 -12.2,5.441 -12.2,12.152 h 142.56"
         style="fill:#8e989a;fill-opacity:1;fill-rule:nonzero;stroke:none"
         id="path2433" />
      <path
         d="m 1667.26,806.371 c -3.96,0 -7.34,2.52 -8.61,6.008 h 135.39 c -1.27,-3.488 -4.62,-6.008 -8.57,-6.008 h -118.21"
         style="fill:#6b7577;fill-opacity:1;fill-rule:nonzero;stroke:none"
         id="path2435" />
      <path
         d="m 1667.26,775.801 c -3.96,0 -7.34,2.519 -8.61,6.031 h 135.39 c -1.27,-3.512 -4.62,-6.031 -8.57,-6.031 h -118.21"
         style="fill:#6b7577;fill-opacity:1;fill-rule:nonzero;stroke:none"
         id="path2437" />
      <path
         d="m 1660.01,312.469 h 55.7773 V 475.492 H 1660.01 Z"
         style="fill:#ea5d3e;fill-opacity:1;fill-rule:nonzero;stroke:none"
         id="path2439" />
      <path
         d="m 1792.17,312.469 h -55.73 v 163.023 h 55.77 v -0.023 h -0.04 v -163 m -51.73,25.851 v -13.371 h 47.76 v 13.371 h -47.76 m 0,25.61 v -13.379 h 47.76 v 13.379 h -47.76 m 0,25.59 v -13.368 h 47.76 v 13.368 h -47.76 m 0,25.601 v -13.359 h 47.76 v 13.359 h -47.76 m 0,25.59 V 427.34 h 47.76 v 13.371 h -47.76 m 0,25.621 v -13.391 h 47.76 v 13.391 h -47.76"
         style="fill:#52a4b0;fill-opacity:1;fill-rule:nonzero;stroke:none"
         id="path2441" />
      <path
         d="m 1663.81,452.941 h 47.7617 v 13.3906 H 1663.81 Z"
         style="fill:#cd4b2f;fill-opacity:1;fill-rule:nonzero;stroke:none"
         id="path2443" />
      <path
         d="m 1663.81,427.34 h 47.7617 v 13.3711 H 1663.81 Z"
         style="fill:#cd4b2f;fill-opacity:1;fill-rule:nonzero;stroke:none"
         id="path2445" />
      <path
         d="m 1663.81,401.762 h 47.7617 v 13.3594 H 1663.81 Z"
         style="fill:#cd4b2f;fill-opacity:1;fill-rule:nonzero;stroke:none"
         id="path2447" />
      <path
         d="m 1663.81,376.152 h 47.7617 v 13.3672 H 1663.81 Z"
         style="fill:#cd4b2f;fill-opacity:1;fill-rule:nonzero;stroke:none"
         id="path2449" />
      <path
         d="m 1663.81,350.551 h 47.7617 v 13.3789 H 1663.81 Z"
         style="fill:#cd4b2f;fill-opacity:1;fill-rule:nonzero;stroke:none"
         id="path2451" />
      <path
         d="m 1663.81,324.949 h 47.7617 v 13.3711 H 1663.81 Z"
         style="fill:#cd4b2f;fill-opacity:1;fill-rule:nonzero;stroke:none"
         id="path2453" />
      <path
         d="m 1740.44,452.941 h 47.7578 v 13.3906 H 1740.44 Z"
         style="fill:#438c9a;fill-opacity:1;fill-rule:nonzero;stroke:none"
         id="path2455" />
      <path
         d="m 1740.44,427.34 h 47.7578 v 13.3711 H 1740.44 Z"
         style="fill:#438c9a;fill-opacity:1;fill-rule:nonzero;stroke:none"
         id="path2457" />
      <path
         d="m 1740.44,401.762 h 47.7578 v 13.3594 H 1740.44 Z"
         style="fill:#438c9a;fill-opacity:1;fill-rule:nonzero;stroke:none"
         id="path2459" />
      <path
         d="m 1740.44,376.152 h 47.7578 v 13.3672 H 1740.44 Z"
         style="fill:#438c9a;fill-opacity:1;fill-rule:nonzero;stroke:none"
         id="path2461" />
      <path
         d="m 1740.44,350.551 h 47.7578 v 13.3789 H 1740.44 Z"
         style="fill:#438c9a;fill-opacity:1;fill-rule:nonzero;stroke:none"
         id="path2463" />
      <path
         d="m 1740.44,324.949 h 47.7578 v 13.3711 H 1740.44 Z"
         style="fill:#438c9a;fill-opacity:1;fill-rule:nonzero;stroke:none"
         id="path2465" />
      <path
         d="m 1788.07,184.379 -0.02,0.012 c 72.76,9.808 140.41,35.691 199.29,73.929 -58.87,-38.25 -126.52,-64.129 -199.27,-73.941 m 199.76,74.262 v 0 0"
         style="fill:#ddc598;fill-opacity:1;fill-rule:nonzero;stroke:none"
         id="path2467" />
      <path
         d="M 1815.9811,252.21231 1659.98,312.461 h 55.8 v 0.008 h 0.01 v 163 h 20.58 V 312.461 h 55.8 v 0.008 h 0.04 v 163 h 137.37 v 477.402 l 186.9433,-293.90839 c -90.5203,9.41948 7.6064,109.2303 5.9996,-4.17143 -2.4234,-171.03284 -326.7404,-325.06147 -172.8963,-284.18586 l 42.784,11.36751 c 66.5998,17.69524 -32.7758,-77.33736 -32.9458,-77.44736 -58.88,-38.238 -89.6136,-13.85457 -162.3736,-23.66257"
         style="fill:#1e9cf1;fill-opacity:1;fill-rule:nonzero;stroke:none"
         id="path2469"
         sodipodi:nodetypes="cccccccccccccccssscc" />
      <path
         d="m 1715.78,312.469 h 0.01 v 163 h -0.01 z"
         style="fill:#cd4a28;fill-opacity:1;fill-rule:nonzero;stroke:none"
         id="path2471" />
      <path
         d="m 1792.17,312.469 h 0.039 v 163 h -0.039 z"
         style="fill:#407f6f;fill-opacity:1;fill-rule:nonzero;stroke:none"
         id="path2473" />
      <path
         d="m 1659.98,338.77 -136.7,136.699 h 136.7 V 338.77"
         style="fill:#1e9cf1;fill-opacity:1;fill-rule:nonzero;stroke:none"
         id="path2475" />
    </g>
  </g>
</svg>
