<?xml version="1.0" encoding="UTF-8" standalone="no"?>
<!-- Created with Inkscape (http://www.inkscape.org/) -->

<svg
   version="1.1"
   id="svg1329"
   width="132.88266"
   height="132.88269"
   viewBox="0 0 132.88266 132.88269"
   sodipodi:docname="IconsEdited"
   inkscape:version="1.2.2 (732a01da63, 2022-12-09, custom)"
   xmlns:inkscape="http://www.inkscape.org/namespaces/inkscape"
   xmlns:sodipodi="http://sodipodi.sourceforge.net/DTD/sodipodi-0.dtd"
   xmlns="http://www.w3.org/2000/svg"
   xmlns:svg="http://www.w3.org/2000/svg">
  <defs
     id="defs1333">
    <linearGradient
       id="linearGradient12516"
       inkscape:swatch="solid">
      <stop
         style="stop-color:#000000;stop-opacity:1;"
         offset="0"
         id="stop12514" />
    </linearGradient>
    <linearGradient
       id="linearGradient10464"
       inkscape:swatch="solid">
      <stop
         style="stop-color:#000000;stop-opacity:1;"
         offset="0"
         id="stop10462" />
    </linearGradient>
  </defs>
  <sodipodi:namedview
     id="namedview1331"
     pagecolor="#ffffff"
     bordercolor="#999999"
     borderopacity="1"
     inkscape:showpageshadow="0"
     inkscape:pageopacity="0"
     inkscape:pagecheckerboard="0"
     inkscape:deskcolor="#d1d1d1"
     showgrid="false"
     inkscape:lockguides="true"
     inkscape:zoom="0.64785944"
     inkscape:cx="236.16234"
     inkscape:cy="329.54679"
     inkscape:window-width="1366"
     inkscape:window-height="704"
     inkscape:window-x="0"
     inkscape:window-y="0"
     inkscape:window-maximized="1"
     inkscape:current-layer="g1339" />
  <g
     id="g1337"
     inkscape:groupmode="layer"
     inkscape:label="Page 1"
     transform="matrix(1.3333333,0,0,-1.3333333,-22.499999,155.38267)">
    <g
       id="g1339"
       transform="scale(0.1)">
      <g
         id="g9528"
         inkscape:export-filename="../77e87183/schematics@64x64_blue.png"
         inkscape:export-xdpi="47.304237"
         inkscape:export-ydpi="47.304237">
        <path
           d="M 1154.12,667.051 C 1154.12,398.07 936.055,180 667.059,180 398.066,180 180,398.07 180,667.051 c 0,269.008 218.066,487.069 487.059,487.069 268.996,0 487.061,-218.061 487.061,-487.069"
           style="fill:#1e9cf1;fill-opacity:1;fill-rule:nonzero;stroke:#000000;stroke-width:22.5;stroke-dasharray:none;stroke-opacity:1"
           id="path2257"
           inkscape:export-filename="../92f51241/schematics@64x64_border.png"
           inkscape:export-xdpi="46.236282"
           inkscape:export-ydpi="46.236282" />
        <g
           id="g9453">
          <path
             d="m 891.121,836.359 v -152.91 h -12.199 v 152.91 c 0,3.36 2.754,6.102 6.105,6.102 3.375,0 6.094,-2.742 6.094,-6.102"
             style="fill:#ffffff;fill-opacity:1;fill-rule:nonzero;stroke:none"
             id="path2259" />
          <path
             d="m 603.176,671.641 c 7.406,-4.969 13.441,-13.532 13.441,-27.45 0,-13.91 -6.035,-22.472 -13.441,-27.441 7.406,-4.969 13.441,-13.551 13.441,-27.461 0,-22.391 -15.586,-30.859 -27.445,-32.957 v -21.934 c 0,-3.359 -2.719,-6.109 -6.106,-6.109 h -76.25 V 397.141 c 0,-3.352 -2.714,-6.09 -6.093,-6.09 -3.36,0 -6.11,2.738 -6.11,6.09 v 137.257 c 0,3.344 2.75,6.102 6.11,6.102 h 76.242 v 21.352 c 0,3.347 2.746,6.089 6.101,6.089 2.168,0.039 21.348,0.801 21.348,21.348 0,20.742 -19.148,21.352 -21.348,21.352 -3.355,0 -6.101,2.757 -6.101,6.109 0,3.352 2.746,6.09 6.101,6.09 2.168,0.039 21.348,0.789 21.348,21.351 0,20.739 -19.148,21.36 -21.348,21.36 -3.355,0 -6.101,2.738 -6.101,6.09 0,3.371 2.746,6.101 6.101,6.101 2.168,0.028 21.348,0.797 21.348,21.36 0,20.738 -19.148,21.347 -21.348,21.347 -3.355,0 -6.101,2.742 -6.101,6.102 v 21.351 h -76.242 c -3.36,0 -6.11,2.727 -6.11,6.098 v 82.359 c 0,3.36 2.75,6.102 6.11,6.102 h 77 V 830.25 h -70.907 v -70.141 h 76.25 c 3.387,0 6.106,-2.75 6.106,-6.109 v -21.93 c 11.859,-2.101 27.445,-10.59 27.445,-32.968 0,-13.911 -6.035,-22.481 -13.441,-27.461"
             style="fill:#ffffff;fill-opacity:1;fill-rule:nonzero;stroke:none"
             id="path2261" />
          <path
             d="m 623.578,830.25 12.192,6.109 -12.192,6.102 h 96.746 c 3.371,0 6.102,-2.742 6.102,-6.102 V 659.449 H 714.223 V 830.25 h -90.645"
             style="fill:#ffffff;fill-opacity:1;fill-rule:nonzero;stroke:none"
             id="path2263" />
          <path
             d="M 891.121,613.332 V 452.039 c 0,-3.348 -2.719,-6.098 -6.094,-6.098 H 720.324 c -3.355,0 -6.101,2.75 -6.101,6.098 v 192.152 h 12.203 v -186.05 h 152.496 v 155.191 h 12.199"
             style="fill:#ffffff;fill-opacity:1;fill-rule:nonzero;stroke:none"
             id="path2265" />
          <path
             d="M 720.344,445.941 H 500.727 c -3.364,0 -6.09,2.731 -6.09,6.098 0,3.363 2.726,6.102 6.09,6.102 h 219.617 c 3.351,0 6.082,-2.739 6.082,-6.102 0,-3.367 -2.731,-6.098 -6.082,-6.098"
             style="fill:#ffffff;fill-opacity:1;fill-rule:nonzero;stroke:none"
             id="path2267" />
          <path
             d="M 885.039,830.25 H 720.344 c -3.375,0 -6.11,2.73 -6.11,6.109 0,3.36 2.735,6.102 6.11,6.102 h 164.695 c 3.363,0 6.109,-2.742 6.109,-6.102 0,-3.379 -2.746,-6.109 -6.109,-6.109"
             style="fill:#ffffff;fill-opacity:1;fill-rule:nonzero;stroke:none"
             id="path2269" />
          <path
             d="m 500.727,528.289 h -82.36 c -3.363,0 -6.094,2.742 -6.094,6.109 V 754 c 0,3.371 2.731,6.109 6.094,6.109 h 82.36 c 3.371,0 6.093,-2.738 6.093,-6.109 0,-3.371 -2.722,-6.098 -6.093,-6.098 h -76.25 V 540.5 h 76.25 c 3.371,0 6.093,-2.738 6.093,-6.102 0,-3.367 -2.722,-6.109 -6.093,-6.109"
             style="fill:#ffffff;fill-opacity:1;fill-rule:nonzero;stroke:none"
             id="path2271" />
          <path
             d="m 500.727,885.152 c -2.039,0 -3.938,1.028 -5.075,2.719 l -54.906,82.359 c -1.863,2.801 -1.105,6.59 1.695,8.45 2.801,1.879 6.579,1.109 8.461,-1.688 l 49.825,-74.742 49.832,74.742 c 1.867,2.797 5.648,3.567 8.461,1.688 2.8,-1.86 3.554,-5.649 1.695,-8.45 l -54.918,-82.359 c -1.125,-1.691 -3.024,-2.719 -5.07,-2.719"
             style="fill:#ffffff;fill-opacity:1;fill-rule:nonzero;stroke:none"
             id="path2273" />
          <path
             d="m 500.727,747.902 c -3.364,0 -6.09,2.727 -6.09,6.098 v 137.25 c 0,3.379 2.726,6.102 6.09,6.102 3.371,0 6.093,-2.723 6.093,-6.102 V 754 c 0,-3.371 -2.722,-6.098 -6.093,-6.098"
             style="fill:#ffffff;fill-opacity:1;fill-rule:nonzero;stroke:none"
             id="path2275" />
          <path
             d="m 500.727,885.152 c -3.364,0 -6.09,2.739 -6.09,6.098 v 82.352 c 0,3.367 2.726,6.109 6.09,6.109 3.371,0 6.093,-2.742 6.093,-6.109 V 891.25 c 0,-3.359 -2.722,-6.098 -6.093,-6.098"
             style="fill:#ffffff;fill-opacity:1;fill-rule:nonzero;stroke:none"
             id="path2277" />
          <path
             d="M 555.625,391.051 H 445.824 c -3.371,0 -6.101,2.711 -6.101,6.09 0,3.371 2.73,6.101 6.101,6.101 h 109.801 c 3.383,0 6.113,-2.73 6.113,-6.101 0,-3.379 -2.73,-6.09 -6.113,-6.09"
             style="fill:#ffffff;fill-opacity:1;fill-rule:nonzero;stroke:none"
             id="path2279" />
          <path
             d="M 528.188,363.582 H 473.27 c -3.364,0 -6.098,2.738 -6.098,6.109 0,3.36 2.734,6.098 6.098,6.098 h 54.918 c 3.355,0 6.089,-2.738 6.089,-6.098 0,-3.371 -2.734,-6.109 -6.089,-6.109"
             style="fill:#ffffff;fill-opacity:1;fill-rule:nonzero;stroke:none"
             id="path2281" />
          <path
             d="m 635.77,836.359 -12.192,-6.109 -45.855,-22.898 v 58.007 l 45.855,-22.898 12.192,-6.102 m 13.632,44.981 c -3.351,0 -6.097,-2.738 -6.097,-6.11 v -28.988 l -68.934,34.457 c -1.887,0.953 -4.152,0.852 -5.949,-0.269 -1.789,-1.098 -2.891,-3.098 -2.891,-5.2 v -77.761 c 0,-2.11 1.102,-4.09 2.891,-5.188 0.976,-0.609 2.109,-0.91 3.203,-0.91 0.949,0 1.902,0.211 2.746,0.641 l 68.934,34.457 v -29 c 0,-3.348 2.746,-6.098 6.097,-6.098 3.391,0 6.106,2.75 6.106,6.098 v 77.761 c 0,3.372 -2.715,6.11 -6.106,6.11"
             style="fill:#ffffff;fill-opacity:1;fill-rule:nonzero;stroke:none"
             id="path2283" />
          <path
             d="m 961.273,589.641 -42.695,21.351 v 74.797 l 42.695,21.359 V 589.641 m -54.894,23.691 h -42.703 v 70.117 h 42.703 v -70.117 m 64.234,108.898 c -1.8,1.09 -4.047,1.18 -5.949,0.231 l -53.625,-26.813 h -53.465 c -3.351,0 -6.094,-2.707 -6.094,-6.097 V 607.23 c 0,-3.39 2.743,-6.109 6.094,-6.109 h 53.465 l 53.625,-26.801 c 0.859,-0.418 1.801,-0.64 2.719,-0.64 1.129,0 2.242,0.3 3.23,0.879 1.805,1.132 2.864,3.093 2.864,5.23 V 717 c 0,2.152 -1.059,4.09 -2.864,5.23"
             style="fill:#ffffff;fill-opacity:1;fill-rule:nonzero;stroke:none"
             id="path2285" />
          <path
             d="m 781.324,665.551 c 0,-3.36 -2.711,-6.102 -6.105,-6.102 H 665.422 c -3.356,0 -6.098,2.742 -6.098,6.102 0,3.359 2.742,6.09 6.098,6.09 h 109.797 c 3.394,0 6.105,-2.731 6.105,-6.09"
             style="fill:#ffffff;fill-opacity:1;fill-rule:nonzero;stroke:none"
             id="path2287" />
          <path
             d="m 781.324,638.102 c 0,-3.352 -2.711,-6.102 -6.105,-6.102 H 665.422 c -3.356,0 -6.098,2.75 -6.098,6.102 0,3.347 2.742,6.089 6.098,6.089 h 109.797 c 3.394,0 6.105,-2.742 6.105,-6.089"
             style="fill:#ffffff;fill-opacity:1;fill-rule:nonzero;stroke:none"
             id="path2289" />
          <path
             d="m 734.059,836.359 c 0,-7.578 -6.145,-13.73 -13.715,-13.73 -7.59,0 -13.739,6.152 -13.739,13.73 0,7.582 6.149,13.723 13.739,13.723 7.57,0 13.715,-6.141 13.715,-13.723"
             style="fill:#ffffff;fill-opacity:1;fill-rule:nonzero;stroke:none"
             id="path2291" />
          <path
             d="m 514.465,836.359 c 0,-7.578 -6.152,-13.73 -13.738,-13.73 -7.579,0 -13.731,6.152 -13.731,13.73 0,7.582 6.152,13.723 13.731,13.723 7.586,0 13.738,-6.141 13.738,-13.723"
             style="fill:#ffffff;fill-opacity:1;fill-rule:nonzero;stroke:none"
             id="path2293" />
          <path
             d="m 514.465,754 c 0,-7.578 -6.152,-13.73 -13.738,-13.73 -7.579,0 -13.731,6.152 -13.731,13.73 0,7.582 6.152,13.719 13.731,13.719 7.586,0 13.738,-6.137 13.738,-13.719"
             style="fill:#ffffff;fill-opacity:1;fill-rule:nonzero;stroke:none"
             id="path2295" />
          <path
             d="m 514.465,533.371 c 0,-7.59 -6.152,-13.723 -13.738,-13.723 -7.579,0 -13.731,6.133 -13.731,13.723 0,7.598 6.152,13.731 13.731,13.731 7.586,0 13.738,-6.133 13.738,-13.731"
             style="fill:#ffffff;fill-opacity:1;fill-rule:nonzero;stroke:none"
             id="path2297" />
          <path
             d="m 514.465,452.031 c 0,-7.582 -6.152,-13.722 -13.738,-13.722 -7.579,0 -13.731,6.14 -13.731,13.722 0,7.59 6.152,13.739 13.731,13.739 7.586,0 13.738,-6.149 13.738,-13.739"
             style="fill:#ffffff;fill-opacity:1;fill-rule:nonzero;stroke:none"
             id="path2299" />
          <path
             d="m 734.059,452.031 c 0,-7.582 -6.145,-13.722 -13.715,-13.722 -7.59,0 -13.739,6.14 -13.739,13.722 0,7.59 6.149,13.739 13.739,13.739 7.57,0 13.715,-6.149 13.715,-13.739"
             style="fill:#ffffff;fill-opacity:1;fill-rule:nonzero;stroke:none"
             id="path2301" />
          <path
             d="m 667.074,179.961 c -4.304,0 -8.504,0.098 -12.801,0.199 l -0.007,0.012 c 4.257,-0.121 8.507,-0.172 12.793,-0.172 132.25,0 252.203,52.719 339.971,138.281 C 919.262,232.699 799.309,179.961 667.074,179.961 M 1007.07,318.32 c 0.08,0.078 0.15,0.141 0.22,0.219 -0.07,-0.078 -0.14,-0.141 -0.22,-0.219"
             style="fill:#ddc598;fill-opacity:1;fill-rule:nonzero;stroke:none"
             id="path2303" />
          <path
             d="m 669.71574,289.03923 c 6.84968,68.69075 -13.0468,-29.45573 -17.3038,-29.33473 L 469.867,364.57 c 0.91,-0.609 2.102,-0.988 3.41,-0.988 h 54.891 c 0.68,0 1.34,0.109 1.957,0.32 2.41,0.809 4.152,3.098 4.152,5.789 0,3.36 -2.734,6.098 -6.089,6.098 H 473.27 c -3.364,0 -6.098,-2.738 -6.098,-6.098 v -0.011 -0.008 c 0,-1.313 0.402,-2.5 0.996,-3.402 l -25.801,25.8 c 1.008,-0.699 2.207,-1.109 3.41,-1.109 H 555.57 c 1.649,0 3.133,0.66 4.223,1.711 1.199,1.109 1.945,2.699 1.945,4.469 0,3.371 75.09224,11.72459 71.71241,11.5784 L 506.816,403.242 v 36.488 c 2.664,1.321 4.84,3.481 6.18,6.129 H 708.07 c 1.016,-2.007 2.508,-3.738 4.336,-5.027 2.231,-1.613 4.977,-2.57 7.969,-2.57 2.676,0 5.172,0.789 7.27,2.16 2.105,1.32 3.824,3.207 4.949,5.437 h 152.383 c 1.875,0 3.539,0.86 4.652,2.18 0.93,1.082 1.492,2.481 1.492,4 V 601.07 h 19.852 l 53.699,-26.808 0.219,-0.051 c 0.777,-0.34 1.613,-0.52 2.429,-0.531 l 0.047,-0.008 c 0.559,0 1.113,0.078 1.656,0.23 0.555,0.149 1.09,0.368 1.59,0.657 0.942,0.593 1.676,1.402 2.168,2.351 0.278,0.52 0.477,1.102 0.586,1.699 0.074,0.391 0.11,0.782 0.11,1.18 V 717 c 0,2.152 -1.059,4.09 -2.864,5.23 -0.968,0.59 -2.07,0.879 -3.179,0.879 -0.946,0 -1.895,-0.207 -2.77,-0.648 l -5.484,-2.742 -48.207,-24.059 h -19.852 v 140.102 l 0.055,0.609 c 0,0.719 -0.149,1.461 -0.422,2.149 -0.16,0.41 -0.359,0.8 -0.598,1.16 l 197.1985,-220.95664 c -17.87,-102.851 -165.06149,-1.44539 -82.007,-178.47932 -15.94219,163.35985 -90.6564,-14.16252 -14.22158,-35.69249 -0.01,-0.019 -9.59678,14.52543 -9.61678,14.50543 -87.768,-85.562 -208.63184,-152.77524 -340.88184,-152.77524"
             style="fill:#1e9cf1;fill-opacity:1;fill-rule:nonzero;stroke:none"
             id="path2305"
             sodipodi:nodetypes="cccsscsssscsccsscsscccccsccscsccccccccccsscsccccccccccccc" />
          <path
             d="m 891.121,695.66 h -0.051 v 139.5 l 0.051,0.602 V 695.66"
             style="fill:#ddc598;fill-opacity:1;fill-rule:nonzero;stroke:none"
             id="path2307" />
          <path
             d="m 506.816,403.242 h -0.043 v 36.469 c 0.012,0.008 0.028,0.008 0.043,0.019 v -36.488"
             style="fill:#ddc598;fill-opacity:1;fill-rule:nonzero;stroke:none"
             id="path2309" />
          <path
             d="m 889.629,448.039 c 0.898,1.07 1.441,2.453 1.441,3.93 V 601.07 h 0.051 V 452.039 c 0,-1.519 -0.562,-2.918 -1.492,-4"
             style="fill:#ddc598;fill-opacity:1;fill-rule:nonzero;stroke:none"
             id="path2311" />
          <path
             d="m 890.754,838.52 c -0.18,0.441 -0.406,0.859 -0.68,1.25 l 0.082,-0.09 c 0.239,-0.36 0.438,-0.75 0.598,-1.16"
             style="fill:#ddc598;fill-opacity:1;fill-rule:nonzero;stroke:none"
             id="path2313" />
          <path
             d="m 559.793,392.672 c 1.164,1.129 1.883,2.699 1.883,4.398 0,3.399 -2.707,6.09 -6.106,6.09 h -48.797 v 0.082 h 0.043 48.809 c 3.383,0 6.113,-2.73 6.113,-6.101 0,-1.77 -0.746,-3.36 -1.945,-4.469"
             style="fill:#ddc598;fill-opacity:1;fill-rule:nonzero;stroke:none"
             id="path2315" />
          <path
             d="m 530.125,363.902 c 2.383,0.809 4.148,3.067 4.148,5.77 0,3.297 -2.804,6.09 -6.105,6.09 h -54.891 c -3.406,0 -6.097,-2.793 -6.105,-6.082 0,0 0,0 0,0.011 0,3.36 2.734,6.098 6.098,6.098 h 54.918 c 3.355,0 6.089,-2.738 6.089,-6.098 0,-2.691 -1.742,-4.98 -4.152,-5.789"
             style="fill:#ddc598;fill-opacity:1;fill-rule:nonzero;stroke:none"
             id="path2317" />
          <path
             d="m 967.32,573.68 c -0.816,0.011 -1.652,0.191 -2.429,0.531 l 2.429,-0.531 m 1.703,0.222 c 0.536,0.149 1.055,0.368 1.547,0.668 0.953,0.582 1.707,1.379 2.211,2.34 -0.492,-0.949 -1.226,-1.758 -2.168,-2.351 -0.5,-0.289 -1.035,-0.508 -1.59,-0.657 m 4.344,4.707 c 0.071,0.383 0.106,0.762 0.106,1.161 v 137.199 c 0,2.191 -1.106,4.101 -2.903,5.203 -0.984,0.598 -2.093,0.898 -3.207,0.898 -0.914,0 -1.832,-0.199 -2.691,-0.609 l -5.492,-2.742 5.484,2.742 c 0.875,0.441 1.824,0.648 2.77,0.648 1.109,0 2.211,-0.289 3.179,-0.879 1.805,-1.14 2.864,-3.078 2.864,-5.23 V 579.789 c 0,-0.398 -0.036,-0.789 -0.11,-1.18"
             style="fill:#ddc598;fill-opacity:1;fill-rule:nonzero;stroke:none"
             id="path2319" />
          <path
             d="m 506.773,439.711 v 0.059 c 2.696,1.3 4.903,3.39 6.102,6.089 h 0.121 c -1.34,-2.648 -3.516,-4.808 -6.18,-6.129 -0.015,-0.011 -0.031,-0.011 -0.043,-0.019"
             style="fill:#ddc598;fill-opacity:1;fill-rule:nonzero;stroke:none"
             id="path2321" />
          <path
             d="m 727.645,440.422 c 2.058,1.328 3.738,3.219 4.832,5.437 h 0.117 c -1.125,-2.23 -2.844,-4.117 -4.949,-5.437 m -15.239,0.41 c -1.828,1.289 -3.32,3.02 -4.336,5.027 h 0.098 c 0.984,-2 2.441,-3.73 4.238,-5.027"
             style="fill:#ddc598;fill-opacity:1;fill-rule:nonzero;stroke:none"
             id="path2323" />
          <path
             d="M 878.871,458.141 H 732.629 c -1.336,2.691 -3.52,4.879 -6.203,6.211 v 167.617 h 48.746 c 1.73,0 3.285,0.703 4.391,1.84 1.089,1.101 1.761,2.621 1.761,4.293 0,3.347 -2.711,6.089 -6.105,6.089 h -48.793 -12.203 -48.801 c -2.086,0 -3.938,-1.062 -5.035,-2.671 -0.699,-0.989 -1.114,-2.18 -1.114,-3.45 0,-3.398 2.801,-6.101 6.102,-6.101 h 48.801 v -167.66 c -2.656,-1.329 -4.817,-3.5 -6.141,-6.168 H 513.031 c -1.336,2.691 -3.527,4.879 -6.215,6.211 v 56.718 c 0.243,0.121 0.485,0.239 0.719,0.379 2.613,1.391 4.656,3.672 5.793,6.442 0.051,0.129 0.102,0.25 0.152,0.371 h 69.59 c 3.399,0 6.106,2.699 6.106,6.109 v 21.899 c 6.383,1.132 13.887,4.14 19.426,10.222 4.714,5.149 8.015,12.5 8.015,22.797 0,13.871 -6.004,22.441 -13.383,27.422 3.579,2.418 6.825,5.699 9.215,10.008 2.567,4.562 4.168,10.312 4.168,17.472 0,13.879 -6.008,22.438 -13.387,27.411 3.793,2.578 7.215,6.097 9.645,10.8 2.316,4.438 3.742,9.938 3.742,16.7 0,22.089 -15.183,30.648 -26.98,32.89 -0.157,0.028 -0.309,0.047 -0.461,0.078 v 21.899 c 0,0.32 -0.028,0.64 -0.074,0.961 -0.004,0.011 -0.004,0.019 -0.008,0.031 0,0.008 0,0.008 0,0.019 -0.465,2.899 -2.973,5.129 -6.028,5.129 h -70.035 c -1.336,2.68 -3.523,4.86 -6.211,6.192 v 57.75 c 2.688,1.328 4.875,3.519 6.211,6.199 h 52.442 v -32.789 c 0,-2.09 1.105,-4.102 2.902,-5.191 0.996,-0.61 2.098,-0.899 3.203,-0.899 0.008,0 0.02,0 0.027,0 0.008,0 0.012,0 0.02,0 0.223,0 0.441,0.008 0.66,0.031 0.723,0.078 1.403,0.258 2.086,0.567 l 50.25,25.16 18.656,9.32 v -28.988 c 0,-3.402 2.793,-6.09 6.094,-6.09 0.004,0 0.012,0 0.016,0 0.008,0 0.011,0 0.015,0 3.391,0 6.106,2.75 6.106,6.098 v 32.781 h 52.527 c 0.367,-0.73 0.797,-1.43 1.285,-2.09 0.883,-1.219 1.961,-2.281 3.211,-3.101 0.524,-0.36 1.074,-0.688 1.645,-0.969 V 671.641 h -48.754 c -2.199,0 -4.133,-1.172 -5.203,-2.93 -0.598,-0.93 -0.946,-2.039 -0.946,-3.242 0,-2.379 1.457,-4.438 3.504,-5.41 0.801,-0.387 1.7,-0.61 2.645,-0.61 h 109.797 c 3.394,0 6.105,2.742 6.105,6.102 0,3.359 -2.711,6.09 -6.105,6.09 h -48.793 v 152.41 c 2.683,1.328 4.871,3.519 6.203,6.199 H 878.871 V 695.66 h -21.297 c -3.398,0 -6.105,-2.789 -6.105,-6.09 v -82.398 c 0,-3.402 2.707,-6.102 6.105,-6.102 h 21.297 V 458.141"
             style="fill:none;fill-opacity:1;fill-rule:nonzero;stroke:none"
             id="path2325" />
          <path
             d="m 506.816,464.352 c -0.015,0.007 -0.031,0.019 -0.043,0.019 v 56.668 c 0.012,0.012 0.028,0.02 0.043,0.031 v -56.718 m 101.786,102.14 c 4.691,5.149 7.976,12.5 7.976,22.77 0,13.898 -6.008,22.5 -13.41,27.398 0.023,0.02 0.047,0.031 0.066,0.051 7.379,-4.981 13.383,-13.551 13.383,-27.422 0,-10.297 -3.301,-17.648 -8.015,-22.797 m 3.847,60.227 c 2.543,4.57 4.129,10.312 4.129,17.441 0,13.91 -6.008,22.5 -13.41,27.399 0.02,0.023 0.043,0.031 0.062,0.043 7.379,-4.973 13.387,-13.532 13.387,-27.411 0,-7.16 -1.601,-12.91 -4.168,-17.472 m 0.426,55.683 c 2.293,4.438 3.703,9.93 3.703,16.657 0,22.113 -15.207,30.683 -26.941,32.933 11.797,-2.242 26.98,-10.801 26.98,-32.89 0,-6.762 -1.426,-12.262 -3.742,-16.7 m -23.773,72.528 c -0.004,0.011 -0.004,0.019 -0.008,0.031 0.004,-0.012 0.004,-0.02 0.008,-0.031 m -0.008,0.05 c -0.477,2.899 -2.969,5.079 -6.024,5.079 h -70.015 c -0.008,0.023 -0.016,0.031 -0.024,0.05 h 70.035 c 3.055,0 5.563,-2.23 6.028,-5.129 m -23.621,75.27 h -52.442 c 0.004,0.012 0.008,0.02 0.012,0.02 h 52.43 v -0.02"
             style="fill:#ddc598;fill-opacity:1;fill-rule:nonzero;stroke:none"
             id="path2327" />
          <path
             d="m 726.426,671.641 h -0.055 V 824.02 c 0.02,0.011 0.035,0.019 0.055,0.031 V 671.641 M 708.035,830.25 h -52.527 v 0.02 h 52.519 c 0,0 0.004,-0.008 0.008,-0.02"
             style="fill:#ddc598;fill-opacity:1;fill-rule:nonzero;stroke:none"
             id="path2329" />
          <path
             d="M 878.871,458.07 H 732.668 c -0.016,0.02 -0.027,0.051 -0.039,0.071 h 146.242 v -0.071 m -152.445,6.282 c -0.02,0.007 -0.035,0.019 -0.055,0.027 v 167.59 h 0.055 V 464.352"
             style="fill:#ddc598;fill-opacity:1;fill-rule:nonzero;stroke:none"
             id="path2331" />
          <path
             d="M 708,458.07 H 513.07 c -0.011,0.02 -0.027,0.051 -0.039,0.071 h 195.004 c -0.012,-0.02 -0.023,-0.051 -0.035,-0.071"
             style="fill:#ddc598;fill-opacity:1;fill-rule:nonzero;stroke:none"
             id="path2333" />
          <path
             d="M 878.871,830.25 H 732.629 c 0.004,0.012 0.008,0.02 0.012,0.02 h 146.23 v -0.02"
             style="fill:#ddc598;fill-opacity:1;fill-rule:nonzero;stroke:none"
             id="path2335" />
          <path
             d="m 506.82,766.301 c -0.015,0.008 -0.031,0.019 -0.047,0.031 v 57.699 c 0.016,0 0.032,0.008 0.047,0.02 v -57.75"
             style="fill:#ddc598;fill-opacity:1;fill-rule:nonzero;stroke:none"
             id="path2337" />
          <path
             d="m 649.402,791.371 c -0.004,0 -0.007,0 -0.015,0 3.39,0.008 6.086,2.699 6.086,6.09 v 32.809 h 0.035 v -0.02 -32.781 c 0,-3.348 -2.715,-6.098 -6.106,-6.098 m -77.777,0 c -0.008,0 -0.012,0 -0.02,0 0.231,0 0.458,0.008 0.68,0.031 -0.219,-0.023 -0.437,-0.031 -0.66,-0.031 m 52.996,25.758 18.656,9.34 v -0.02 l -18.656,-9.32"
             style="fill:#ddc598;fill-opacity:1;fill-rule:nonzero;stroke:none"
             id="path2339" />
          <path
             d="M 775.219,659.449 H 665.422 c -0.945,0 -1.844,0.223 -2.645,0.61 0.793,-0.379 1.676,-0.59 2.598,-0.59 h 109.797 c 3.398,0 6.101,2.703 6.101,6 0,3.402 -2.703,6.09 -6.101,6.09 h -48.801 v 0.082 h 0.055 48.793 c 3.394,0 6.105,-2.731 6.105,-6.09 0,-3.36 -2.711,-6.102 -6.105,-6.102 m -115,9.262 c 1.07,1.758 3.004,2.93 5.203,2.93 h 48.754 v -0.082 h -48.801 c -2.137,0 -4.062,-1.129 -5.156,-2.848"
             style="fill:#ddc598;fill-opacity:1;fill-rule:nonzero;stroke:none"
             id="path2341" />
          <path
             d="m 779.563,633.809 c 1.062,1.093 1.71,2.593 1.71,4.261 0,3.301 -2.703,6.09 -6.101,6.09 H 665.375 c -2.027,0 -3.871,-1.058 -4.988,-2.64 1.097,1.609 2.949,2.671 5.035,2.671 h 48.801 12.203 48.793 c 3.394,0 6.105,-2.742 6.105,-6.089 0,-1.672 -0.672,-3.192 -1.761,-4.293"
             style="fill:#ddc598;fill-opacity:1;fill-rule:nonzero;stroke:none"
             id="path2343" />
          <path
             d="m 726.371,824.02 v 0.039 c 2.707,1.312 4.902,3.5 6.203,6.211 h 0.067 c -0.004,0 -0.008,-0.008 -0.012,-0.02 -1.332,-2.68 -3.52,-4.871 -6.203,-6.199 -0.02,-0.012 -0.035,-0.02 -0.055,-0.031 m -12.195,0.07 c -0.571,0.281 -1.121,0.609 -1.645,0.969 0.52,-0.34 1.071,-0.637 1.645,-0.899 v -0.07 m -4.856,4.07 c -0.488,0.66 -0.918,1.36 -1.285,2.09 -0.004,0.012 -0.008,0.02 -0.008,0.02 h 0.043 c 0.36,-0.739 0.778,-1.45 1.25,-2.11"
             style="fill:#ddc598;fill-opacity:1;fill-rule:nonzero;stroke:none"
             id="path2345" />
          <path
             d="m 506.773,824.031 v 0.028 c 2.696,1.312 4.903,3.5 6.2,6.211 h 0.07 c -0.004,0 -0.008,-0.008 -0.012,-0.02 -1.336,-2.68 -3.523,-4.871 -6.211,-6.199 -0.015,-0.012 -0.031,-0.02 -0.047,-0.02"
             style="fill:#ddc598;fill-opacity:1;fill-rule:nonzero;stroke:none"
             id="path2347" />
          <path
             d="m 513.055,760.059 h -0.082 c -1.297,2.711 -3.504,4.902 -6.2,6.113 v 0.16 c 0.016,-0.012 0.032,-0.023 0.047,-0.031 2.688,-1.332 4.875,-3.512 6.211,-6.192 0.008,-0.019 0.016,-0.027 0.024,-0.05"
             style="fill:#ddc598;fill-opacity:1;fill-rule:nonzero;stroke:none"
             id="path2349" />
          <path
             d="m 506.773,521.039 v 0.043 c 0.258,0.109 0.512,0.238 0.762,0.367 -0.234,-0.14 -0.476,-0.258 -0.719,-0.379 -0.015,-0.011 -0.031,-0.019 -0.043,-0.031 m 6.555,6.852 c 0.051,0.129 0.098,0.25 0.145,0.371 h 0.007 c -0.05,-0.121 -0.101,-0.242 -0.152,-0.371"
             style="fill:#ddc598;fill-opacity:1;fill-rule:nonzero;stroke:none"
             id="path2351" />
          <path
             d="m 513.07,458.07 h -0.097 c -1.297,2.692 -3.504,4.899 -6.2,6.192 v 0.109 c 0.012,0 0.028,-0.012 0.043,-0.019 2.688,-1.332 4.879,-3.52 6.215,-6.211 0.012,-0.02 0.028,-0.051 0.039,-0.071"
             style="fill:#ddc598;fill-opacity:1;fill-rule:nonzero;stroke:none"
             id="path2353" />
          <path
             d="m 732.668,458.07 h -0.094 c -1.301,2.692 -3.496,4.899 -6.203,6.192 v 0.117 c 0.02,-0.008 0.035,-0.02 0.055,-0.027 2.683,-1.332 4.867,-3.52 6.203,-6.211 0.012,-0.02 0.023,-0.051 0.039,-0.071 m -24.598,0 H 708 c 0.012,0.02 0.023,0.051 0.035,0.071 1.324,2.668 3.485,4.839 6.141,6.168 v -0.149 c -2.707,-1.191 -4.805,-3.398 -6.106,-6.09"
             style="fill:#ddc598;fill-opacity:1;fill-rule:nonzero;stroke:none"
             id="path2355" />
          <path
             d="m 576.965,540.5 h -64.492 c -2.41,3.961 -6.77,6.602 -11.746,6.602 -4.973,0 -9.329,-2.641 -11.739,-6.602 h -64.511 v 207.371 h 63.961 c 0.757,-1.512 1.785,-2.871 3.023,-4 2.434,-2.23 5.691,-3.601 9.207,-3.601 0.012,0 0.023,0 0.035,0 0.008,0 0.016,0 0.024,0 5.382,0 10.039,3.101 12.293,7.601 h 63.945 v -21.32 c 0,-0.5 0.062,-1 0.18,-1.469 0.652,-2.691 3.039,-4.711 5.925,-4.711 2.2,0 21.301,-0.601 21.301,-21.312 0,-6.899 -2.152,-11.559 -5.098,-14.719 -5.843,-6.238 -14.769,-6.578 -16.207,-6.598 -3.355,0 -6.101,-2.73 -6.101,-6.101 0,-0.129 0.004,-0.27 0.012,-0.399 0.168,-3.16 2.808,-5.773 6.093,-5.773 2.2,0 21.301,-0.61 21.301,-21.309 0,-8.121 -2.988,-13.148 -6.734,-16.258 -5.746,-4.754 -13.262,-5.031 -14.571,-5.062 -3.355,0 -6.101,-2.738 -6.101,-6.09 0,-0.121 0,-0.238 0.008,-0.359 0.144,-3.18 2.797,-5.821 6.097,-5.821 2.2,0 21.301,-0.609 21.301,-21.308 0,-7.532 -2.566,-12.403 -5.926,-15.551 -5.824,-5.43 -14.007,-5.742 -15.379,-5.77 -3.355,0 -6.101,-2.742 -6.101,-6.089 V 540.5"
             style="fill:none;fill-opacity:1;fill-rule:nonzero;stroke:none"
             id="path2357" />
          <path
             d="m 576.969,540.469 h -64.481 c -0.004,0.011 -0.011,0.023 -0.015,0.031 h 64.492 v 21.352 c 0,3.347 2.746,6.089 6.101,6.089 1.372,0.028 9.555,0.34 15.379,5.77 -5.828,-5.469 -14.043,-5.781 -15.375,-5.84 -3.398,0 -6.101,-2.711 -6.101,-6.109 v -21.293 m 0.004,75.922 c -0.008,0.121 -0.008,0.238 -0.008,0.359 0,3.352 2.746,6.09 6.101,6.09 1.309,0.031 8.825,0.308 14.571,5.062 -5.754,-4.793 -13.293,-5.07 -14.567,-5.132 -3.398,0 -6.101,-2.711 -6.101,-6.11 0,-0.09 0,-0.18 0.004,-0.269 m 0.004,54.851 c -0.008,0.129 -0.012,0.27 -0.012,0.399 0,3.371 2.746,6.101 6.101,6.101 1.438,0.02 10.364,0.36 16.207,6.598 -5.843,-6.281 -14.804,-6.61 -16.203,-6.68 -3.398,0 -6.101,-2.699 -6.101,-6.101 0,-0.11 0,-0.207 0.008,-0.317 m 0.168,53.84 c -0.118,0.469 -0.18,0.969 -0.18,1.469 v 21.32 h 0.004 v -21.312 c 0,-0.508 0.058,-1.008 0.176,-1.477"
             style="fill:#ddc598;fill-opacity:1;fill-rule:nonzero;stroke:none"
             id="path2359" />
          <path
             d="m 488.969,540.469 h -64.5 v 207.402 h 0.008 V 540.5 h 64.511 c -0.008,-0.008 -0.011,-0.02 -0.019,-0.031"
             style="fill:#ddc598;fill-opacity:1;fill-rule:nonzero;stroke:none"
             id="path2361" />
          <path
             d="m 500.727,740.27 c -0.008,0 -0.016,0 -0.024,0 5.387,0.019 10.078,3.101 12.27,7.601 h 0.047 c -2.254,-4.5 -6.911,-7.601 -12.293,-7.601 m -9.266,3.601 c -1.238,1.129 -2.266,2.488 -3.023,4 h 0.035 c 0.738,-1.512 1.757,-2.871 2.988,-4"
             style="fill:#ddc598;fill-opacity:1;fill-rule:nonzero;stroke:none"
             id="path2363" />
          <path
             d="m 512.488,540.469 h -0.121 c -2.293,4 -6.699,6.601 -11.699,6.601 -4.891,0 -9.297,-2.601 -11.59,-6.601 h -0.109 c 0.008,0.011 0.011,0.023 0.019,0.031 2.41,3.961 6.766,6.602 11.739,6.602 4.976,0 9.336,-2.641 11.746,-6.602 0.004,-0.008 0.011,-0.02 0.015,-0.031"
             style="fill:#ddc598;fill-opacity:1;fill-rule:nonzero;stroke:none"
             id="path2365" />
          <path
             d="m 906.371,613.332 h -42.695 v 70.027 h 42.695 v -70.027"
             style="fill:#0b8dd9;fill-opacity:1;fill-rule:nonzero;stroke:none"
             id="path2367" />
          <path
             d="m 906.371,613.262 h -42.695 v 0.07 h 42.695 v -0.07"
             style="fill:#ddc598;fill-opacity:1;fill-rule:nonzero;stroke:none"
             id="path2369" />
          <path
             d="m 961.273,589.641 -42.695,21.351 v 74.778 l 42.695,21.3 V 589.641"
             style="fill:#0b8dd9;fill-opacity:1;fill-rule:nonzero;stroke:none"
             id="path2371" />
          <path
             d="m 961.273,589.57 -42.703,21.391 v 74.801 l 0.008,0.008 v -74.778 l 42.695,-21.351 V 707.07 589.57"
             style="fill:none;fill-opacity:1;fill-rule:nonzero;stroke:none"
             id="path2373" />
          <path
             d="m 577.723,807.391 v 57.949 l 45.847,-22.879 3.368,-1.68 8.828,-4.422 -12.196,-6.089 -45.847,-22.879"
             style="fill:#0b8dd9;fill-opacity:1;fill-rule:nonzero;stroke:none"
             id="path2375" />
          <path
             d="m 577.672,807.359 v 58.012 l 0.051,-0.031 v -57.949 l -0.051,-0.032 m 58.094,29 -8.828,4.422 8.839,-4.41 -0.011,-0.012"
             style="fill:#ddc598;fill-opacity:1;fill-rule:nonzero;stroke:none"
             id="path2377" />
          <path
             d="m 695.172,842.461 h -39.664 v 32.769 c 0,3.372 -2.715,6.11 -6.106,6.11 -2.558,0 -4.765,-1.598 -5.664,-3.848 -0.297,-0.711 -0.461,-1.5 -0.461,-2.332 v -28.91 l -68.906,34.449 c -0.859,0.43 -1.797,0.653 -2.73,0.653 -1.121,0 -2.239,-0.313 -3.219,-0.922 -0.594,-0.371 -1.113,-0.828 -1.539,-1.371 -0.899,-1.079 -1.41,-2.469 -1.41,-3.899 v -32.699 h -52.442 c -1.336,2.68 -3.523,4.871 -6.211,6.199 v 40.75 l 50.36,75.52 3.488,5.23 c 0.148,0.211 0.281,0.442 0.395,0.66 0.003,0.012 0.007,0.02 0.011,0.02 0,0.012 0,0.012 0,0.012 0.981,1.929 0.844,4.199 -0.254,5.968 L 695.172,842.461"
             style="fill:none;fill-opacity:1;fill-rule:nonzero;stroke:none"
             id="path2379" />
          <path
             d="m 506.82,889.41 v 0.039 l 50.36,75.481 -50.36,-75.52 m 54.243,81.41 c 0.003,0.012 0.007,0.02 0.011,0.02 -0.004,0 -0.008,-0.008 -0.011,-0.02 m 0.011,0.032 c 1.043,2.07 0.742,4.507 -0.601,6.32 l 0.347,-0.352 c 1.098,-1.769 1.235,-4.039 0.254,-5.968"
             style="fill:#ddc598;fill-opacity:1;fill-rule:nonzero;stroke:none"
             id="path2381" />
          <path
             d="m 506.82,848.66 c -0.015,0 -0.031,0.012 -0.047,0.02 v 40.699 l 0.047,0.07 v -0.039 -40.75"
             style="fill:#ddc598;fill-opacity:1;fill-rule:nonzero;stroke:none"
             id="path2383" />
          <path
             d="m 655.508,842.461 h -0.035 v 32.699 c 0,3.422 -2.703,6.11 -6.102,6.11 -2.5,0 -4.707,-1.54 -5.633,-3.778 0.899,2.25 3.106,3.848 5.664,3.848 3.391,0 6.106,-2.738 6.106,-6.11 v -32.769 m -12.231,3.711 -68.906,34.488 c -0.863,0.461 -1.812,0.68 -2.758,0.68 -1.133,0 -2.261,-0.32 -3.238,-0.969 -0.574,-0.351 -1.074,-0.801 -1.492,-1.312 0.426,0.543 0.945,1 1.539,1.371 0.98,0.609 2.098,0.922 3.219,0.922 0.933,0 1.871,-0.223 2.73,-0.653 l 68.906,-34.449 v -0.078"
             style="fill:#1e9cf1;fill-opacity:1;fill-rule:nonzero;stroke:none"
             id="path2385" />
          <path
             d="m 513.031,842.461 h -0.156 c -1.199,2.699 -3.406,4.809 -6.102,6.109 v 0.11 c 0.016,-0.008 0.032,-0.02 0.047,-0.02 2.688,-1.328 4.875,-3.519 6.211,-6.199 v 0"
             style="fill:#ddc598;fill-opacity:1;fill-rule:nonzero;stroke:none"
             id="path2387" />
          <path
             d="m 506.82,911.391 v 62.211 c 0,1.207 -0.347,2.328 -0.949,3.277 L 532.668,950.16 506.82,911.391"
             style="fill:#0b8dd9;fill-opacity:1;fill-rule:nonzero;stroke:none"
             id="path2389" />
          <path
             d="m 506.82,911.34 v 0.051 l 25.848,38.769 h 0.004 L 506.82,911.34"
             style="fill:#c8bfc5;fill-opacity:1;fill-rule:nonzero;stroke:none"
             id="path2391" />
          <path
             d="m 506.773,911.27 v 62.3 c 0,1.289 -0.402,2.5 -0.996,3.399 l 0.094,-0.09 c 0.602,-0.949 0.949,-2.07 0.949,-3.277 v -62.211 -0.051 l -0.047,-0.07"
             style="fill:#c8bfc5;fill-opacity:1;fill-rule:nonzero;stroke:none"
             id="path2393" />
          <path
             d="M 494.637,911.379 480.66768,932.33858 451,976.852 481.95908,945.95393 494.637,933.301 v -21.922"
             style="fill:#0b8dd9;fill-opacity:1;fill-rule:nonzero;stroke:none"
             id="path2395"
             sodipodi:nodetypes="cccccc" />
          <path
             d="m 494.637,911.219 -43.762,65.75 0.125,-0.117 43.637,-65.473 v -0.16"
             style="fill:#0b8dd9;fill-opacity:1;fill-rule:nonzero;stroke:none"
             id="path2397" />
          <path
             d="m 494.672,911.172 -0.035,0.047 v 22.082 l 0.035,-0.039 v -22.09"
             style="fill:#1e9cf1;fill-opacity:1;fill-rule:nonzero;stroke:none"
             id="path2399" />
        </g>
      </g>
    </g>
  </g>
</svg>
