<?xml version="1.0" encoding="UTF-8" standalone="no"?>
<!-- Created with Inkscape (http://www.inkscape.org/) -->

<svg
   version="1.1"
   id="svg1329"
   width="132.88266"
   height="132.88266"
   viewBox="0 0 132.88266 132.88266"
   sodipodi:docname="IconsEdited"
   inkscape:version="1.2.2 (732a01da63, 2022-12-09, custom)"
   xmlns:inkscape="http://www.inkscape.org/namespaces/inkscape"
   xmlns:sodipodi="http://sodipodi.sourceforge.net/DTD/sodipodi-0.dtd"
   xmlns="http://www.w3.org/2000/svg"
   xmlns:svg="http://www.w3.org/2000/svg">
  <defs
     id="defs1333">
    <linearGradient
       id="linearGradient12516"
       inkscape:swatch="solid">
      <stop
         style="stop-color:#000000;stop-opacity:1;"
         offset="0"
         id="stop12514" />
    </linearGradient>
    <linearGradient
       id="linearGradient10464"
       inkscape:swatch="solid">
      <stop
         style="stop-color:#000000;stop-opacity:1;"
         offset="0"
         id="stop10462" />
    </linearGradient>
    <clipPath
       clipPathUnits="userSpaceOnUse"
       id="clipPath1945">
      <path
         d="m 2806.16,3844.88 h -2.6 c -0.99,0 -1.82,0.81 -1.82,1.81 v 4.98 h -4.97 c -0.98,0 -1.8,0.8 -1.8,1.8 v 2.6 c 0,0.99 0.82,1.81 1.8,1.81 h 4.97 v 4.97 c 0,1 0.83,1.81 1.82,1.81 h 2.6 c 1,0 1.8,-0.81 1.8,-1.81 v -4.97 h 4.98 c 0.99,0 1.81,-0.82 1.81,-1.81 v -2.6 c 0,-1 -0.82,-1.8 -1.81,-1.8 h -4.98 v -4.98 c 0,-1 -0.8,-1.81 -1.8,-1.81"
         id="path1943" />
    </clipPath>
    <radialGradient
       fx="0"
       fy="0"
       cx="0"
       cy="0"
       r="1"
       gradientUnits="userSpaceOnUse"
       gradientTransform="matrix(9.89014,0,0,-9.89014,2804.86,3854.77)"
       spreadMethod="pad"
       id="radialGradient1951">
      <stop
         style="stop-opacity:1;stop-color:#697d95"
         offset="0"
         id="stop1947" />
      <stop
         style="stop-opacity:1;stop-color:#667a93"
         offset="1"
         id="stop1949" />
    </radialGradient>
    <clipPath
       clipPathUnits="userSpaceOnUse"
       id="clipPath1965">
      <path
         d="m 2570.5,3805.66 h -3.41 c -1.28,0 -2.34,1.05 -2.34,2.34 v 6.49 h -6.49 c -1.3,0 -2.36,1.07 -2.36,2.37 v 3.39 c 0,1.31 1.06,2.37 2.36,2.37 h 6.49 v 2.45 l 8.12,0.17 v -2.62 h 6.48 c 1.3,0 2.35,-1.06 2.35,-2.37 v -3.39 c 0,-1.3 -1.05,-2.37 -2.35,-2.37 h -6.48 V 3808 c 0,-1.29 -1.06,-2.34 -2.37,-2.34"
         id="path1963" />
    </clipPath>
    <radialGradient
       fx="0"
       fy="0"
       cx="0"
       cy="0"
       r="1"
       gradientUnits="userSpaceOnUse"
       gradientTransform="matrix(0,12.8955,12.8955,0,2568.8,3818.56)"
       spreadMethod="pad"
       id="radialGradient1971">
      <stop
         style="stop-opacity:1;stop-color:#697d95"
         offset="0"
         id="stop1967" />
      <stop
         style="stop-opacity:1;stop-color:#667a93"
         offset="1"
         id="stop1969" />
    </radialGradient>
    <clipPath
       clipPathUnits="userSpaceOnUse"
       id="clipPath1991">
      <path
         d="m 2564.75,3825.07 v 4.03 c 0,1.29 1.06,2.35 2.34,2.35 h 3.41 c 1.31,0 2.37,-1.06 2.37,-2.35 v -3.86 l -8.12,-0.17"
         id="path1989" />
    </clipPath>
    <radialGradient
       fx="0"
       fy="0"
       cx="0"
       cy="0"
       r="1"
       gradientUnits="userSpaceOnUse"
       gradientTransform="matrix(0,12.8955,12.8955,0,2568.8,3818.56)"
       spreadMethod="pad"
       id="radialGradient1997">
      <stop
         style="stop-opacity:1;stop-color:#5f738d"
         offset="0"
         id="stop1993" />
      <stop
         style="stop-opacity:1;stop-color:#5d718b"
         offset="1"
         id="stop1995" />
    </radialGradient>
  </defs>
  <sodipodi:namedview
     id="namedview1331"
     pagecolor="#ffffff"
     bordercolor="#999999"
     borderopacity="1"
     inkscape:showpageshadow="0"
     inkscape:pageopacity="0"
     inkscape:pagecheckerboard="0"
     inkscape:deskcolor="#d1d1d1"
     showgrid="false"
     inkscape:lockguides="true"
     inkscape:zoom="0.64785944"
     inkscape:cx="236.16234"
     inkscape:cy="329.54679"
     inkscape:window-width="1366"
     inkscape:window-height="704"
     inkscape:window-x="0"
     inkscape:window-y="0"
     inkscape:window-maximized="1"
     inkscape:current-layer="g1339" />
  <g
     id="g1337"
     inkscape:groupmode="layer"
     inkscape:label="Page 1"
     transform="matrix(1.3333333,0,0,-1.3333333,-303.91199,577.50132)">
    <g
       id="g1339"
       transform="scale(0.1)">
      <path
         d="m 3264.71,3832.95 c 0,-268.99 -218.06,-487.06 -487.05,-487.06 -269,0 -487.07,218.07 -487.07,487.06 0,269 218.07,487.06 487.07,487.06 268.99,0 487.05,-218.06 487.05,-487.06"
         style="fill:#1e9cf1;fill-opacity:1;fill-rule:nonzero;stroke:#000000;stroke-width:22.5;stroke-dasharray:none;stroke-opacity:1"
         id="path1895"
         inkscape:export-filename="../27098777/socket@64x64_border.png"
         inkscape:export-xdpi="46.236282"
         inkscape:export-ydpi="46.236282" />
      <path
         d="m 2817.33,3726.5 v -91.33 c 0,-71.98 -58.54,-130.5 -130.5,-130.5 -71.96,0 -130.49,58.52 -130.49,130.5 v 187.64 c 4.34,-0.79 8.76,-1.15 13.3,-1.15 3.94,0 7.83,0.31 11.61,0.85 v -187.34 c 0,-58.24 47.37,-105.6 105.58,-105.6 58.22,0 105.6,47.36 105.6,105.6 v 91.33 h 24.9"
         style="fill:#f25d19;fill-opacity:1;fill-rule:nonzero;stroke:none"
         id="path1897" />
      <path
         d="m 2589.66,3642.48 h 430.379 v 430.395 H 2589.66 Z"
         style="fill:#fcfcfd;fill-opacity:1;fill-rule:nonzero;stroke:none"
         id="path1899" />
      <path
         d="m 2959.35,3703.13 h -37.2 l -0.04,0.05 h 37.23 v 308.98 h 0.01 v -309.03 m -9.96,10.01 h -37.24 l -54.29,54.29 c -15.55,-9.21 -33.67,-14.44 -53,-14.44 -12,0 -23.52,2.01 -34.25,5.72 v 0 c 10.73,-3.71 22.25,-5.72 34.25,-5.72 19.33,0 37.45,5.23 53,14.44 14.93,8.71 27.49,21.07 36.44,35.81 7.83,12.85 12.97,27.49 14.65,43.18 0.4,3.69 0.61,7.47 0.61,11.26 0,3.78 -0.21,7.57 -0.61,11.25 -1.68,15.69 -6.82,30.32 -14.65,43.18 -4.35,7.14 -9.53,13.71 -15.42,19.6 l 70.49,70.49 h 0.02 v -289.06 m 70.66,359.73 h -0.01 v 0.01"
         style="fill:#e7ebee;fill-opacity:1;fill-rule:nonzero;stroke:none"
         id="path1901" />
      <path
         d="m 2658.3,3904.63 c -1.38,0.58 -2.83,1.05 -4.33,1.39 1.5,-0.33 2.94,-0.8 4.33,-1.39 m 2.04,60.32 -9.96,9.96 v 37.25 h 308.95 l -9.96,-9.96 h -289.03 v -37.25"
         style="fill:#97a0a8;fill-opacity:1;fill-rule:nonzero;stroke:none"
         id="path1903" />
      <path
         d="m 2959.34,3703.18 h -37.23 l -0.01,0.01 -9.95,9.95 h 37.24 v 289.06 h -0.02 l 9.96,9.96 h 0.01 v -308.98"
         style="fill:#8994a0;fill-opacity:1;fill-rule:nonzero;stroke:none"
         id="path1905" />
      <path
         d="m 2959.35,3703.13 h -308.97 v 309.03 h 308.97 v -309.03 m -369.69,369.74 v -430.4 h 430.39 v 430.4 h -430.39"
         style="fill:#dee8e5;fill-opacity:1;fill-rule:nonzero;stroke:none"
         id="path1907" />
      <path
         d="m 2909.56,3857.68 c 0,-3.79 -0.21,-7.57 -0.61,-11.26 -1.68,-15.69 -6.82,-30.33 -14.65,-43.18 -8.95,-14.74 -21.51,-27.1 -36.44,-35.81 -15.55,-9.21 -33.67,-14.44 -53,-14.44 -37.65,0 -70.61,19.82 -89.05,49.65 -8.05,13 -13.33,27.83 -15.03,43.78 -0.4,3.69 -0.61,7.47 -0.61,11.26 0,3.78 0.21,7.57 0.61,11.25 1.59,15.08 6.41,29.23 13.83,41.73 l 1.2,2.05 c 18.44,29.83 51.4,49.65 89.05,49.65 37.89,0 71.08,-20.13 89.44,-50.25 7.83,-12.86 12.97,-27.49 14.65,-43.18 0.4,-3.68 0.61,-7.47 0.61,-11.25"
         style="fill:#c2cdca;fill-opacity:1;fill-rule:nonzero;stroke:none"
         id="path1909" />
      <path
         d="m 2714.58,3910.7 -0.1,0.1 c 0.38,0.64 0.77,1.28 1.16,1.91 18.42,29.83 51.4,49.65 89.05,49.65 1,0 2,-0.01 2.99,-0.04 -0.94,0.03 -1.88,0.04 -2.82,0.04 -37.65,0 -70.61,-19.82 -89.05,-49.65 l -0.01,-0.04 v 0.04 0 c -0.42,-0.67 -0.82,-1.34 -1.22,-2.01"
         style="fill:#c8d2da;fill-opacity:1;fill-rule:nonzero;stroke:none"
         id="path1911" />
      <path
         d="m 2770.61,3758.71 c -22.93,7.93 -42.23,23.61 -54.8,43.93 0,0.01 -0.01,0.02 -0.01,0.03 v 14.52 0 29.23 h -15.02 v 0 c -0.4,3.69 -0.61,7.47 -0.61,11.26 0,3.78 0.21,7.57 0.61,11.25 v 0 h 9.49 v 0 h 5.53 v 20.17 0 23.57 l 0.01,0.04 c 18.44,29.83 51.4,49.65 89.05,49.65 0.94,0 1.88,-0.01 2.82,-0.04 36.64,-1.02 68.57,-20.87 86.45,-50.21 0.05,-0.08 0.1,-0.16 0.15,-0.25 v -9.87 c -16.97,15.91 -39.78,25.66 -64.84,25.66 -34.12,0 -63.95,-17.92 -80.58,-44.92 -7.32,-11.75 -12.12,-25.15 -13.64,-39.59 -0.37,-3.34 -0.51,-6.77 -0.51,-10.21 0,-3.38 0.14,-6.82 0.51,-10.16 1.52,-14.44 6.32,-27.83 13.64,-39.59 5.76,-9.39 13.17,-17.69 21.75,-24.47"
         style="fill:#97a8b0;fill-opacity:1;fill-rule:nonzero;stroke:none"
         id="path1913" />
      <path
         d="m 2908.94,3868.93 h -14.66 v 43.18 c 7.83,-12.86 12.97,-27.49 14.66,-43.18"
         style="fill:#f5f5f5;fill-opacity:1;fill-rule:nonzero;stroke:none"
         id="path1915" />
      <path
         d="m 2908.94,3846.42 c -1.69,-15.69 -6.83,-30.33 -14.66,-43.18 v 43.18 h 14.66"
         style="fill:#f5f5f5;fill-opacity:1;fill-rule:nonzero;stroke:none"
         id="path1917" />
      <path
         d="m 2715.8,3912.71 v -43.78 h -15.03 c 1.7,15.94 6.96,30.78 15.03,43.78"
         style="fill:#f5f5f5;fill-opacity:1;fill-rule:nonzero;stroke:none"
         id="path1919" />
      <path
         d="m 2715.8,3846.42 v -43.77 c -8.07,13 -13.33,27.84 -15.03,43.77 h 15.03"
         style="fill:#f5f5f5;fill-opacity:1;fill-rule:nonzero;stroke:none"
         id="path1921" />
      <path
         d="M 2908.94,3868.93 H 2906 c -1.88,11.91 -5.92,23.16 -11.72,33.22 v 9.96 c 7.83,-12.86 12.97,-27.49 14.66,-43.18"
         style="fill:#c1c9d2;fill-opacity:1;fill-rule:nonzero;stroke:none"
         id="path1923" />
      <path
         d="m 2710.27,3868.93 h -9.49 c 1.59,15.08 6.41,29.23 13.83,41.73 l -0.03,0.04 c 0.4,0.67 0.8,1.34 1.22,2.01 v -23.61 c -2.59,-6.43 -4.43,-13.2 -5.53,-20.17"
         style="fill:#c1c9d2;fill-opacity:1;fill-rule:nonzero;stroke:none"
         id="path1925" />
      <path
         d="m 2715.8,3802.67 c -8.05,12.99 -13.33,27.82 -15.02,43.75 v 0 h 8.49 c 0.07,-1.34 0.17,-2.64 0.3,-3.93 0.96,-8.87 3.05,-17.33 6.23,-25.3 v -14.52"
         style="fill:#c1c9d2;fill-opacity:1;fill-rule:nonzero;stroke:none"
         id="path1927" />
      <path
         d="m 2812.83,3927.97 h -16.81 v 28.32 h 16.81 v -28.32"
         style="fill:#ba821c;fill-opacity:1;fill-rule:nonzero;stroke:none"
         id="path1929" />
      <path
         d="m 2796.33,3758.95 h 16.8164 v 28.3203 H 2796.33 Z"
         style="fill:#ba821c;fill-opacity:1;fill-rule:nonzero;stroke:none"
         id="path1931" />
      <path
         d="m 2773.1,3857.68 c 0,-8.7 -7.06,-15.77 -15.77,-15.77 -8.71,0 -15.77,7.07 -15.77,15.77 0,8.71 7.06,15.77 15.77,15.77 8.71,0 15.77,-7.06 15.77,-15.77"
         style="fill:#434b57;fill-opacity:1;fill-rule:nonzero;stroke:none"
         id="path1933" />
      <path
         d="m 2868.56,3857.68 c 0,-8.7 -7.07,-15.77 -15.78,-15.77 -8.7,0 -15.76,7.07 -15.76,15.77 0,8.71 7.06,15.77 15.76,15.77 8.71,0 15.78,-7.06 15.78,-15.77"
         style="fill:#434b57;fill-opacity:1;fill-rule:nonzero;stroke:none"
         id="path1935" />
      <path
         d="m 2819.02,3854.78 c 0,-7.83 -6.34,-14.18 -14.17,-14.18 -7.81,0 -14.15,6.35 -14.15,14.18 0,7.8 6.34,14.15 14.15,14.15 7.83,0 14.17,-6.35 14.17,-14.15"
         style="fill:#8799ac;fill-opacity:1;fill-rule:nonzero;stroke:none"
         id="path1937" />
      <g
         id="g1939">
        <g
           id="g1941"
           clip-path="url(#clipPath1945)">
          <path
             d="m 2806.16,3844.88 h -2.6 c -0.99,0 -1.82,0.81 -1.82,1.81 v 4.98 h -4.97 c -0.98,0 -1.8,0.8 -1.8,1.8 v 2.6 c 0,0.99 0.82,1.81 1.8,1.81 h 4.97 v 4.97 c 0,1 0.83,1.81 1.82,1.81 h 2.6 c 1,0 1.8,-0.81 1.8,-1.81 v -4.97 h 4.98 c 0.99,0 1.81,-0.82 1.81,-1.81 v -2.6 c 0,-1 -0.82,-1.8 -1.81,-1.8 h -4.98 v -4.98 c 0,-1 -0.8,-1.81 -1.8,-1.81"
             style="fill:url(#radialGradient1951);fill-opacity:1;fill-rule:nonzero;stroke:none"
             id="path1953" />
        </g>
      </g>
      <path
         d="m 2650.03,3906.6 v -95.77 c 0,-37.45 -25.66,-68.97 -60.37,-77.83 -2.74,-0.75 -5.57,-1.3 -8.41,-1.7 -3.78,-0.56 -7.67,-0.85 -11.61,-0.85 -4.54,0 -8.96,0.34 -13.3,1.13 -16.88,2.75 -32.07,10.82 -43.63,22.37 -14.53,14.55 -23.51,34.67 -23.51,56.88 v 95.82 h 158.97 l 1.86,-0.05"
         style="fill:#dee8e5;fill-opacity:1;fill-rule:nonzero;stroke:none"
         id="path1955" />
      <path
         d="m 2568.81,3837.02 c 10.19,0 18.48,-8.26 18.48,-18.47 0,-10.2 -8.29,-18.48 -18.48,-18.48 -10.21,0 -18.48,8.28 -18.48,18.48 0,10.21 8.27,18.47 18.48,18.47"
         style="fill:#8799ac;fill-opacity:1;fill-rule:nonzero;stroke:none"
         id="path1957" />
      <g
         id="g1959">
        <g
           id="g1961"
           clip-path="url(#clipPath1965)">
          <path
             d="m 2570.5,3805.66 h -3.41 c -1.28,0 -2.34,1.05 -2.34,2.34 v 6.49 h -6.49 c -1.3,0 -2.36,1.07 -2.36,2.37 v 3.39 c 0,1.31 1.06,2.37 2.36,2.37 h 6.49 v 2.45 l 8.12,0.17 v -2.62 h 6.48 c 1.3,0 2.35,-1.06 2.35,-2.37 v -3.39 c 0,-1.3 -1.05,-2.37 -2.35,-2.37 h -6.48 V 3808 c 0,-1.29 -1.06,-2.34 -2.37,-2.34"
             style="fill:url(#radialGradient1971);fill-opacity:1;fill-rule:nonzero;stroke:none"
             id="path1973" />
        </g>
      </g>
      <path
         d="m 2524.55,4007.41 c 6.5,0 11.76,-5.28 11.76,-11.77 v -103.42 c 0,-6.5 -5.26,-11.77 -11.76,-11.77 -6.52,0 -11.78,5.27 -11.78,11.77 v 103.42 c 0,6.49 5.26,11.77 11.78,11.77"
         style="fill:#6d516e;fill-opacity:1;fill-rule:nonzero;stroke:none"
         id="path1975" />
      <path
         d="m 2613.07,4007.41 c 6.51,0 11.77,-5.28 11.77,-11.77 v -103.42 c 0,-6.5 -5.26,-11.77 -11.77,-11.77 -6.49,0 -11.77,5.27 -11.77,11.77 v 103.42 c 0,6.49 5.28,11.77 11.77,11.77"
         style="fill:#6d516e;fill-opacity:1;fill-rule:nonzero;stroke:none"
         id="path1977" />
      <path
         d="m 2489.2,3906.66 h 159.01 l 1.82,-0.06 c 13.64,-0.98 24.36,-12.35 24.36,-26.19 0,-7.22 -2.92,-13.77 -7.66,-18.52 -4.35,-4.35 -10.21,-7.15 -16.7,-7.61 l -1.82,-0.06 H 2489.2 c -14.43,0.13 -25.97,11.83 -25.97,26.19 0,7.22 2.91,13.84 7.65,18.58 4.67,4.68 11.18,7.61 18.32,7.67"
         style="fill:#fcfcfd;fill-opacity:1;fill-rule:nonzero;stroke:none"
         id="path1979" />
      <path
         d="m 2489.2,3823.49 v 30.67 h 159.01 l 1.82,0.06 v -27.36 l -64.1,-1.34 c -2.75,6.75 -9.39,11.5 -17.12,11.5 -8.02,0 -14.84,-5.09 -17.4,-12.23 l -62.21,-1.3"
         style="fill:#cad8d8;fill-opacity:1;fill-rule:nonzero;stroke:none"
         id="path1981" />
      <path
         d="m 2551.41,3824.79 c 2.56,7.14 9.38,12.23 17.4,12.23 7.73,0 14.37,-4.75 17.12,-11.5 l -13.06,-0.28 v 3.86 c 0,1.29 -1.06,2.35 -2.37,2.35 h -3.41 c -1.28,0 -2.34,-1.06 -2.34,-2.35 v -4.03 l -13.34,-0.28"
         style="fill:#798ea3;fill-opacity:1;fill-rule:nonzero;stroke:none"
         id="path1983" />
      <g
         id="g1985">
        <g
           id="g1987"
           clip-path="url(#clipPath1991)">
          <path
             d="m 2564.75,3825.07 v 4.03 c 0,1.29 1.06,2.35 2.34,2.35 h 3.41 c 1.31,0 2.37,-1.06 2.37,-2.35 v -3.86 l -8.12,-0.17"
             style="fill:url(#radialGradient1997);fill-opacity:1;fill-rule:nonzero;stroke:none"
             id="path1999" />
        </g>
      </g>
      <path
         d="m 2660.34,3713.16 v 144.04 c 2.36,1.23 4.52,2.82 6.39,4.69 4.74,4.75 7.66,11.3 7.66,18.52 0,10.09 -5.69,18.86 -14.05,23.25 v 61.29 l 0.01,-0.01 54.13,-54.14 c -7.41,-12.53 -12.27,-26.71 -13.88,-41.86 -0.4,-3.69 -0.59,-7.47 -0.59,-11.25 0,-3.79 0.19,-7.57 0.59,-11.26 1.69,-15.94 6.97,-30.77 15.04,-43.78 4.29,-6.94 9.37,-13.34 15.11,-19.07 l -70.41,-70.42"
         style="fill:#d7cdc4;fill-opacity:1;fill-rule:nonzero;stroke:none"
         id="path2001" />
      <path
         d="m 2922.15,3703.13 h -271.77 v 0.05 h 271.73 l 0.04,-0.05 m -10,10.01 h -251.81 v 0.02 l 70.41,70.42 c 11.12,-11.11 24.71,-19.72 39.91,-24.91 -0.02,0.01 -0.03,0.03 -0.05,0.04 10.73,-3.71 22.25,-5.72 34.25,-5.72 19.33,0 37.45,5.23 53,14.44 l 54.29,-54.29"
         style="fill:#c3bbb8;fill-opacity:1;fill-rule:nonzero;stroke:none"
         id="path2003" />
      <path
         d="m 2650.38,3703.2 v 151.1 c 3.56,0.3 6.93,1.31 9.96,2.9 v -144.04 l -9.96,-9.96 m 9.96,200.46 c -0.67,0.35 -1.34,0.68 -2.04,0.97 -1.39,0.59 -2.83,1.06 -4.33,1.39 -1.17,0.27 -2.37,0.45 -3.59,0.55 v 68.34 l 9.96,-9.96 v -61.29"
         style="fill:#7f8185;fill-opacity:1;fill-rule:nonzero;stroke:none"
         id="path2005" />
      <path
         d="m 2922.11,3703.18 h -271.73 v 0.02 l 9.96,9.96 v -0.02 h 251.81 l 9.95,-9.95 0.01,-0.01"
         style="fill:#72777e;fill-opacity:1;fill-rule:nonzero;stroke:none"
         id="path2007" />
      <path
         d="m 2982.82,3642.47 h -393.16 l 0.01,90.5 c 9.51,2.44 18.33,6.58 26.13,12.06 6.45,4.53 12.2,9.98 17.06,16.16 10.76,13.67 17.17,30.9 17.17,49.62 v 43.47 c 0.12,0.01 0.23,0.01 0.35,0.02 v -151.1 -0.02 -0.05 h 271.77 l 60.67,-60.66 m -332.44,264.1 c -0.12,0.02 -0.23,0.02 -0.35,0.03 v 0 l -1.03,0.04 -0.83,0.04 h -23.33 v 88.96 c 0,2.61 -0.86,5.04 -2.3,6.99 -0.13,0.18 -0.27,0.35 -0.41,0.52 l 28.25,-28.24 v -68.34"
         style="fill:#bbbab0;fill-opacity:1;fill-rule:nonzero;stroke:none"
         id="path2009" />
      <path
         d="m 2730.75,3783.58 c -5.74,5.73 -10.82,12.13 -15.11,19.07 -8.07,13.01 -13.35,27.84 -15.04,43.78 -0.4,3.69 -0.59,7.47 -0.59,11.26 0,3.78 0.19,7.56 0.59,11.25 1.61,15.15 6.47,29.33 13.88,41.86 l 0.1,-0.1 c -7.38,-12.51 -12.2,-26.65 -13.81,-41.77 v 0 0 h 0.01 c -0.4,-3.68 -0.61,-7.47 -0.61,-11.25 v 0 0 c 0,-3.79 0.21,-7.57 0.61,-11.26 h -0.01 v 0 c 1.7,-15.93 6.96,-30.77 15.03,-43.77 v 0.02 c 0,-0.01 0.01,-0.02 0.01,-0.03 4.27,-6.91 9.32,-13.27 15.02,-18.98 l -0.08,-0.08"
         style="fill:#a8a8a9;fill-opacity:1;fill-rule:nonzero;stroke:none"
         id="path2011" />
      <path
         d="m 2770.66,3758.67 c -15.2,5.19 -28.79,13.8 -39.91,24.91 l 0.08,0.08 c 11.08,-11.1 24.64,-19.71 39.78,-24.95 0.02,-0.01 0.03,-0.03 0.05,-0.04"
         style="fill:#969aa0;fill-opacity:1;fill-rule:nonzero;stroke:none"
         id="path2013" />
      <path
         d="m 2700.78,3868.93 v 0 h -0.01 c 1.61,15.12 6.43,29.26 13.81,41.77 l 0.03,-0.04 c -7.42,-12.5 -12.24,-26.65 -13.83,-41.73"
         style="fill:#a1a1a2;fill-opacity:1;fill-rule:nonzero;stroke:none"
         id="path2015" />
      <path
         d="m 2715.8,3802.65 c -8.07,13 -13.33,27.84 -15.03,43.77 h 0.01 v 0 c 1.69,-15.93 6.97,-30.76 15.02,-43.75 v -0.02"
         style="fill:#a1a1a2;fill-opacity:1;fill-rule:nonzero;stroke:none"
         id="path2017" />
      <path
         d="m 2615.8,3745.03 c 6.45,4.53 12.2,9.98 17.06,16.16 -4.86,-6.18 -10.61,-11.63 -17.06,-16.16"
         style="fill:#bbbab0;fill-opacity:1;fill-rule:nonzero;stroke:none"
         id="path2019" />
      <path
         d="m 2624.84,3906.68 h -0.02 v 88.94 c 0,2.61 -0.84,5.04 -2.28,7.01 1.44,-1.95 2.3,-4.38 2.3,-6.99 v -88.96"
         style="fill:#5c4254;fill-opacity:1;fill-rule:nonzero;stroke:none"
         id="path2021" />
      <path
         d="m 2650.03,3854.28 v 0.01 l 0.35,0.05 c 3.58,0.24 6.92,1.3 9.97,2.89 2.32,1.2 4.52,2.77 6.35,4.68 4.78,4.73 7.68,11.29 7.68,18.53 0,10.06 -5.67,18.81 -14.03,23.2 -0.67,0.36 -1.35,0.69 -2.05,0.99 0.7,-0.29 1.37,-0.62 2.04,-0.97 8.36,-4.39 14.05,-13.16 14.05,-23.25 0,-7.22 -2.92,-13.77 -7.66,-18.52 -1.87,-1.87 -4.03,-3.46 -6.39,-4.69 -3.03,-1.59 -6.4,-2.6 -9.96,-2.9 -0.12,-0.01 -0.23,-0.01 -0.35,-0.02 m 3.94,51.74 c -1.17,0.25 -2.37,0.43 -3.59,0.52 l -0.35,0.03 -0.96,0.06 -0.07,0.01 1.03,-0.04 c 0.12,-0.01 0.23,-0.01 0.35,-0.03 1.22,-0.1 2.42,-0.28 3.59,-0.55"
         style="fill:#d7cdc4;fill-opacity:1;fill-rule:nonzero;stroke:none"
         id="path2023" />
      <path
         d="m 2601.27,3906.68 h -11.6 v 40.29 l -0.01,0.01 v 0.13 l 11.61,-11.6 v -28.83"
         style="fill:#bbbab0;fill-opacity:1;fill-rule:nonzero;stroke:none"
         id="path2025" />
      <path
         d="m 2791.88,3346.07 -0.02,0.02 c 169.83,4.86 317.87,96.65 401.21,232.45 -83.3,-135.8 -231.35,-227.59 -401.19,-232.47"
         style="fill:#ddc598;fill-opacity:1;fill-rule:nonzero;stroke:none"
         id="path2027" />
      <path
         d="M 2791.86,3396.1686 2601.27,3536.67 c 19.09,-16.57 43.02,-27.74 69.38,-31 0.07,-0.01 0.15,-0.02 0.23,-0.03 0.03,-0.01 0.07,-0.01 0.1,-0.01 5.2,-0.63 10.49,-0.96 15.85,-0.96 71.96,0 130.5,58.52 130.5,130.5 v 7.3 h 202.75 v 430.4 l 211.3468,-248.5291 c -0.8,-91.47 -73.3593,-138.2269 -118.0093,-211.0269 -83.34,-135.8 -198.3407,-140.587 -316.1136,-227.114"
         style="fill:#1e9cf1;fill-opacity:1;fill-rule:nonzero;stroke:none"
         id="path2029"
         sodipodi:nodetypes="cccccsscccccc" />
      <path
         d="m 2686.83,3504.67 c -5.36,0 -10.65,0.33 -15.85,0.96 5.18,-0.63 10.45,-0.96 15.8,-0.96 71.99,0 130.49,58.5 130.49,130.5 v 7.3 h 0.06 v -7.3 c 0,-71.98 -58.54,-130.5 -130.5,-130.5 m -15.95,0.97 c -0.08,0.01 -0.16,0.02 -0.23,0.03 0.07,-0.01 0.15,-0.02 0.23,-0.03"
         style="fill:#d9491f;fill-opacity:1;fill-rule:nonzero;stroke:none"
         id="path2031" />
      <path
         d="m 2686.81,3529.57 c -40.02,0.01 -74.91,22.39 -92.81,55.31 -8.11,14.96 -12.73,32.08 -12.73,50.29 v 96.1 c 2.81,0.4 5.6,0.9 8.39,1.69 v -90.48 -0.01 0.01 -0.01 h 0.01 202.7 v -7.3 c 0,-31.31 -13.63,-59.44 -35.29,-78.78 -9.29,-8.29 -20.04,-14.97 -31.83,-19.59 -0.01,0 -0.03,-0.01 -0.05,-0.01 -0.03,-0.02 -0.06,-0.03 -0.09,-0.04 -11.88,-4.63 -24.79,-7.18 -38.3,-7.18"
         style="fill:#1e9cf1;fill-opacity:1;fill-rule:nonzero;stroke:none"
         id="path2033" />
      <path
         d="m 2686.78,3529.57 c -40.03,0 -74.9,22.38 -92.78,55.31 17.9,-32.92 52.79,-55.3 92.81,-55.31 -0.01,0 -0.02,0 -0.03,0 m 38.33,7.18 c 0.03,0.01 0.06,0.02 0.09,0.04 -0.03,-0.02 -0.06,-0.03 -0.09,-0.04 m 0.14,0.05 c 11.79,4.62 22.54,11.3 31.83,19.59 -9.28,-8.29 -20.04,-14.97 -31.83,-19.59"
         style="fill:#d9491f;fill-opacity:1;fill-rule:nonzero;stroke:none"
         id="path2035" />
      <path
         d="m 2589.66,3642.47 v 0 90.49 c 0.01,0.01 0.01,0.01 0.01,0.01 v 0 c 0,-0.01 0,-0.01 -0.01,-0.01 v -90.49"
         style="fill:#bcb288;fill-opacity:1;fill-rule:nonzero;stroke:none"
         id="path2037" />
      <path
         d="m 2589.66,3642.47 v 0 90.49 c 0.01,0 0.01,0 0.01,0.01 v -90.5"
         style="fill:#a08f6b;fill-opacity:1;fill-rule:nonzero;stroke:none"
         id="path2039" />
      <path
         d="m 2589.66,3906.67 h -53.35 v 88.97 c 0,2.46 -0.76,4.75 -2.05,6.65 l 55.4,-55.31 v -40.31"
         style="fill:#1e9cf1;fill-opacity:1;fill-rule:nonzero;stroke:none"
         id="path2041" />
      <path
         d="m 2589.67,3906.67 h -0.01 v 40.31 -40.3 h 0.01 v -0.01"
         style="fill:#bcb288;fill-opacity:1;fill-rule:nonzero;stroke:none"
         id="path2043" />
      <path
         d="m 2536.31,3906.67 h -0.04 v 88.9 c 0,2.7 -0.89,5.2 -2.5,7.2 l 0.49,-0.48 c 1.29,-1.9 2.05,-4.19 2.05,-6.65 v -88.97"
         style="fill:#5e3e41;fill-opacity:1;fill-rule:nonzero;stroke:none"
         id="path2045" />
      <path
         d="m 2589.67,3906.68 h -0.01 v 40.3 l 0.01,-0.01 v -40.29"
         style="fill:#a08f6b;fill-opacity:1;fill-rule:nonzero;stroke:none"
         id="path2047" />
    </g>
  </g>
</svg>
