<?xml version="1.0" encoding="UTF-8" standalone="no"?>
<!-- Created with Inkscape (http://www.inkscape.org/) -->

<svg
   version="1.1"
   id="svg1329"
   width="132.884"
   height="132.88399"
   viewBox="0 0 132.884 132.88399"
   sodipodi:docname="IconsEdited"
   inkscape:version="1.2.2 (732a01da63, 2022-12-09, custom)"
   xmlns:inkscape="http://www.inkscape.org/namespaces/inkscape"
   xmlns:sodipodi="http://sodipodi.sourceforge.net/DTD/sodipodi-0.dtd"
   xmlns="http://www.w3.org/2000/svg"
   xmlns:svg="http://www.w3.org/2000/svg">
  <defs
     id="defs1333">
    <linearGradient
       id="linearGradient12516"
       inkscape:swatch="solid">
      <stop
         style="stop-color:#000000;stop-opacity:1;"
         offset="0"
         id="stop12514" />
    </linearGradient>
    <linearGradient
       id="linearGradient10464"
       inkscape:swatch="solid">
      <stop
         style="stop-color:#000000;stop-opacity:1;"
         offset="0"
         id="stop10462" />
    </linearGradient>
  </defs>
  <sodipodi:namedview
     id="namedview1331"
     pagecolor="#ffffff"
     bordercolor="#999999"
     borderopacity="1"
     inkscape:showpageshadow="0"
     inkscape:pageopacity="0"
     inkscape:pagecheckerboard="0"
     inkscape:deskcolor="#d1d1d1"
     showgrid="false"
     inkscape:lockguides="true"
     inkscape:zoom="0.64785944"
     inkscape:cx="236.16234"
     inkscape:cy="329.54679"
     inkscape:window-width="1366"
     inkscape:window-height="704"
     inkscape:window-x="0"
     inkscape:window-y="0"
     inkscape:window-maximized="1"
     inkscape:current-layer="g1339" />
  <g
     id="g1337"
     inkscape:groupmode="layer"
     inkscape:label="Page 1"
     transform="matrix(1.3333333,0,0,-1.3333333,-163.20532,436.79598)">
    <g
       id="g1339"
       transform="scale(0.1)">
      <path
         d="m 2209.42,2777.66 c 0,-269 -218.07,-487.07 -487.07,-487.07 -268.99,0 -487.06,218.07 -487.06,487.07 0,268.99 218.07,487.06 487.06,487.06 269,0 487.07,-218.07 487.07,-487.06"
         style="fill:#1e9cf1;fill-opacity:1;fill-rule:nonzero;stroke:#000000;stroke-width:22.5;stroke-dasharray:none;stroke-opacity:1"
         id="path1403"
         inkscape:export-filename="../5d6150ab/tools@64x64_border.png"
         inkscape:export-xdpi="46.235813"
         inkscape:export-ydpi="46.235813" />
      <path
         d="m 1671,2486.6 c -4.21,0 -8.49,0.94 -12.52,2.88 -14.32,6.93 -20.33,24.14 -13.39,38.47 42.83,88.59 50.61,181.39 23.13,275.82 -20.85,71.59 -55.25,117.45 -55.59,117.9 -9.59,12.66 -7.16,30.71 5.47,40.34 12.62,9.62 30.65,7.24 40.29,-5.36 1.64,-2.15 40.35,-53.25 64.44,-134.42 22.3,-75.15 35.89,-191.55 -25.88,-319.35 -4.98,-10.28 -15.25,-16.28 -25.95,-16.28"
         style="fill:#a0c4c6;fill-opacity:1;fill-rule:nonzero;stroke:none"
         id="path1405" />
      <path
         d="m 1627.93,2910.76 c 2.42,-0.65 4.99,-1 7.6,-1 h -7.6 c -15.93,0 -30.53,5.88 -41.62,15.58 -12.56,10.96 -20.73,26.78 -21.67,44.51 -0.04,1.09 -0.07,2.15 -0.07,3.27 0,77.88 63.36,103.25 63.36,103.25 v -100.22 c 0,-2.11 0.85,-4.03 2.23,-5.41 1.38,-1.39 3.29,-2.23 5.37,-2.23 -2.61,0 -5.18,-0.35 -7.6,-0.96 -12.68,-3.34 -22.05,-14.82 -22.05,-28.42 0,-13.62 9.37,-25.07 22.05,-28.37"
         style="fill:#a0c4c6;fill-opacity:1;fill-rule:nonzero;stroke:none"
         id="path1407" />
      <path
         d="m 1706.52,2973.12 c 0,-1.12 -0.03,-2.18 -0.07,-3.27 -0.92,-17.73 -9.09,-33.55 -21.65,-44.51 -11.09,-9.69 -25.69,-15.58 -41.62,-15.58 h -7.65 c 2.65,0 5.23,0.35 7.65,1 12.66,3.3 21.99,14.75 21.99,28.37 0,13.61 -9.33,25.04 -21.99,28.38 -2.42,0.65 -5,1 -7.65,1 4.23,0 7.65,3.41 7.65,7.64 v 100.22 c 0,0 63.34,-25.37 63.34,-103.25"
         style="fill:#d3e4e1;fill-opacity:1;fill-rule:nonzero;stroke:none"
         id="path1409" />
      <path
         d="m 1665.17,2939.13 c 0,-13.62 -9.34,-25.07 -21.99,-28.37 -2.42,-0.65 -5,-1 -7.65,-1 -2.61,0 -5.18,0.35 -7.6,1 -12.68,3.3 -22.05,14.75 -22.05,28.37 0,13.6 9.37,25.08 22.05,28.42 2.42,0.61 4.99,0.96 7.6,0.96 2.65,0 5.23,-0.35 7.65,-1 12.65,-3.34 21.99,-14.78 21.99,-28.38"
         style="fill:#d3e4e1;fill-opacity:1;fill-rule:nonzero;stroke:none"
         id="path1411" />
      <path
         d="m 1600.07,2486.6 c -10.7,0 -20.97,5.99 -25.94,16.28 -61.8,127.8 -48.2,244.2 -25.9,319.35 24.09,81.17 62.8,132.27 64.44,134.42 9.67,12.62 27.75,15.02 40.37,5.35 12.62,-9.67 15.03,-27.71 5.38,-40.33 -0.61,-0.82 -34.82,-46.59 -55.57,-117.9 -27.49,-94.43 -19.71,-187.23 23.14,-275.82 6.91,-14.33 0.92,-31.54 -13.39,-38.47 -4.04,-1.94 -8.31,-2.88 -12.53,-2.88"
         style="fill:#d3e4e1;fill-opacity:1;fill-rule:nonzero;stroke:none"
         id="path1413" />
      <path
         d="m 1560.96,2879.73 c -2.57,-6.02 -5.18,-12.37 -7.72,-18.93 -7.18,2.73 -15.09,16.5 -11.14,27.03 l 18.86,-8.1"
         style="fill:#f25d19;fill-opacity:1;fill-rule:nonzero;stroke:none"
         id="path1415" />
      <path
         d="m 1615.93,2482.58 c -5,-2.42 -10.35,-3.64 -15.84,-3.64 -13.93,0 -26.83,8.05 -32.88,20.58 -62.85,130.04 -49.02,248.43 -26.34,324.88 3.85,12.91 8.03,25.03 12.37,36.4 2.54,6.56 5.15,12.91 7.72,18.93 l 7.07,-3.02 52.99,-22.66 7.06,-3.03 c -6.33,-14.56 -12.55,-31.11 -17.85,-49.39 -26.95,-92.54 -19.32,-183.5 22.66,-270.35 8.74,-18.1 1.14,-39.94 -16.96,-48.7"
         style="fill:#f25d19;fill-opacity:1;fill-rule:nonzero;stroke:none"
         id="path1417" />
      <path
         d="m 1711.09,2879.73 c 2.57,-6.02 5.18,-12.37 7.71,-18.93 7.2,2.73 15.1,16.5 11.15,27.03 l -18.86,-8.1"
         style="fill:#f25d19;fill-opacity:1;fill-rule:nonzero;stroke:none"
         id="path1419" />
      <path
         d="m 1656.11,2482.58 c 5.03,-2.42 10.36,-3.64 15.84,-3.64 13.94,0 26.85,8.05 32.88,20.58 62.85,130.04 49.04,248.43 26.34,324.88 -3.85,12.91 -8.02,25.03 -12.37,36.4 -2.53,6.56 -5.14,12.91 -7.71,18.93 l -7.06,-3.02 -52.99,-22.66 -7.08,-3.03 c 6.34,-14.56 12.58,-31.11 17.86,-49.39 26.96,-92.54 19.32,-183.5 -22.65,-270.35 -8.75,-18.1 -1.15,-39.94 16.94,-48.7"
         style="fill:#f25d19;fill-opacity:1;fill-rule:nonzero;stroke:none"
         id="path1421" />
      <path
         d="m 1619.29,2484.42 v 0.01 c 0.12,0.07 0.23,0.14 0.35,0.21 l -0.02,-0.01 c -0.11,-0.07 -0.22,-0.14 -0.33,-0.21 m 2.55,1.74 c 0.66,0.49 1.3,1 1.92,1.53 0,0 0,0 -0.01,0 -0.61,-0.53 -1.24,-1.03 -1.89,-1.51 0,-0.01 -0.01,-0.01 -0.02,-0.02 m 4.01,3.47 c 0.54,0.54 1.06,1.1 1.56,1.67 v 0 c -0.5,-0.57 -1.02,-1.13 -1.56,-1.67 v 0 m 2.82,3.18 c 0.77,0.98 1.49,2 2.15,3.05 v -0.01 c -0.66,-1.05 -1.38,-2.06 -2.14,-3.03 0,0 -0.01,0 -0.01,-0.01 m 3.04,4.52 c 0.47,0.82 0.9,1.66 1.3,2.5 0,0 -0.01,-0.01 -0.01,-0.02 -0.4,-0.83 -0.82,-1.65 -1.28,-2.46 0,-0.01 -0.01,-0.01 -0.01,-0.02"
         style="fill:#3d8cac;fill-opacity:1;fill-rule:nonzero;stroke:none"
         id="path1423" />
      <path
         d="m 1619.29,2484.43 -0.02,0.02 v 0.12 c -0.01,-0.01 -0.03,-0.02 -0.05,-0.04 l -0.24,0.43 -0.15,0.23 c -1.07,1.91 -4.8,8.37 -16.9,29.37 l -0.12,0.25 c -49.4,96.48 -50.26,204.92 -24.8,296.46 4,14.37 12.79,38.05 19.74,53.14 l 24.26,-10.36 7.05,-3.07 c -2.19,-5.05 -4.37,-10.34 -6.51,-15.85 -4.03,-10.39 -7.92,-21.61 -11.38,-33.56 -26.89,-92.5 -19.3,-183.5 22.71,-270.3 1.59,-3.3 2.59,-6.7 3.09,-10.1 0.02,0.1 0.03,0.2 0.05,0.3 0,-0.02 0,-0.05 0.01,-0.07 -0.67,-3.98 -0.65,-8 0,-11.9 -0.01,-0.01 -0.01,-0.03 -0.01,-0.04 -0.02,0.1 -0.03,0.21 -0.05,0.31 -0.19,-1.4 -0.5,-2.9 -0.9,-4.3 -0.4,-1.6 -0.99,-3.2 -1.7,-4.7 -0.11,-0.31 -0.23,-0.62 -0.36,-0.94 -0.4,-0.84 -0.83,-1.68 -1.3,-2.5 -0.14,-0.22 -0.28,-0.44 -0.44,-0.66 l -0.45,-0.81 c -0.66,-1.05 -1.38,-2.07 -2.15,-3.05 -0.19,-0.21 -0.39,-0.43 -0.6,-0.64 -0.2,-0.29 -0.42,-0.58 -0.66,-0.87 -0.5,-0.57 -1.02,-1.13 -1.56,-1.67 -0.36,-0.34 -0.72,-0.66 -1.08,-0.96 l -0.3,-0.3 c -0.23,-0.23 -0.47,-0.46 -0.71,-0.68 -0.62,-0.53 -1.26,-1.04 -1.92,-1.53 -0.44,-0.31 -0.89,-0.6 -1.37,-0.89 l -0.83,-0.63 c -0.12,-0.07 -0.23,-0.14 -0.35,-0.21"
         style="fill:#d84e1f;fill-opacity:1;fill-rule:nonzero;stroke:none"
         id="path1425" />
      <path
         d="m 1636.03,2509.5 c -0.65,3.9 -0.67,7.92 0,11.9 0.13,-0.81 0.24,-1.61 0.32,-2.42 -0.23,-2.36 -0.23,-4.72 -0.01,-7.05 -0.08,-0.81 -0.18,-1.62 -0.31,-2.43"
         style="fill:#d84e1f;fill-opacity:1;fill-rule:nonzero;stroke:none"
         id="path1427" />
      <path
         d="m 1653.4,2484.42 c -9.9,6.14 -15.98,16.46 -17.06,27.51 0.23,2.33 0.24,4.69 0.01,7.05 0.4,4.16 1.53,8.32 3.45,12.3 41.97,86.85 49.61,177.81 22.67,270.35 -5.31,18.28 -11.54,34.83 -17.86,49.39 l 7.05,3.03 24.28,10.36 c 6.95,-15.09 15.74,-38.77 19.73,-53.14 25.45,-91.54 24.61,-199.98 -24.81,-296.46 l -0.1,-0.25 c -12.11,-21 -15.83,-27.46 -16.9,-29.37 l -0.15,-0.23 -0.28,-0.5 -0.03,-0.04"
         style="fill:#d84e1f;fill-opacity:1;fill-rule:nonzero;stroke:none"
         id="path1429" />
      <path
         d="m 1636.34,2511.93 c -0.22,2.33 -0.22,4.69 0.01,7.05 0.23,-2.36 0.22,-4.72 -0.01,-7.05"
         style="fill:#bb4120;fill-opacity:1;fill-rule:nonzero;stroke:none"
         id="path1431" />
      <path
         d="m 1649.48,2939.13 c 0,-6.41 -4.39,-11.8 -10.35,-13.35 -1.15,-0.3 -2.36,-0.47 -3.6,-0.47 -1.23,0 -2.44,0.17 -3.58,0.47 -5.96,1.55 -10.38,6.94 -10.38,13.35 0,6.4 4.42,11.82 10.38,13.38 1.14,0.28 2.35,0.45 3.58,0.45 1.24,0 2.45,-0.17 3.6,-0.46 5.96,-1.58 10.35,-6.97 10.35,-13.37"
         style="fill:#a0c4c6;fill-opacity:1;fill-rule:nonzero;stroke:none"
         id="path1433" />
      <path
         d="m 1627.94,3076.37 v -94.14 c -7.2,2.68 -12.34,9.63 -12.34,17.77 v 69.66 c 7.29,4.68 12.34,6.71 12.34,6.71"
         style="fill:#f5f5f5;fill-opacity:1;fill-rule:nonzero;stroke:none"
         id="path1435" />
      <path
         d="m 1643.19,3076.37 v -94.14 c 7.23,2.68 12.36,9.63 12.36,17.77 v 69.66 c -7.29,4.68 -12.36,6.71 -12.36,6.71"
         style="fill:#f5f5f5;fill-opacity:1;fill-rule:nonzero;stroke:none"
         id="path1437" />
      <path
         d="m 1875.41,2519.87 c -8.15,0 -14.74,6.61 -14.74,14.75 0,8.11 6.59,14.71 14.74,14.71 8.11,0 14.7,-6.6 14.7,-14.71 0,-8.14 -6.59,-14.75 -14.7,-14.75 m 44.35,34.91 -7.57,173.37 -0.58,12.37 -72.25,-0.04 -0.55,-12.44 v -0.08 l -7.44,-173.25 -0.89,-20.74 c 0,-24.96 20.19,-45.16 45.12,-45.12 12.43,-0.04 23.73,5.07 31.84,13.21 1.04,1.08 1.99,2.11 2.86,3.23 2.84,3.34 5.11,7.02 6.8,11.17 2.35,5.41 3.54,11.33 3.54,17.51 l -0.88,20.81"
         style="fill:#f8ca0c;fill-opacity:1;fill-rule:nonzero;stroke:none"
         id="path1439" />
      <path
         d="m 1920.59,2746.33 c 0,-4.44 -3.63,-8.07 -8.08,-8.07 l -74.05,-0.03 c -4.44,0.01 -8.05,3.63 -8.08,8.1 l 0.02,3.94 c -0.02,4.47 3.61,8.05 8.04,8.07 l 74.04,0.01 c 4.5,0 8.11,-3.58 8.11,-8.07 v -3.95"
         style="fill:#f8ca0c;fill-opacity:1;fill-rule:nonzero;stroke:none"
         id="path1441" />
      <path
         d="m 1898.27,3034.5 -7.73,-20.35 0.08,-255.78 -30.27,-0.03 -0.09,255.78 -7.74,20.36 8.76,41.39 28.2,0.01 8.79,-41.38"
         style="fill:#a0c4c6;fill-opacity:1;fill-rule:nonzero;stroke:none"
         id="path1443" />
      <path
         d="m 1886.81,3075.9 3.66,-32.97 c 0.02,-6.32 -8.74,-11.35 -15.11,-11.34 -6.33,-0.03 -14.42,5.27 -14.4,11.59 l 3,32.69 22.85,0.03"
         style="fill:#f5f5f5;fill-opacity:1;fill-rule:nonzero;stroke:none"
         id="path1445" />
      <path
         d="m 1919.89,2573.63 h -88.64 l 5.01,117.05 h 78.49 l 5.14,-117.05"
         style="fill:#f25d19;fill-opacity:1;fill-rule:nonzero;stroke:none"
         id="path1447" />
      <path
         d="m 1770.97,2292.97 -0.01,0.02 c 132.62,13.13 249.59,79.47 329.3,177.37 -79.68,-97.9 -196.66,-164.25 -329.29,-177.39 m 329.33,177.44 c 0.06,0.07 0.12,0.15 0.18,0.22 -0.06,-0.08 -0.12,-0.15 -0.18,-0.22"
         style="fill:#c8bfc5;fill-opacity:1;fill-rule:nonzero;stroke:none"
         id="path1449" />
      <path
         d="M 1770.96,2359.2275 1575.29,2488.65 c 2.06,-1.9 4.33,-3.55 6.77,-4.93 5.43,-3.1 11.63,-4.85 18.01,-4.85 3.65,0 7.22,0.57 10.66,1.66 1.77,0.55 3.51,1.23 5.2,2.05 1.16,0.56 2.27,1.17 3.34,1.83 v -0.04 l 0.35,0.26 c 0.77,0.49 1.52,1.01 2.24,1.55 0.67,0.47 1.3,0.97 1.89,1.51 0.73,0.62 1.43,1.27 2.1,1.94 0.55,0.52 1.08,1.08 1.56,1.67 0.44,0.49 0.86,1 1.27,1.52 0.8,0.92 1.45,1.9 2.1,2.95 l 0.04,0.08 c 0.31,0.49 0.61,0.99 0.9,1.5 0.5,0.8 0.93,1.63 1.28,2.46 1.43,3.03 2.44,6.24 3,9.54 0,0.01 0,0.02 0.01,0.03 0,0.03 0,0.05 0.01,0.07 v 0.01 c 1.78,-11.28 8.95,-21.64 20.05,-26.89 5,-2.4 10.4,-3.7 15.9,-3.7 9.84,0 19.19,4.06 25.93,10.87 2.8,2.82 5.16,6.11 6.93,9.78 62.85,130.04 49.04,248.43 26.34,324.88 -3.84,12.9 -8.02,25.02 -12.36,36.39 4.05,1.53 8.31,6.57 10.57,12.55 0,0.01 0,0.01 0.01,0.02 0.01,0.03 0.02,0.06 0.03,0.1 0.01,0.01 0.01,0.03 0.02,0.04 0.01,0.03 0.02,0.05 0.02,0.07 0.01,0.03 0.02,0.05 0.03,0.08 0.01,0.01 0.01,0.03 0.02,0.04 l 0.03,0.09 c 0,0.01 0.01,0.02 0.01,0.03 0.01,0.04 0.03,0.08 0.04,0.11 v 0.01 c 0.21,0.58 0.4,1.18 0.56,1.78 v 0 l 0.03,0.12 c 0,0 0.01,0.01 0.01,0.02 0.01,0.03 0.02,0.06 0.02,0.1 0.01,0.01 0.01,0.02 0.01,0.03 l 0.03,0.09 c 0,0.01 0.01,0.03 0.01,0.05 0.01,0.02 0.01,0.04 0.02,0.06 0,0.03 0.01,0.05 0.01,0.08 0.01,0.01 0.01,0.03 0.02,0.04 0,0.03 0.01,0.06 0.02,0.1 v 0.02 c 0.93,3.78 0.98,7.76 -0.35,11.35 h -0.01 c -0.01,0.02 -0.02,0.04 -0.02,0.06 l -18.86,-8.1 c 0,-0.02 0.01,-0.03 0.02,-0.04 v 0 c -0.01,0.01 -0.02,0.02 -0.02,0.04 l -7.06,-3.02 -0.85,-0.36 c -7.74,17.93 -15.62,33.25 -22.57,45.55 1.38,1.09 2.78,2.18 4.16,3.37 6,5.24 10.99,11.58 14.67,18.69 3.48,6.72 5.8,14.13 6.69,21.98 0.15,1.3 0.27,2.61 0.34,3.93 v 0.44 c 0.03,0.93 0.05,1.85 0.05,2.81 0,35.83 -13.41,60.55 -27.89,76.8 l 181.68,-181.58 0.04,-110 h -21.91 c -3.24,-0.01 -6.04,-1.93 -7.32,-4.7 -0.48,-1.02 -0.74,-2.17 -0.74,-3.37 v -4 c 0,-4.4 3.59,-8.1 8.09,-8.1 h 0.79 l -0.13,-2.86 -0.36,-7.34 -1.6,-37.29 h -0.91 l -5.01,-117.05 h 0.03 l -0.01,-0.06 h 0.9 l -0.34,-8.04 -0.46,-10.82 -0.36,-8.45 -0.54,-12.29 c 0,-25 20.2,-45.2 45.1,-45.2 7.74,0 15.06,1.99 21.43,5.48 3.86,2.09 7.38,4.74 10.44,7.81 1.04,1.08 1.99,2.11 2.86,3.23 2.84,3.34 5.11,7.02 6.8,11.17 2.35,5.41 3.54,11.33 3.54,17.51 l -0.73,17.18 -0.14,3.62 -0.8,18.8 h 0.9 v 0.06 h 0.02 l -5.14,117.05 h -0.92 l -1.64,37.47 -0.47,10.11 h 0.79 c 2.29,0 4.36,0.96 5.83,2.49 0,0.01 0.01,0.01 0.01,0.02 h 0.01 c 0.52,0.55 0.96,1.16 1.31,1.83 0.59,1.12 0.92,2.39 0.92,3.73 v 3.95 c 0,4.49 -3.61,8.07 -8.11,8.07 h -29.12 l 7.19,0.02 h 0.07 l -0.05,154.12 v 101.68 l 7.71,20.3 -0.01,0.03 v 0 l -8.78,41.35 275.8548,-293.7284 c -4.58,-108.14 -58.446,-214.8023 -122.386,-293.4823 -0.06,-0.07 44.0723,100.3311 48.8962,41.3268 -10.7374,66.568 -23.9859,-36.5573 -23.9959,-36.5773 -79.71,-97.9 -138.277,-93.9439 -270.897,-107.0739"
         style="fill:#1e9cf1;fill-opacity:1;fill-rule:nonzero;stroke:none"
         id="path1451"
         sodipodi:nodetypes="cccscccccccccccccccccccscccccccccccccccsccccccccccccccccsscccccccccscccccssscccccccccccccscccccccccccccccsccccssscccccccccccccc" />
      <path
         d="m 1703.14,2876.33 c -7.78,17.98 -15.67,33.25 -22.57,45.54 0.01,0.01 0.02,0.02 0.04,0.03 6.95,-12.3 14.83,-27.62 22.57,-45.55 l -0.04,-0.02"
         style="fill:#79919a;fill-opacity:1;fill-rule:nonzero;stroke:none"
         id="path1453" />
      <path
         d="m 1699.44,2943.96 c 3.47,6.72 5.78,14.13 6.69,21.98 -0.89,-7.85 -3.21,-15.26 -6.69,-21.98 m 7.03,26.35 v 2.76 c 0,36 -13.5,60.8 -28.1,77.1 l 0.26,-0.25 c 14.48,-16.25 27.89,-40.97 27.89,-76.8 0,-0.96 -0.02,-1.88 -0.05,-2.81"
         style="fill:#a2a8ae;fill-opacity:1;fill-rule:nonzero;stroke:none"
         id="path1455" />
      <path
         d="m 1610.73,2480.53 c 1.75,0.55 3.46,1.23 5.14,2.04 1.19,0.59 2.26,1.18 3.35,1.96 l 0.04,-0.07 0.01,-0.01 v -0.04 c -1.07,-0.66 -2.18,-1.27 -3.34,-1.83 -1.69,-0.82 -3.43,-1.5 -5.2,-2.05 m -28.67,3.19 c -2.44,1.38 -4.71,3.03 -6.77,4.93 l -0.12,0.12 c 2.1,-1.94 4.41,-3.64 6.89,-5.05 m 53.94,25.63 c 0,0.01 0,0.02 0.01,0.03 -0.01,-0.01 -0.01,-0.02 -0.01,-0.03 m 0.02,0.1 v 0.01 0 -0.01"
         style="fill:#c24820;fill-opacity:1;fill-rule:nonzero;stroke:none"
         id="path1457" />
      <path
         d="m 1729.38,2873.34 c 0,0.01 0,0.01 0.01,0.02 -0.01,-0.01 -0.01,-0.01 -0.01,-0.02 m 0.04,0.12 c 0.01,0.01 0.01,0.03 0.02,0.04 -0.01,-0.01 -0.01,-0.03 -0.02,-0.04 m 0.04,0.11 c 0.01,0.03 0.02,0.05 0.03,0.08 -0.01,-0.03 -0.02,-0.05 -0.03,-0.08 m 0.05,0.12 c 0.01,0.03 0.02,0.06 0.03,0.09 -0.01,-0.03 -0.02,-0.06 -0.03,-0.09 m 0.04,0.12 c 0.01,0.04 0.03,0.08 0.04,0.11 -0.01,-0.03 -0.03,-0.07 -0.04,-0.11 m 0.04,0.12 c 0.21,0.59 0.4,1.18 0.56,1.78 -0.16,-0.6 -0.35,-1.2 -0.56,-1.78 m 0.56,1.78 c 0.01,0.04 0.02,0.08 0.03,0.12 -0.01,-0.04 -0.02,-0.08 -0.03,-0.12 m 0.04,0.14 c 0.01,0.03 0.02,0.06 0.02,0.1 0,-0.04 -0.01,-0.07 -0.02,-0.1 m 0.03,0.13 c 0.01,0.03 0.02,0.06 0.03,0.09 -0.01,-0.03 -0.02,-0.06 -0.03,-0.09 m 0.04,0.14 c 0.01,0.02 0.01,0.04 0.02,0.06 -0.01,-0.02 -0.01,-0.04 -0.02,-0.06 m 0.03,0.14 c 0.01,0.01 0.01,0.03 0.02,0.04 -0.01,-0.01 -0.01,-0.03 -0.02,-0.04 m 0.04,0.14 c 0,0 0,0.01 0,0.02 0,-0.01 0,-0.02 0,-0.02 m -19.22,3.29 c -0.01,0.01 -0.02,0.02 -0.02,0.04 l 18.86,8.1 c 0,-0.02 0.01,-0.04 0.02,-0.06 l -18.86,-8.08"
         style="fill:#c24820;fill-opacity:1;fill-rule:nonzero;stroke:none"
         id="path1459" />
      <path
         d="m 1697.9,2489.74 c 2.78,2.81 5.12,6.08 6.87,9.73 62.9,130.1 49.1,248.4 26.41,324.9 -3.91,12.9 -8.01,25 -12.41,36.4 0.02,0.01 0.03,0.01 0.04,0.02 4.34,-11.37 8.52,-23.49 12.36,-36.39 22.7,-76.45 36.51,-194.84 -26.34,-324.88 -1.77,-3.67 -4.13,-6.96 -6.93,-9.78 m 5.27,386.53 c -0.01,0.02 -0.02,0.04 -0.03,0.06 l 0.04,0.02 0.85,0.36 7.06,3.02 c 0,-0.02 0.01,-0.03 0.02,-0.04 l -0.04,-0.02 -7.1,-3 -0.8,-0.4"
         style="fill:#c24820;fill-opacity:1;fill-rule:nonzero;stroke:none"
         id="path1461" />
      <path
         d="m 1619.62,2484.63 0.02,0.01 c 0.76,0.49 1.49,0.99 2.2,1.52 0.01,0.01 0.02,0.01 0.02,0.02 -0.72,-0.54 -1.47,-1.06 -2.24,-1.55 m 4.13,3.06 c 0.01,0 0.01,0 0.01,0 0.72,0.62 1.42,1.27 2.09,1.94 v 0 c -0.67,-0.67 -1.37,-1.32 -2.1,-1.94 m 3.66,3.61 v 0 c 0.44,0.5 0.86,1 1.26,1.51 0,0.01 0.01,0.01 0.01,0.01 -0.41,-0.52 -0.83,-1.03 -1.27,-1.52 m 3.41,4.55 v 0.01 c 0.31,0.48 0.61,0.98 0.89,1.47 0,0.01 0.01,0.01 0.01,0.02 -0.29,-0.51 -0.59,-1.01 -0.9,-1.5 m 2.18,3.96 c 0,0.01 0.01,0.02 0.01,0.02 1.42,3.02 2.43,6.23 2.99,9.52 -0.56,-3.3 -1.57,-6.51 -3,-9.54 m 3.01,9.57 c 0,0.03 0,0.05 0.01,0.07 -0.01,-0.02 -0.01,-0.04 -0.01,-0.07"
         style="fill:#2e6886;fill-opacity:1;fill-rule:nonzero;stroke:none"
         id="path1463" />
      <path
         d="m 1619.27,2484.45 -0.01,0.01 -0.04,0.07 c 0.02,0.02 0.04,0.03 0.05,0.04 v -0.1 -0.02 m 0.37,0.19 0.83,0.63 c 0.48,0.29 0.93,0.58 1.37,0.89 -0.71,-0.53 -1.44,-1.03 -2.2,-1.52 m 4.12,3.05 c 0.24,0.22 0.48,0.45 0.71,0.68 l 0.3,0.3 c 0.36,0.3 0.72,0.62 1.08,0.96 -0.67,-0.67 -1.37,-1.32 -2.09,-1.94 m 3.65,3.61 c 0.24,0.29 0.46,0.58 0.66,0.87 0.21,0.21 0.41,0.43 0.6,0.64 -0.4,-0.51 -0.82,-1.01 -1.26,-1.51 m 3.41,4.56 0.45,0.81 c 0.16,0.22 0.3,0.44 0.44,0.66 -0.28,-0.49 -0.58,-0.99 -0.89,-1.47 m 2.19,3.97 c 0.13,0.32 0.25,0.63 0.36,0.94 0.71,1.5 1.3,3.1 1.7,4.7 0.4,1.4 0.71,2.9 0.9,4.3 0.02,-0.1 0.03,-0.21 0.05,-0.31 v -0.01 c -0.01,-0.02 -0.01,-0.04 -0.01,-0.07 -0.01,-0.01 -0.01,-0.02 -0.01,-0.03 -0.56,-3.29 -1.57,-6.5 -2.99,-9.52"
         style="fill:#a63c1f;fill-opacity:1;fill-rule:nonzero;stroke:none"
         id="path1465" />
      <path
         d="m 1897,2494.25 c 3.83,2.1 7.33,4.74 10.37,7.82 1.1,1 2,2.1 2.9,3.2 2.8,3.3 5.11,7 6.81,11.2 2.39,5.4 3.49,11.3 3.49,17.5 l -0.66,17.18 0.73,-17.18 c 0,-6.18 -1.19,-12.1 -3.54,-17.51 -1.69,-4.15 -3.96,-7.83 -6.8,-11.17 -0.87,-1.12 -1.82,-2.15 -2.86,-3.23 -3.06,-3.07 -6.58,-5.72 -10.44,-7.81 m -65.99,52.01 0.36,8.45 0.46,10.82 -0.46,-10.86 -0.36,-8.41 m 82.82,144.42 h -0.06 l -1.6,37.49 -0.49,10.09 h 0.04 l 0.47,-10.11 1.64,-37.47 m -74.7,44.63 0.13,2.86 h 0.01 l -0.14,-2.86"
         style="fill:#bf981b;fill-opacity:1;fill-rule:nonzero;stroke:none"
         id="path1467" />
      <path
         d="m 1911.68,2738.26 -0.01,0.01 h 0.81 c 2.31,0 4.39,0.96 5.86,2.48 -1.47,-1.53 -3.54,-2.49 -5.83,-2.49 h -0.79 -0.04 m 6.67,2.51 h 0.01 -0.01 m 1.32,1.83 c 0.58,1.1 0.9,2.35 0.9,3.67 v 4 c 0,4.5 -3.6,8 -8.09,8 h -52.1 l 22.98,0.08 h 29.12 c 4.5,0 8.11,-3.58 8.11,-8.07 v -3.95 c 0,-1.34 -0.33,-2.61 -0.92,-3.73 m -88.55,11.04 c 1.28,2.77 4.08,4.69 7.32,4.7 h 21.91 v 0 h 0.03 v -0.07 h -22.01 c -3.2,0 -5.97,-1.9 -7.25,-4.63"
         style="fill:#bf981b;fill-opacity:1;fill-rule:nonzero;stroke:none"
         id="path1469" />
      <path
         d="m 1860.35,2758.34 v 0 l -0.04,110 0.07,-0.07 v -109.93 h -0.03 m 30.2,0.03 h 0.02 v 154.12 l 0.05,-154.12 h -0.07 m 7.72,276.13 -8.8,41.37 0.02,-0.02 8.78,-41.35 v 0"
         style="fill:#79919a;fill-opacity:1;fill-rule:nonzero;stroke:none"
         id="path1471" />
      <path
         d="m 1919.89,2573.63 h -0.02 l -5.2,117.04 h -0.9 v 0.01 h 0.06 0.92 l 5.14,-117.05 m -88.61,0 h -0.03 l 5.01,117.05 h 0.91 v -0.01 h -0.9 l -4.99,-117.04"
         style="fill:#c24820;fill-opacity:1;fill-rule:nonzero;stroke:none"
         id="path1473" />
      <path
         d="m 1636.02,2521.48 c -0.56,3.32 -1.59,6.62 -3.13,9.8 -25.58,52.92 -38.41,107.37 -38.43,162.78 -0.01,35.52 5.24,71.42 15.77,107.57 3.46,11.93 7.31,23.12 11.32,33.5 2.15,5.52 4.33,10.81 6.52,15.84 l -0.01,0.01 c 0.01,0.01 0.02,0.02 0.02,0.04 v 0 0 l -7.06,3.03 c 4.53,10.44 9.1,19.85 13.41,28.09 0.37,0.7 0.74,1.39 1.11,2.07 2.33,-4.39 4.74,-9.14 7.2,-14.21 2.08,-4.33 4.2,-8.9 6.33,-13.71 0.36,-0.84 0.73,-1.68 1.1,-2.52 l -3.99,-1.8 -2.22,-0.95 c 0.01,-0.02 0.01,-0.03 0.02,-0.04 l -0.01,-0.01 c 6.3,-14.5 12.5,-31.1 17.8,-49.4 26.08,-89.35 19.79,-177.29 -18.43,-261.41 -1.35,-2.96 -2.74,-5.93 -4.17,-8.88 -0.21,-0.45 -0.42,-0.9 -0.62,-1.35 -1.22,-2.78 -2.09,-5.62 -2.53,-8.45"
         style="fill:#0b8dd9;fill-opacity:1;fill-rule:nonzero;stroke:none"
         id="path1475" />
      <path
         d="m 1650.17,2853.77 c -0.37,0.84 -0.74,1.68 -1.1,2.52 0.37,-0.84 0.73,-1.67 1.1,-2.52 v 0 m -7.43,16.23 c -2.46,5.07 -4.87,9.82 -7.2,14.21 0.01,0.02 0.02,0.04 0.03,0.06 2.31,-4.41 4.71,-9.17 7.17,-14.27"
         style="fill:#79919a;fill-opacity:1;fill-rule:nonzero;stroke:none"
         id="path1477" />
      <path
         d="m 1621.02,2854.05 v 0 h -0.01 l -0.04,0.02 c 4.6,10.39 9.11,19.85 13.46,28.07 -4.31,-8.24 -8.88,-17.65 -13.41,-28.09"
         style="fill:#a2a8ae;fill-opacity:1;fill-rule:nonzero;stroke:none"
         id="path1479" />
      <path
         d="m 1636.02,2521.47 c -0.56,3.32 -1.59,6.62 -3.13,9.81 -25.58,52.92 -38.41,107.37 -38.43,162.78 0.02,-55.41 12.85,-109.86 38.43,-162.78 1.54,-3.18 2.57,-6.48 3.13,-9.8 0,-0.01 0,-0.01 0,-0.01 m -7.94,329.55 -7.06,3.03 h -0.01 v 0 h 0.01 v 0 l 7.06,-3.03 v 0"
         style="fill:#c24820;fill-opacity:1;fill-rule:nonzero;stroke:none"
         id="path1481" />
      <path
         d="m 1638.55,2529.93 c 0.2,0.45 0.41,0.9 0.62,1.35 1.43,2.95 2.82,5.92 4.17,8.88 -1.35,-2.97 -2.74,-5.93 -4.17,-8.89 -0.21,-0.45 -0.42,-0.89 -0.62,-1.34 m 5.43,321.05 c -0.01,0.01 -0.01,0.02 -0.02,0.04 l 2.22,0.95 -2.2,-0.99"
         style="fill:#c24820;fill-opacity:1;fill-rule:nonzero;stroke:none"
         id="path1483" />
      <path
         d="m 1635.97,2521.17 c -0.5,3.4 -1.5,6.8 -3.09,10.1 -42.01,86.8 -49.6,177.8 -22.71,270.3 3.46,11.95 7.35,23.17 11.38,33.56 -4.01,-10.38 -7.86,-21.57 -11.32,-33.5 -10.53,-36.15 -15.78,-72.05 -15.77,-107.57 0.02,-55.41 12.85,-109.86 38.43,-162.78 1.54,-3.19 2.57,-6.49 3.13,-9.81 -0.02,-0.1 -0.03,-0.2 -0.05,-0.3 m -7.91,329.81 -7.05,3.07 h 0.01 l 7.06,-3.03 c 0,-0.02 -0.01,-0.03 -0.02,-0.04"
         style="fill:#a63c1f;fill-opacity:1;fill-rule:nonzero;stroke:none"
         id="path1485" />
    </g>
  </g>
</svg>
