<?xml version="1.0" encoding="UTF-8" standalone="no"?>
<!-- Created with Inkscape (http://www.inkscape.org/) -->

<svg
   width="103.80115mm"
   height="50.755966mm"
   viewBox="0 0 103.80115 50.755966"
   version="1.1"
   id="svg1358"
   xmlns="http://www.w3.org/2000/svg"
   xmlns:svg="http://www.w3.org/2000/svg">
  <defs
     id="defs1355" />
  <g
     id="layer1"
     transform="translate(-32.354562,-31.177196)">
    <path
       style="fill:#6a3985;fill-opacity:1;stroke-width:0.264583"
       d="M 76.46492,81.678568 C 64.90055,80.597573 53.05568,75.471872 43.86683,67.572194 c -2.5361,-2.180286 -6.42795,-6.180741 -6.42795,-6.607321 0,-0.08738 1.87746,-0.158866 4.17214,-0.158866 h 4.17214 l 1.93652,1.704165 c 3.97649,3.499364 10.13393,7.349432 14.61184,9.136362 7.65334,3.054098 13.98045,4.155487 22.39016,3.897558 l 4.81717,-0.147743 3.42817,2.428266 c 1.88549,1.335548 3.40052,2.456286 3.36674,2.490534 -0.0338,0.03425 -1.18435,0.292923 -2.5568,0.574834 -4.91198,1.008954 -11.66419,1.316524 -17.31204,0.788585 z m 22.24725,-2.706315 c 0.10236,-0.459822 0.38094,-2.020019 0.61906,-3.467107 l 0.43295,-2.631067 2.73236,-1.125384 c 5.21939,-2.149719 10.49806,-5.435711 14.70954,-9.156751 l 2.02133,-1.785937 h 4.21719 c 2.31945,0 4.21313,0.0893 4.20816,0.198437 -0.0133,0.293161 -3.553,3.957318 -5.64964,5.848353 -6.07377,5.47815 -13.87714,9.951723 -21.54305,12.35035 l -1.93401,0.605145 z M 41.08952,56.061814 c -4.07518,-1.302994 -6.79109,-4.008909 -8.16373,-8.133686 -0.75385,-2.265315 -0.76245,-5.604947 -0.0205,-7.967874 1.67533,-5.335714 6.58405,-8.801104 12.44108,-8.782987 2.13849,0.0066 4.92602,0.662043 6.34007,1.490732 1.25251,0.734021 3.74413,2.91464 3.74413,3.276794 0,0.110985 -1.08356,1.030131 -2.40791,2.042546 l -2.40791,1.840756 -0.96553,-0.887438 C 46.77095,36.295165 43.2634,36.36633 40.7872,39.12046 c -4.0599,4.515581 -0.78432,12.150779 4.95852,11.558064 1.6679,-0.17214 2.71418,-0.664686 4.13101,-1.944714 l 1.02913,-0.929759 1.53475,1.127525 c 0.84412,0.620138 1.93295,1.41709 2.41964,1.771002 l 0.88488,0.643477 -1.41405,1.442934 c -1.68567,1.720099 -3.11967,2.611734 -5.28355,3.28521 -2.12013,0.659857 -5.87379,0.654015 -7.95798,-0.01238 z m 76.6504,0.136091 c -0.87313,-0.200494 -2.18282,-0.592183 -2.91042,-0.870421 -1.54323,-0.590138 -4.36562,-2.338401 -4.36562,-2.704182 0,-0.138478 0.44648,-0.769792 0.99218,-1.402922 0.54571,-0.633126 1.31164,-1.533001 1.70209,-1.99972 l 0.70989,-0.848577 1.61967,0.964835 c 3.84012,2.287547 8.89729,2.569903 9.41043,0.525412 0.41446,-1.651336 -0.30915,-2.138556 -5.11722,-3.445552 -6.5943,-1.79255 -8.25871,-3.291393 -8.25871,-7.437152 0,-2.386131 0.68163,-3.99102 2.32608,-5.476677 3.34076,-3.01818 10.95384,-2.993999 15.75379,0.05004 l 1.25299,0.794623 -1.08802,1.542808 c -0.59841,0.848544 -1.34666,1.864162 -1.66278,2.256929 l -0.57477,0.71412 -1.71979,-0.908248 c -3.08413,-1.628776 -6.18704,-1.862841 -7.41184,-0.559104 -0.76904,0.818602 -0.53935,1.819191 0.57286,2.495567 0.45085,0.274182 2.02524,0.795102 3.49863,1.157601 5.22762,1.286154 7.35297,2.449577 8.3906,4.59304 1.36214,2.813799 0.81043,5.952088 -1.43859,8.183102 -1.89407,1.878907 -3.68958,2.528756 -7.31583,2.647807 -1.74027,0.05714 -3.37118,-0.04498 -4.36562,-0.273327 z M 58.07633,43.93882 l 5e-5,-12.23698 h 3.16875 3.16875 l 0.0724,4.564062 0.0724,4.564063 4.55746,0.07236 4.55746,0.07236 0.15277,-0.608697 c 0.084,-0.334783 0.11676,-2.421354 0.0728,-4.636823 l -0.08,-4.028127 3.24379,3.97e-4 3.24379,3.96e-4 -0.0688,12.189774 -0.0688,12.189772 -3.13771,-4.2e-5 -3.13772,-4e-5 -0.0373,-4.582959 -0.0373,-4.582961 -4.69022,-0.07223 -4.69022,-0.07223 -0.0723,4.654357 -0.0723,4.654359 -3.1089,0.04807 -3.10891,0.04808 z m 24.60625,11.902659 c 2e-5,-0.183877 0.11709,-0.541065 0.26015,-0.79375 0.14307,-0.252688 0.91697,-2.037008 1.7198,-3.965159 1.87268,-4.497631 3.92257,-9.375123 6.28586,-14.956524 l 1.87972,-4.439334 3.31112,0.07371 3.31112,0.07371 1.23696,2.910417 c 0.68034,1.600729 1.9247,4.51776 2.76527,6.482291 0.84056,1.964533 1.79572,4.22672 2.12257,5.027085 0.32685,0.800364 1.38193,3.330194 2.34462,5.621843 0.9627,2.291648 1.75038,4.196648 1.7504,4.233333 3e-5,0.03668 -1.56997,0.04786 -3.48889,0.02482 l -3.48893,-0.04187 -0.72814,-1.89575 c -0.40048,-1.042659 -0.86912,-2.065615 -1.04143,-2.273231 -0.24926,-0.300347 -1.23933,-0.376658 -4.84495,-0.373435 -2.49241,0.0021 -4.66253,0.09152 -4.82247,0.198437 -0.29961,0.200266 -1.69357,3.500726 -1.69357,4.009824 0,0.157083 -0.0893,0.289489 -0.19844,0.294238 -3.83722,0.166944 -6.68081,0.07728 -6.68077,-0.210661 z M 98.80916,46.32007 c -0.021,-0.745686 -2.50972,-6.817143 -2.77531,-6.770652 -0.28327,0.04959 -2.74328,6.08882 -2.75793,6.770652 -0.009,0.412205 0.29493,0.46302 2.76816,0.46302 2.47442,0 2.7767,-0.05062 2.76508,-0.46302 z m 32.47934,-4.568201 c -0.92288,-0.725939 -1.34867,-2.070413 -0.97119,-3.066606 0.70235,-1.85353 2.30616,-2.587004 4.05706,-1.855429 1.30064,0.54344 2.10476,2.190696 1.65608,3.392486 -0.71618,1.918272 -3.22074,2.726133 -4.74195,1.529549 z m 3.53739,-0.504677 c 0.6048,-0.604801 0.7734,-1.011299 0.7734,-1.864717 0,-2.359959 -2.68548,-3.317539 -4.32928,-1.543722 -0.65314,0.704798 -0.73735,0.966892 -0.61167,1.903849 0.29555,2.203513 2.62694,3.045203 4.16755,1.50459 z m -2.65777,-1.752438 c -0.009,-1.431206 -0.0451,-1.406423 1.76521,-1.212449 0.2049,0.02195 0.29922,0.4579 0.26458,1.222902 -0.0538,1.187578 -0.33206,1.544913 -0.6196,0.795591 -0.20262,-0.528001 -0.61918,-0.501766 -1.05029,0.06615 -0.30722,0.404709 -0.35254,0.294869 -0.3599,-0.87219 z m 1.53234,-0.472652 c 0.0577,-0.297414 -0.0931,-0.441096 -0.46302,-0.441096 -0.30171,0 -0.54856,0.15875 -0.54856,0.352778 0,0.810351 0.85704,0.885176 1.01158,0.08832 z"
       id="path309" />
  </g>
</svg>
