<?xml version="1.0" encoding="UTF-8" standalone="no"?>
<svg
   width="146.83315"
   height="70.999802"
   viewBox="0 0 146.83315 70.999802"
   fill="none"
   version="1.1"
   id="svg2269"
   xmlns="http://www.w3.org/2000/svg"
   xmlns:svg="http://www.w3.org/2000/svg">
  <defs
     id="defs2273" />
  <path
     d="m 1.190921,27.7393 h 13.370024 l 4.1576,5.1388 0.0727,-5.1388 h 7.492 v 17.6114 h -13.7076 l -4.4965,-5.0568 -0.09089,5.0568 H 1.11691 c 0,0 -0.61675915,0 -0.61675915,-0.6152 V 28.4587 c 0,0 -0.009089,-0.7181 0.69077015,-0.7181 z"
     fill="#c50637"
     id="path2255"
     style="stroke:#ffffff;stroke-opacity:1" />
  <path
     d="m 29.299645,0.5 h 13.2662 c 0,0 1.2231,0.0899272 1.2231,1.48706 V 12.5633 h -16.1176 V 2.31809 c 0,0 -0.0662,-1.81809 1.6296,-1.81809 z"
     fill="#c50637"
     id="path2257"
     style="stroke:#ffffff;stroke-opacity:1" />
  <path
     d="M 27.670045,69.1561 V 13.9199 h 16.1526 v 55.2362 c 0,0 0,1.3437 -1.079,1.3437 h -14.0179 c 0,0 -1.0544,0.0417 -1.0544,-1.3437 z"
     fill="#c50637"
     id="path2259"
     style="stroke:#ffffff;stroke-opacity:1" />
  <path
     d="m 46.182845,27.7393 h 24.8081 c 0,0 1.0348,0.0417 1.0348,1.0374 v 7.2385 h -13.0805 v -5.8231 c 0,0 0,-0.7573 -0.4947,-0.7573 0,0 -0.5414,-0.0325 -0.5414,0.7533 v 12.4387 c 0,0 -0.0585,0.9774 0.531,0.9774 0,0 0.5077,0.0066 0.5077,-0.9813 v -5.5534 l 13.0753,0.0092 v 7.2358 c 0,0 -0.0169,1.0348 -1.0309,1.0348 h -24.8081 c 0,0 -0.9985,-0.0182 -0.9985,-1.0348 V 28.778 c 0,0 -0.0025,-1.0387 0.9985,-1.0387 z"
     fill="#c50637"
     id="path2261"
     style="stroke:#ffffff;stroke-opacity:1" />
  <path
     d="m 78.957745,27.7393 h 24.708405 v 4.83 H 88.525945 c 0,0 -0.7129,0.0052 -0.7129,0.7168 0,0.0586 0.0195,0.6712 0.7129,0.6712 h 15.140205 v 5.1871 H 88.525945 c 0,0 -0.6791,0.0104 -0.6791,0.722 0,0 -0.0156,0.6569 0.6946,0.6569 H 103.66715 V 45.352 H 78.959045 c 0,0 -1.0907,0 -1.0907,-1.117 V 28.8458 c 0,0 0,-1.1039 1.0907,-1.1039 z"
     fill="#000000"
     id="path2263"
     style="stroke:#ffffff;stroke-opacity:1" />
  <path
     d="m 118.11515,27.7393 h -13.089 v 17.6114 h 13.089 z"
     fill="#000000"
     id="path2265"
     style="stroke:#ffffff;stroke-opacity:1" />
  <path
     d="m 120.49215,27.7197 h 24.808 c 0,0 1.033,0.0417 1.033,1.0374 v 7.2385 h -13.08 v -5.8218 c 0,0 0,-0.7572 -0.495,-0.7572 0,0 -0.541,-0.0339 -0.541,0.7533 v 12.4386 c 0,0 -0.059,0.9775 0.531,0.9775 0,0 0.507,0.0065 0.507,-0.9814 v -5.5533 l 13.076,0.0091 v 7.2359 c 0,0 -0.017,1.0348 -1.031,1.0348 h -24.808 c 0,0 -0.999,-0.0182 -0.999,-1.0348 V 28.7598 c 0,0 -0.002,-1.0401 0.999,-1.0401 z"
     fill="#000000"
     id="path2267"
     style="stroke:#ffffff;stroke-opacity:1" />
</svg>
