<?xml version="1.0" encoding="UTF-8" standalone="no"?>
<!-- Created with Inkscape (http://www.inkscape.org/) -->

<svg
   version="1.1"
   id="svg1329"
   width="132.88266"
   height="132.88269"
   viewBox="0 0 132.88266 132.88269"
   sodipodi:docname="IconsEdited"
   inkscape:version="1.2.2 (732a01da63, 2022-12-09, custom)"
   xmlns:inkscape="http://www.inkscape.org/namespaces/inkscape"
   xmlns:sodipodi="http://sodipodi.sourceforge.net/DTD/sodipodi-0.dtd"
   xmlns="http://www.w3.org/2000/svg"
   xmlns:svg="http://www.w3.org/2000/svg">
  <defs
     id="defs1333">
    <linearGradient
       id="linearGradient12516"
       inkscape:swatch="solid">
      <stop
         style="stop-color:#000000;stop-opacity:1;"
         offset="0"
         id="stop12514" />
    </linearGradient>
    <linearGradient
       id="linearGradient10464"
       inkscape:swatch="solid">
      <stop
         style="stop-color:#000000;stop-opacity:1;"
         offset="0"
         id="stop10462" />
    </linearGradient>
  </defs>
  <sodipodi:namedview
     id="namedview1331"
     pagecolor="#ffffff"
     bordercolor="#999999"
     borderopacity="1"
     inkscape:showpageshadow="0"
     inkscape:pageopacity="0"
     inkscape:pagecheckerboard="0"
     inkscape:deskcolor="#d1d1d1"
     showgrid="false"
     inkscape:lockguides="true"
     inkscape:zoom="0.64785944"
     inkscape:cx="236.16234"
     inkscape:cy="329.54679"
     inkscape:window-width="1366"
     inkscape:window-height="704"
     inkscape:window-x="0"
     inkscape:window-y="0"
     inkscape:window-maximized="1"
     inkscape:current-layer="g1339" />
  <g
     id="g1337"
     inkscape:groupmode="layer"
     inkscape:label="Page 1"
     transform="matrix(1.3333333,0,0,-1.3333333,-303.91199,155.38267)">
    <g
       id="g1339"
       transform="scale(0.1)">
      <path
         d="M 3264.71,667.051 C 3264.71,398.07 3046.65,180 2777.66,180 c -269,0 -487.07,218.07 -487.07,487.051 0,269.008 218.07,487.069 487.07,487.069 268.99,0 487.05,-218.061 487.05,-487.069"
         style="fill:#1e9cf1;fill-opacity:1;fill-rule:nonzero;stroke:#000000;stroke-width:22.5;stroke-dasharray:none;stroke-opacity:1"
         id="path2477"
         inkscape:export-filename="../c5b20351/repairs@64x64_border.png"
         inkscape:export-xdpi="46.236282"
         inkscape:export-ydpi="46.236282" />
      <path
         d="m 2735.62,478 c -19.93,0 -39.79,1.93 -56.94,10.82 -19.41,10.879 -19.41,29.059 -35.11,38.809 -14.28,8.902 -31.14,11.152 -48.86,11.152 -9.11,0 -18.44,-0.59 -27.77,-1.191 -9.32,-0.598 -18.64,-1.188 -27.71,-1.188 -24.17,0 -46.59,4.219 -62.85,23.938 -28.18,34.058 68.24,51.422 134.33,58.801 l 0.08,-0.082 c 28.49,3.211 51.38,4.511 56.09,4.511 32.3,0 68.28,-7.711 102.57,-12 l -16.81,-3.3 39.03,-8.11 -4.57,-14.668 c -9.2,0.348 -18.4,0.66 -27.47,0.66 -10.28,0 -20.37,-0.402 -30.06,-1.621 -21.82,-3.621 -32.73,-14.519 -10.92,-30.301 16.94,-12.058 30.32,-7.269 49.66,-12.058 19.41,-3.641 19.41,-21.813 36.33,-29.09 3.31,-1.332 7.06,-1.84 11.01,-1.84 10.58,0 22.61,3.688 31.45,5.488 10.28,2.129 19.42,3.012 28.09,3.012 20.93,0 39.11,-5.14 63.95,-10.301 5.49,-0.929 12.38,-1.851 19.15,-1.851 11.13,0 21.93,2.492 25.69,11.531 6.03,16.93 -9.68,19.41 7.26,32.719 9.67,7.262 32.72,7.262 39.99,18.172 9.66,16.918 -6.03,27.828 -19.41,32.699 -16.94,7.269 -42.37,3.641 -58.15,13.32 -9.13,5.34 -12.27,18.731 -24.21,26.028 8.68,9.761 14.89,20.863 18.11,32.933 19.34,-7.14 16.02,-14.402 25.5,-28.652 15.77,-19.418 47.26,-16.949 70.29,-24.211 16.19,-6.078 36.5,-18.899 44.21,-33.27 l -0.2,0.2 c 4.59,-8.368 4.94,-17.27 -2.31,-25.7 -2.71,-3.129 -6.47,-6.187 -11.46,-9.129 -11.87,-7.3 -31.38,-9.789 -38.63,-19.468 -0.78,-1.043 -1.42,-2.172 -1.89,-3.391 0,-0.012 0,-0.012 -0.01,-0.019 0,-0.012 0,-0.02 -0.01,-0.032 -0.92,-2.429 -1.19,-5.238 -0.6,-8.57 0.68,-4.488 2.83,-8 5.07,-11.078 3.72,-5.192 7.67,-9.192 5.24,-14.621 -1.23,-2.672 -4.01,-5.699 -9.15,-9.399 -10.46,-7.242 -27.41,-9.562 -43.98,-9.562 -14.07,0 -27.86,1.68 -37.14,3.441 -24.84,4.778 -45.19,6.438 -63.07,6.438 -41.21,0 -69.29,-8.84 -109,-8.84 -14.19,0 -29.52,-1.129 -44.81,-1.129 m 118.36,105.711 c -5.14,0 -10.13,0.109 -14.68,0.258 l -4.11,10.883 c 9.49,3.339 18.89,7 27.81,11.55 l 6.59,1.996 -1.95,0.481 c 1.91,1.07 3.79,2.18 5.64,3.351 1.77,-0.398 3.62,-0.609 5.5,-0.609 3.58,0 7.32,0.75 11.13,2.438 0.8,0.363 1.61,0.73 2.4,1.101 6.21,-3.93 12.2,-8.379 11.71,-16.078 0,-12.973 -26.52,-15.371 -50.04,-15.371 m -39.85,0.891 c -1.98,0.027 -3.96,0.078 -5.95,0.128 l 2.95,2.59 3,-2.718 m 29.76,55 c -3.34,6.308 -6.11,10.41 -5.89,14.168 l 0.36,1.789 c 0.06,0.183 0.13,0.363 0.21,0.55 1.53,3.43 6.09,6.821 15.81,11.961 11.8,5.7 23.2,8.692 34.9,10.289 l 2.6,0.313 0.04,0.058 c 0.01,0 0.01,0 0.01,0 -6.37,-8.371 -16.33,-15.671 -27.71,-20.718 -7.51,-3.332 -11.5,-8.582 -12.8,-14.383 -2.47,-1.438 -4.98,-2.77 -7.53,-4.027"
         style="fill:#67c2c8;fill-opacity:1;fill-rule:nonzero;stroke:none"
         id="path2479" />
      <path
         d="m 2596.68,655.07 c -10.89,0 -21.06,1.7 -28.16,6.672 -0.64,0.438 -1.25,0.918 -1.84,1.418 l 0.11,-0.101 c -2.85,2.39 -5.08,5.433 -6.51,9.23 -3.66,11.133 3.25,17.59 13.99,21.391 l 0.01,-0.008 0.39,0.098 0.2,0.101 c 17.09,7.168 51.89,11.43 80.63,11.43 19.69,0 36.54,-2 42.88,-6.43 8.66,-6.332 9.9,-11.742 6.85,-16.312 -8.1,-12.008 -45.96,-18.207 -56.49,-20 -10.52,-1.969 -32.45,-7.489 -52.06,-7.489 m 52.21,40.301 c -12.62,0 -26.87,-1.742 -34.67,-4.332 -11.85,-4.059 -7.27,-11.84 3.2,-13.137 1.61,-0.183 3.26,-0.261 4.95,-0.261 11.62,0 24.73,3.851 35.46,6.558 3.64,0.961 14.98,2.781 10.48,8.672 l -0.88,0.578 h -0.08 c -2.32,0.653 -5.15,1.16 -8.28,1.461 l -1.67,0.129 -0.8,0.09 c -2.45,0.16 -5.05,0.242 -7.71,0.242"
         style="fill:#67c2c8;fill-opacity:1;fill-rule:nonzero;stroke:none"
         id="path2481" />
      <path
         d="m 2958.29,507.59 c -6.77,0 -13.66,0.922 -19.15,1.851 -24.84,5.161 -43.02,10.301 -63.95,10.301 -8.67,0 -17.81,-0.883 -28.09,-3.012 -8.84,-1.8 -20.87,-5.488 -31.45,-5.488 -3.95,0 -7.7,0.508 -11.01,1.84 -16.92,7.277 -16.92,25.449 -36.33,29.09 -19.34,4.789 -32.72,0 -49.66,12.058 -21.81,15.782 -10.9,26.68 10.92,30.301 9.69,1.219 19.78,1.621 30.06,1.621 9.07,0 18.27,-0.312 27.47,-0.66 l -8.26,-26.5 29.34,25.738 c 1.99,-0.05 3.97,-0.101 5.95,-0.128 l 37.94,-34.403 -12.77,33.77 c 4.55,-0.149 9.54,-0.258 14.68,-0.258 23.52,0 50.04,2.398 50.04,15.371 0.49,7.699 -5.5,12.148 -11.71,16.078 14.93,6.969 27.55,16.11 37.15,26.899 11.94,-7.297 15.08,-20.688 24.21,-26.028 15.78,-9.679 41.21,-6.051 58.15,-13.32 13.38,-4.871 29.07,-15.781 19.41,-32.699 -7.27,-10.91 -30.32,-10.91 -39.99,-18.172 -16.94,-13.309 -1.23,-15.789 -7.26,-32.719 -3.76,-9.039 -14.56,-11.531 -25.69,-11.531"
         style="fill:#a4dfd5;fill-opacity:1;fill-rule:nonzero;stroke:none"
         id="path2483" />
      <path
         d="m 2622.37,677.641 c -1.69,0 -3.34,0.078 -4.95,0.261 -10.47,1.297 -15.05,9.078 -3.2,13.137 7.8,2.59 22.05,4.332 34.67,4.332 2.66,0 5.26,-0.082 7.71,-0.242 l 0.8,-0.09 1.67,-0.129 c 3.13,-0.301 5.96,-0.808 8.28,-1.461 h 0.08 l 0.88,-0.578 c 4.5,-5.891 -6.84,-7.711 -10.48,-8.672 -10.73,-2.707 -23.84,-6.558 -35.46,-6.558"
         style="fill:#a4dfd5;fill-opacity:1;fill-rule:nonzero;stroke:none"
         id="path2485" />
      <path
         d="m 2585.09,912.27 c -45.84,-11.09 -88.61,-35.329 -96.93,-73.911 -9.78,-45.429 15.6,-85.937 55.47,-105.379 62.55,-30.519 138.93,-3.55 202.99,7.25 43.06,7.27 92.9,10.86 131.65,-12.578 38.74,-23.433 17.95,-55.441 -14.05,-69.64 -29.94,-13.27 -4.02,-57.121 25.69,-43.953 50.13,22.273 75.5,68.55 50.29,120.011 -30.12,61.489 -116.04,65.321 -173.94,59.801 -42.43,-4.07 -84.11,-14.449 -126.16,-21.051 -29.96,-4.691 -63.65,-5.109 -88.84,14.512 -50.55,39.367 2.49,79.758 44.21,90.719 23.09,6.051 11.72,39.211 -10.38,34.219"
         style="fill:#f4b20c;fill-opacity:1;fill-rule:nonzero;stroke:none"
         id="path2487" />
      <path
         d="m 2887.12,646.441 c 7.5,-9.121 7.49,-21.519 -0.02,-27.711 -7.51,-6.16 -19.67,-3.761 -27.16,5.372 -7.52,9.117 -7.5,21.519 0.01,27.687 7.51,6.191 19.67,3.801 27.17,-5.348"
         style="fill:#90681e;fill-opacity:1;fill-rule:nonzero;stroke:none"
         id="path2489" />
      <path
         d="m 2860.12,649.309 c -14.76,-10.75 -31.57,-16.579 -48.75,-22.309 -23.21,-7.73 -13.26,-44.609 10.15,-36.801 20.06,6.699 40.62,13.61 57.87,26.172 8.39,6.098 12.51,16.449 6.85,26.098 -4.88,8.293 -17.69,12.972 -26.12,6.84"
         style="fill:#da8218;fill-opacity:1;fill-rule:nonzero;stroke:none"
         id="path2491" />
      <path
         d="m 2532.17,811.23 c -19.99,48.692 50.8,77.641 75.81,81.34 -0.08,-1.961 -0.5,-3.879 -1.28,-5.66 -0.19,-0.39 -0.4,-0.769 -0.62,-1.148 l -1.21,-1.793 c -1.17,-1.59 -2.76,-2.969 -4.77,-4.09 -1.39,-0.75 -2.97,-1.379 -4.76,-1.848 -1.73,-0.461 -3.47,-0.961 -5.23,-1.511 -0.08,-0.02 -0.16,-0.04 -0.24,-0.051 l -0.6,-0.219 c -31.83,-10.258 -66.94,-36.191 -57.1,-65.02"
         style="fill:#da9b15;fill-opacity:1;fill-rule:nonzero;stroke:none"
         id="path2493" />
      <path
         d="m 2893.59,681.121 0.28,0.438 0.61,1 0.19,0.363 c 0.6,1.019 1.14,2.047 1.63,3.09 l 0.48,0.957 0.8,2.191 0.07,0.219 c 0.12,0.363 0.24,0.711 0.34,1.07 l 0.3,0.922 0.48,2.211 0.32,2.277 c 0.58,6.633 -1.32,13.383 -6.56,19.789 -1.46,1.793 -3.17,3.571 -5.15,5.321 -0.88,0.781 -1.82,1.551 -2.81,2.312 -1.92,1.481 -4.05,2.93 -6.4,4.348 -22.37,13.562 -48.44,18.082 -74.78,18.082 -13.08,0 -26.22,-1.121 -39,-2.789 12.79,1.68 25.95,2.789 39.05,2.789 26.35,0 52.44,-4.512 74.83,-18.059 23.2,-14.031 25.05,-31.14 15.93,-45.66 -0.21,-0.293 -0.41,-0.582 -0.61,-0.871"
         style="fill:#4094b1;fill-opacity:1;fill-rule:nonzero;stroke:none"
         id="path2495" />
      <path
         d="m 2894.2,681.992 c 9.12,14.52 7.27,31.629 -15.93,45.66 -22.39,13.547 -48.48,18.059 -74.83,18.059 -13.1,0 -26.26,-1.109 -39.05,-2.789 -6.07,-0.801 -12.06,-1.723 -17.92,-2.703 -20.36,-3.418 -41.94,-8.508 -63.97,-12.719 25.9,8.199 79.06,29.98 130.3,29.98 23.66,0 46.92,-4.648 66.89,-17.421 32.3,-20.579 23.57,-44.868 14.51,-58.067"
         style="fill:#da9b15;fill-opacity:1;fill-rule:nonzero;stroke:none"
         id="path2497" />
      <path
         d="m 2811.13,628.641 -31.89,47.5 12.26,-60.25 -38.86,-7.621 39.03,-8.11 -12.83,-41.168 32.29,28.328 40.94,-37.121 -17.94,47.473 35.46,10.726 -38.66,9.563 9.55,48.371 -29.35,-37.691"
         style="fill:#ffffff;fill-opacity:1;fill-rule:nonzero;stroke:none"
         id="path2499" />
      <path
         d="m 2771.9,720.09 -18.94,3.031 14.95,-11.07 -8.12,-13.621 13.93,8.48 18.02,-15.601 -7.88,18.933 18.33,10.598 -22.42,-1.211 -4.09,12.723 -3.78,-12.262"
         style="fill:#ffffff;fill-opacity:1;fill-rule:nonzero;stroke:none"
         id="path2501" />
      <path
         d="m 2851.18,185.469 -0.04,0.043 c 86.76,13.117 165.99,49.129 231.39,101.687 -65.38,-52.57 -144.62,-88.609 -231.35,-101.73"
         style="fill:#c8bfc5;fill-opacity:1;fill-rule:nonzero;stroke:none"
         id="path2503" />
      <path
         d="M 2854.7213,259.15296 2484.77,551.879 c 15.21,-12.539 34.24,-15.5 54.48,-15.5 9.06,0 18.36,0.59 27.67,1.191 9.31,0.59 18.63,1.18 27.72,1.18 17.75,0 34.64,-2.258 48.94,-11.191 15.7,-9.688 15.7,-27.887 35.1,-38.789 17.17,-8.899 37.05,-10.829 57.01,-10.829 15.24,0 30.53,1.118 44.69,1.118 39.74,0 67.82,8.851 109.02,8.851 17.88,0 38.23,-1.66 63.09,-6.441 9.26,-1.75 23.05,-3.41 37.11,-3.41 16.57,0 33.54,2.3 43.98,9.5 5.18,3.73 7.97,6.793 9.19,9.492 2.49,5.449 -1.49,9.429 -5.24,14.621 -2.22,3.09 -4.37,6.609 -5.05,11.098 -0.6,3.32 -0.34,6.132 0.58,8.55 0.01,0.012 0.01,0.02 0.01,0.032 0.01,0.007 0.01,0.007 0.01,0.019 0.47,1.219 1.11,2.348 1.89,3.391 7.23,9.636 26.74,12.148 38.61,19.398 5.01,2.969 8.77,6.051 11.48,9.199 7.22,8.34 6.98,17.18 2.51,25.5 l 84.4403,-99.75982 c -31.71,-66.91 -61.1008,-110.732 -118.2108,-156.654 -65.4,-52.558 -108.4651,-73.66114 -195.2251,-86.77814"
         style="fill:#1e9cf1;fill-opacity:1;fill-rule:nonzero;stroke:none"
         id="path2505"
         sodipodi:nodetypes="ccscsccssscscccccccccccccc" />
      <path
         d="m 3042.77,497.051 c 2.43,5.429 -1.52,9.429 -5.24,14.621 3.75,-5.192 7.73,-9.172 5.24,-14.621 m -9.71,34.269 c 0.01,0.012 0.01,0.02 0.01,0.032 0,-0.012 0,-0.02 -0.01,-0.032 m 0.02,0.051 c 0.47,1.219 1.11,2.348 1.89,3.391 -0.78,-1.043 -1.42,-2.172 -1.89,-3.391 m 51.98,31.988 c 7.25,8.43 6.9,17.332 2.31,25.7 l 0.2,-0.2 c 4.47,-8.32 4.71,-17.16 -2.51,-25.5"
         style="fill:#4e8f9d;fill-opacity:1;fill-rule:nonzero;stroke:none"
         id="path2507" />
      <path
         d="m 2608.9,770.129 c -20.58,0 -40.97,4.211 -57.64,17.203 -25.08,19.527 -24.66,39.32 -12.77,55.629 l 1.89,2.41 c 0.19,0.258 0.38,0.5 0.58,0.75 0.96,1.141 1.98,2.27 3.04,3.371 l 1.28,1.27 c 0.1,0.097 0.2,0.207 0.3,0.308 3.82,3.719 8.21,7.192 12.93,10.352 1.89,1.238 3.82,2.418 5.75,3.598 1.18,0.691 2.37,1.359 3.58,2.019 1.37,0.68 2.73,1.383 4.09,2.121 2.17,1.082 4.38,2.09 6.59,3.031 0.88,0.379 1.76,0.731 2.66,1.071 1.99,0.797 3.9,1.508 5.89,2.207 l 1.33,0.472 c 0.69,0.231 1.38,0.45 2.07,0.668 0.71,0.18 1.39,0.411 2.02,0.563 0.99,0.289 1.89,0.598 2.79,0.797 0.58,0.16 1.14,0.332 1.67,0.523 7.94,2.649 11.28,8.778 11.22,15.129 -0.01,1.5 -0.21,3.02 -0.6,4.5 -0.42,1.629 -1.05,3.219 -1.86,4.719 l 115.17,-115.281 c -3.34,-0.59 -6.68,-1.2 -10.02,-1.817 -23.6,-4.301 -47.12,-9.211 -70.76,-12.922 -10.13,-1.59 -20.69,-2.691 -31.2,-2.691"
         style="fill:#0b8dd9;fill-opacity:1;fill-rule:nonzero;stroke:none"
         id="path2509" />
      <path
         d="m 2608.86,770.082 c -20.56,0 -40.91,4.207 -57.59,17.188 -19.1,14.8 -23.39,29.902 -19.19,43.39 0.29,1 0.7,2 1.09,3.11 0.41,1 0.8,1.992 1.41,2.992 0.99,1.91 2.2,3.808 3.39,5.597 l 0.2,0.2 0.32,0.402 c -11.89,-16.309 -12.31,-36.102 12.77,-55.629 16.67,-12.992 37.06,-17.203 57.64,-17.203 10.51,0 21.07,1.101 31.2,2.691 23.64,3.711 47.16,8.621 70.76,12.922 -23.63,-4.383 -47.13,-9.293 -70.78,-12.972 -10.15,-1.59 -20.71,-2.688 -31.22,-2.688 m -67.9,76.039 c 0.74,0.91 1.53,1.77 2.33,2.649 l 0.71,0.722 c -1.06,-1.101 -2.08,-2.23 -3.04,-3.371 m 4.62,4.949 c 3.33,3.371 7.13,6.379 11.2,9.2 0.57,0.39 1.15,0.769 1.73,1.152 -4.72,-3.16 -9.11,-6.633 -12.93,-10.352 m 18.68,13.95 c 0.07,0.05 0.14,0.089 0.22,0.14 0.9,0.5 1.79,1.11 2.79,1.602 0.19,0.09 0.38,0.179 0.57,0.277 -1.21,-0.66 -2.4,-1.328 -3.58,-2.019 m 7.67,4.14 c 0.25,0.129 0.5,0.27 0.75,0.41 1.93,0.891 3.87,1.789 5.84,2.621 -2.21,-0.941 -4.42,-1.949 -6.59,-3.031 m 16.47,6.781 0.87,0.309 c 0.28,0.09 0.56,0.18 0.84,0.27 0.12,0.031 0.24,0.062 0.36,0.089 -0.69,-0.218 -1.38,-0.437 -2.07,-0.668 m 8.55,2.551 c 1.15,0.399 2.19,0.867 3.15,1.387 3.21,1.762 5.36,4.23 6.6,7.031 1.01,2.102 1.48,4.391 1.47,6.711 0.06,-6.351 -3.28,-12.48 -11.22,-15.129 m 10.62,19.629 c -0.44,1.68 -1.12,3.309 -2,4.848 l 0.14,-0.129 c 0.81,-1.5 1.44,-3.09 1.86,-4.719"
         style="fill:#bd881b;fill-opacity:1;fill-rule:nonzero;stroke:none"
         id="path2511" />
      <path
         d="m 2589.27,876.25 0.6,0.219 c 0.08,0.011 0.16,0.031 0.24,0.051 -0.28,-0.09 -0.56,-0.18 -0.84,-0.27 m 10.83,3.629 c 2.01,1.121 3.6,2.5 4.77,4.09 l 1.21,1.793 c 0.22,0.379 0.43,0.758 0.62,1.148 -1.24,-2.801 -3.39,-5.269 -6.6,-7.031"
         style="fill:#a7741d;fill-opacity:1;fill-rule:nonzero;stroke:none"
         id="path2513" />
      <path
         d="m 2769.5,611.582 c -34.34,4.316 -70.31,12.059 -102.6,12.059 -4.76,0 -27.65,-1.321 -56.19,-4.5 l -43.92,43.918 c 0.55,-0.469 1.13,-0.911 1.73,-1.317 7.07,-5.012 17.23,-6.722 28.12,-6.722 19.6,0 41.55,5.562 52.13,7.539 10.53,1.742 48.42,7.953 56.46,20 3.09,4.582 1.87,10 -6.84,16.343 -6.36,4.438 -23.22,6.438 -42.93,6.438 -28.73,0 -63.49,-4.258 -80.56,-11.449 l -0.23,-0.071 c -0.13,-0.05 -0.26,-0.09 -0.4,-0.14 l -58.69,58.699 c 3.19,-3.047 6.61,-5.918 10.21,-8.59 5.51,-4.098 11.47,-7.73 17.79,-10.82 21.24,-10.348 44.08,-14.09 67.49,-14.09 37,0.012 75.44,9.34 111.2,16.691 5,0.989 9.9,1.989 14.71,2.891 3.2,0.598 6.4,1.211 9.49,1.699 18.22,3.082 37.62,5.512 56.89,5.512 26.34,0 52.41,-4.531 74.81,-18.113 2.35,-1.399 4.48,-2.817 6.4,-4.278 0.99,-0.761 1.93,-1.531 2.81,-2.312 0.81,-0.719 1.58,-1.457 2.29,-2.199 1.05,-1.028 2,-2.071 2.86,-3.122 6.65,-8.238 7.93,-16.937 5.46,-25.199 l -0.34,-1.07 c -0.38,-1.129 -0.83,-2.258 -1.35,-3.367 l -0.63,-1.242 -1,-1.848 c -0.47,-0.813 -0.97,-1.602 -1.51,-2.391 0.14,0.188 0.29,0.391 0.43,0.59 l -0.42,-0.652 -1.25,-1.739 c -0.89,-0.109 -1.77,-0.23 -2.66,-0.351 -11.63,-1.578 -23.1,-4.57 -34.9,-10.25 -9.7,-5.07 -14.29,-8.57 -15.79,-12.02 -0.08,-0.168 -0.14,-0.339 -0.2,-0.5 l 2.02,10.223 0.08,0.438 v 0 l 0.01,0.062 -29.35,-37.691 -31.89,47.5 5.15,-25.309 7.07,-34.953 -21.96,-4.297 m 4.18,95.289 18.1,-15.601 -3.72,8.89 -4.17,10.012 18.28,10.59 -0.13,-0.012 0.15,0.09 -22.42,-1.211 -4.09,12.723 v -0.012 l -0.01,0.019 -3.78,-12.269 -18.93,3.031 0.09,-0.062 -0.08,0.011 14.91,-11 -5.28,-8.929 -2.81,-4.711 0.03,0.019 -0.05,-0.09 13.91,8.512"
         style="fill:#0b8dd9;fill-opacity:1;fill-rule:nonzero;stroke:none"
         id="path2515" />
      <path
         d="m 2769.45,611.57 c -34.29,4.289 -70.27,12 -102.57,12 -4.71,0 -27.6,-1.3 -56.09,-4.511 l -0.08,0.082 c 28.54,3.179 51.43,4.5 56.19,4.5 32.29,0 68.26,-7.743 102.6,-12.059 l -0.05,-0.012 m 69.12,44.539 c 1.5,3.45 6.09,6.95 15.79,12.02 11.8,5.68 23.27,8.672 34.9,10.25 0.89,0.121 1.77,0.242 2.66,0.351 l -0.04,-0.058 -2.6,-0.313 c -11.7,-1.597 -23.1,-4.589 -34.9,-10.289 -9.72,-5.14 -14.28,-8.531 -15.81,-11.961"
         style="fill:#0b8dd9;fill-opacity:1;fill-rule:nonzero;stroke:none"
         id="path2517" />
      <path
         d="m 2568.52,661.742 c -0.6,0.406 -1.18,0.848 -1.73,1.317 l -0.11,0.101 c 0.59,-0.5 1.2,-0.98 1.84,-1.418 m 136.71,20.817 c 3.05,4.57 1.81,9.98 -6.85,16.312 -6.34,4.43 -23.19,6.43 -42.88,6.43 -28.74,0 -63.54,-4.262 -80.63,-11.43 l -0.2,-0.101 -0.39,-0.098 -0.01,0.008 c 0.14,0.05 0.27,0.09 0.4,0.14 l 0.23,0.071 c 17.07,7.191 51.83,11.449 80.56,11.449 19.71,0 36.57,-2 42.93,-6.438 8.71,-6.343 9.93,-11.761 6.84,-16.343"
         style="fill:#4e8f9d;fill-opacity:1;fill-rule:nonzero;stroke:none"
         id="path2519" />
      <path
         d="m 2525.79,743.789 c -3.6,2.672 -7.02,5.543 -10.21,8.59 l -0.4,0.391 c 3.32,-3.188 6.86,-6.188 10.61,-8.981"
         style="fill:#bd881b;fill-opacity:1;fill-rule:nonzero;stroke:none"
         id="path2521" />
      <path
         d="m 2893.16,680.531 c 0.54,0.789 1.04,1.578 1.51,2.391 l -0.19,-0.363 -0.61,-1 -0.28,-0.438 c -0.14,-0.199 -0.29,-0.402 -0.43,-0.59 m 3.14,5.481 c 0.52,1.109 0.97,2.238 1.35,3.367 l -0.07,-0.219 -0.8,-2.191 -0.48,-0.957 m 1.69,4.437 c 2.47,8.262 1.19,16.961 -5.46,25.199 5.24,-6.406 7.14,-13.156 6.56,-19.789 l -0.32,-2.277 -0.48,-2.211 -0.3,-0.922 m -10.61,30.52 c -0.88,0.781 -1.82,1.551 -2.81,2.312 0.99,-0.761 1.93,-1.531 2.81,-2.312"
         style="fill:#306e8b;fill-opacity:1;fill-rule:nonzero;stroke:none"
         id="path2523" />
      <path
         d="m 2769.48,611.559 c -0.01,0 -0.02,0.011 -0.03,0.011 l 0.05,0.012 21.96,4.297 0.01,-0.02 -21.99,-4.3 m 41.6,17.011 -31.8,47.5 5.11,-25.238 -5.15,25.309 31.89,-47.5 29.35,37.691 -0.01,-0.062 -29.39,-37.7 m 27.21,26.801 2.1,10.461 -2.02,-10.223 c -0.03,-0.078 -0.06,-0.16 -0.08,-0.238"
         style="fill:#c8bfc5;fill-opacity:1;fill-rule:nonzero;stroke:none"
         id="path2525" />
      <path
         d="m 2759.79,698.43 2.81,4.711 -2.78,-4.692 -0.03,-0.019 m 28.27,1.73 -4.19,10 0.02,0.012 4.17,-10.012 m -8.29,19.41 -4.09,12.77 v 0.012 l 4.09,-12.723 22.42,1.211 -0.15,-0.09 -22.27,-1.18 m -7.89,0.489 -18.83,3 -0.09,0.062 18.93,-3.031 -0.01,-0.031"
         style="fill:#c8bfc5;fill-opacity:1;fill-rule:nonzero;stroke:none"
         id="path2527" />
    </g>
  </g>
</svg>
