<?xml version="1.0" encoding="UTF-8" standalone="no"?>
<!-- Created with Inkscape (http://www.inkscape.org/) -->

<svg
   version="1.1"
   id="svg1329"
   width="133"
   height="133"
   viewBox="0 0 133 133"
   xmlns="http://www.w3.org/2000/svg"
   xmlns:svg="http://www.w3.org/2000/svg">
  <defs
     id="defs1333">
    <linearGradient
       id="linearGradient12516">
      <stop
         style="stop-color:#000000;stop-opacity:1;"
         offset="0"
         id="stop12514" />
    </linearGradient>
    <linearGradient
       id="linearGradient10464">
      <stop
         style="stop-color:#000000;stop-opacity:1;"
         offset="0"
         id="stop10462" />
    </linearGradient>
    <clipPath
       clipPathUnits="userSpaceOnUse"
       id="clipPath1945">
      <path
         d="m 2806.16,3844.88 h -2.6 c -0.99,0 -1.82,0.81 -1.82,1.81 v 4.98 h -4.97 c -0.98,0 -1.8,0.8 -1.8,1.8 v 2.6 c 0,0.99 0.82,1.81 1.8,1.81 h 4.97 v 4.97 c 0,1 0.83,1.81 1.82,1.81 h 2.6 c 1,0 1.8,-0.81 1.8,-1.81 v -4.97 h 4.98 c 0.99,0 1.81,-0.82 1.81,-1.81 v -2.6 c 0,-1 -0.82,-1.8 -1.81,-1.8 h -4.98 v -4.98 c 0,-1 -0.8,-1.81 -1.8,-1.81"
         id="path1943" />
    </clipPath>
    <radialGradient
       fx="0"
       fy="0"
       cx="0"
       cy="0"
       r="1"
       gradientUnits="userSpaceOnUse"
       gradientTransform="matrix(9.89014,0,0,-9.89014,2804.86,3854.77)"
       spreadMethod="pad"
       id="radialGradient1951">
      <stop
         style="stop-opacity:1;stop-color:#697d95"
         offset="0"
         id="stop1947" />
      <stop
         style="stop-opacity:1;stop-color:#667a93"
         offset="1"
         id="stop1949" />
    </radialGradient>
    <clipPath
       clipPathUnits="userSpaceOnUse"
       id="clipPath1965">
      <path
         d="m 2570.5,3805.66 h -3.41 c -1.28,0 -2.34,1.05 -2.34,2.34 v 6.49 h -6.49 c -1.3,0 -2.36,1.07 -2.36,2.37 v 3.39 c 0,1.31 1.06,2.37 2.36,2.37 h 6.49 v 2.45 l 8.12,0.17 v -2.62 h 6.48 c 1.3,0 2.35,-1.06 2.35,-2.37 v -3.39 c 0,-1.3 -1.05,-2.37 -2.35,-2.37 h -6.48 V 3808 c 0,-1.29 -1.06,-2.34 -2.37,-2.34"
         id="path1963" />
    </clipPath>
    <radialGradient
       fx="0"
       fy="0"
       cx="0"
       cy="0"
       r="1"
       gradientUnits="userSpaceOnUse"
       gradientTransform="matrix(0,12.8955,12.8955,0,2568.8,3818.56)"
       spreadMethod="pad"
       id="radialGradient1971">
      <stop
         style="stop-opacity:1;stop-color:#697d95"
         offset="0"
         id="stop1967" />
      <stop
         style="stop-opacity:1;stop-color:#667a93"
         offset="1"
         id="stop1969" />
    </radialGradient>
    <clipPath
       clipPathUnits="userSpaceOnUse"
       id="clipPath1991">
      <path
         d="m 2564.75,3825.07 v 4.03 c 0,1.29 1.06,2.35 2.34,2.35 h 3.41 c 1.31,0 2.37,-1.06 2.37,-2.35 v -3.86 l -8.12,-0.17"
         id="path1989" />
    </clipPath>
    <radialGradient
       fx="0"
       fy="0"
       cx="0"
       cy="0"
       r="1"
       gradientUnits="userSpaceOnUse"
       gradientTransform="matrix(0,12.8955,12.8955,0,2568.8,3818.56)"
       spreadMethod="pad"
       id="radialGradient1997">
      <stop
         style="stop-opacity:1;stop-color:#5f738d"
         offset="0"
         id="stop1993" />
      <stop
         style="stop-opacity:1;stop-color:#5d718b"
         offset="1"
         id="stop1995" />
    </radialGradient>
  </defs>
  <g
     id="g1337"
     transform="matrix(1.3333333,0,0,-1.3333333,-303.91199,577.50132)">
    <g
       id="g1339"
       transform="scale(0.1)">
      <path
         d="m 3276.84,3832.95 c 0,-275.6891 -223.4907,-499.19 -499.1798,-499.19 -275.6993,0 -499.2002,223.5009 -499.2002,499.19 0,275.6993 223.5009,499.19 499.2002,499.19 275.6891,0 499.1798,-223.4907 499.1798,-499.19"
         style="fill:#1e9cf1;fill-opacity:1;fill-rule:nonzero;stroke:none;stroke-width:23.0604;stroke-dasharray:none;stroke-opacity:1"
         id="path1895" />
      <path
         d="m 2818.3182,3723.8489 v -93.6045 c 0,-73.7726 -59.9979,-133.7501 -133.75,-133.7501 -73.7522,0 -133.7398,59.9775 -133.7398,133.7501 v 192.3131 c 4.4481,-0.8097 8.9781,-1.1787 13.6312,-1.1787 4.0381,0 8.025,0.3177 11.8991,0.8712 v -192.0056 c 0,-59.6905 48.5498,-108.2299 108.2095,-108.2299 59.6699,0 108.2299,48.5394 108.2299,108.2299 v 93.6045 h 25.5201"
         style="fill:#f25d19;fill-opacity:1;fill-rule:nonzero;stroke:none;stroke-width:1.0249"
         id="path1897" />
      <path
         d="m 2584.9782,3637.7364 h 441.0974 v 441.1138 h -441.0974 z"
         style="fill:#fcfcfd;fill-opacity:1;fill-rule:nonzero;stroke:none;stroke-width:1.0249"
         id="path1899" />
      <path
         d="m 2963.8752,3699.8969 h -38.1265 l -0.041,0.051 h 38.1572 v 316.675 h 0.01 v -316.7262 m -10.2081,10.2593 h -38.1674 l -55.6421,55.6421 c -15.9373,-9.4394 -34.5085,-14.7997 -54.3199,-14.7997 -12.2989,0 -24.1058,2.0601 -35.103,5.8625 v 0 c 10.9972,-3.8024 22.8041,-5.8625 35.103,-5.8625 19.8114,0 38.3826,5.3603 54.3199,14.7997 15.3018,8.9269 28.1746,21.5947 37.3475,36.7018 8.025,13.17 13.293,28.1746 15.0149,44.2554 0.4099,3.7819 0.6252,7.656 0.6252,11.5404 0,3.8741 -0.2153,7.7585 -0.6252,11.5302 -1.7219,16.0807 -6.9899,31.0751 -15.0149,44.2553 -4.4583,7.3179 -9.7673,14.0515 -15.804,20.0882 l 72.2455,72.2455 h 0.021 V 3710.156 m 72.4198,368.6889 h -0.01 v 0.01"
         style="fill:#e7ebee;fill-opacity:1;fill-rule:nonzero;stroke:none;stroke-width:1.0249"
         id="path1901" />
      <path
         d="m 2655.3276,3906.4152 c -1.4143,0.5944 -2.9004,1.0761 -4.4378,1.4246 1.5374,-0.3382 3.0132,-0.8199 4.4378,-1.4246 m 2.0908,61.8222 -10.208,10.208 v 38.1777 h 316.6443 l -10.2081,-10.208 h -296.2282 v -38.1777"
         style="fill:#97a0a8;fill-opacity:1;fill-rule:nonzero;stroke:none;stroke-width:1.0249"
         id="path1903" />
      <path
         d="m 2963.8649,3699.9481 h -38.1572 l -0.01,0.01 -10.1978,10.1978 h 38.1674 v 296.2589 h -0.021 l 10.2081,10.208 h 0.01 v -316.675"
         style="fill:#8994a0;fill-opacity:1;fill-rule:nonzero;stroke:none;stroke-width:1.0249"
         id="path1905" />
      <path
         d="m 2963.8752,3699.8969 h -316.6648 v 316.7262 h 316.6648 v -316.7262 m -378.897,378.9482 v -441.1189 h 441.1087 v 441.1189 h -441.1087"
         style="fill:#dee8e5;fill-opacity:1;fill-rule:nonzero;stroke:none;stroke-width:1.0249"
         id="path1907" />
      <path
         d="m 2912.8452,3858.2959 c 0,-3.8844 -0.2153,-7.7585 -0.6252,-11.5404 -1.7219,-16.0808 -6.9899,-31.0854 -15.0149,-44.2554 -9.1729,-15.1071 -22.0457,-27.7749 -37.3475,-36.7018 -15.9373,-9.4394 -34.5085,-14.7997 -54.3199,-14.7997 -38.5877,0 -72.3686,20.3136 -91.2678,50.8865 -8.2505,13.3238 -13.662,28.5231 -15.4043,44.8704 -0.41,3.7819 -0.6252,7.656 -0.6252,11.5404 0,3.8741 0.2152,7.7585 0.6252,11.5302 1.6296,15.4555 6.5696,29.9579 14.1744,42.7692 l 1.2299,2.1011 c 18.8992,30.5729 52.6801,50.8865 91.2678,50.8865 38.8336,0 72.8502,-20.6313 91.6674,-51.5015 8.025,-13.1802 13.293,-28.1746 15.0149,-44.2553 0.4099,-3.7717 0.6252,-7.6561 0.6252,-11.5302"
         style="fill:#c2cdca;fill-opacity:1;fill-rule:nonzero;stroke:none;stroke-width:1.0249"
         id="path1909" />
      <path
         d="m 2713.0093,3912.6363 -0.1025,0.1025 c 0.3894,0.656 0.7892,1.3119 1.1889,1.9576 18.8787,30.5729 52.6801,50.8865 91.2677,50.8865 1.0249,0 2.0498,-0.01 3.0645,-0.041 -0.9634,0.031 -1.9268,0.041 -2.8902,0.041 -38.5877,0 -72.3686,-20.3136 -91.2678,-50.8865 l -0.01,-0.041 v 0.041 0 c -0.4305,-0.6867 -0.8405,-1.3734 -1.2504,-2.0601"
         style="fill:#c8d2da;fill-opacity:1;fill-rule:nonzero;stroke:none;stroke-width:1.0249"
         id="path1911" />
      <path
         d="m 2770.4347,3756.8611 c -23.5011,8.1275 -43.2817,24.198 -56.1648,45.024 0,0.01 -0.01,0.021 -0.01,0.031 v 14.8816 0 29.958 h -15.3941 v 0 c -0.41,3.7819 -0.6252,7.656 -0.6252,11.5404 0,3.8741 0.2152,7.7585 0.6252,11.5302 v 0 h 9.7263 v 0 h 5.6678 v 20.6723 0 24.157 l 0.01,0.041 c 18.8992,30.5729 52.6801,50.8865 91.2678,50.8865 0.9634,0 1.9268,-0.01 2.8902,-0.041 37.5525,-1.0454 70.2777,-21.3898 88.603,-51.4605 0.051,-0.082 0.1025,-0.1639 0.1537,-0.2562 v -10.1158 c -17.3926,16.3062 -40.7707,26.2991 -66.4548,26.2991 -34.9697,0 -65.5426,-18.3663 -82.5868,-46.0388 -7.5023,-12.0426 -12.4218,-25.7763 -13.9797,-40.5759 -0.3792,-3.4232 -0.5227,-6.9386 -0.5227,-10.4643 0,-3.4642 0.1435,-6.9898 0.5227,-10.413 1.5579,-14.7996 6.4774,-28.5231 13.9797,-40.576 5.9034,-9.6239 13.498,-18.1306 22.2917,-25.0794"
         style="fill:#97a8b0;fill-opacity:1;fill-rule:nonzero;stroke:none;stroke-width:1.0249"
         id="path1913" />
      <path
         d="m 2912.2097,3869.8261 h -15.0251 v 44.2553 c 8.025,-13.1802 13.293,-28.1746 15.0251,-44.2553"
         style="fill:#f5f5f5;fill-opacity:1;fill-rule:nonzero;stroke:none;stroke-width:1.0249"
         id="path1915" />
      <path
         d="m 2912.2097,3846.7555 c -1.7321,-16.0808 -7.0001,-31.0854 -15.0251,-44.2554 v 44.2554 h 15.0251"
         style="fill:#f5f5f5;fill-opacity:1;fill-rule:nonzero;stroke:none;stroke-width:1.0249"
         id="path1917" />
      <path
         d="m 2714.2597,3914.6964 v -44.8703 h -15.4044 c 1.7424,16.3369 7.1334,31.5465 15.4044,44.8703"
         style="fill:#f5f5f5;fill-opacity:1;fill-rule:nonzero;stroke:none;stroke-width:1.0249"
         id="path1919" />
      <path
         d="m 2714.2597,3846.7555 v -44.8601 c -8.271,13.3238 -13.662,28.5333 -15.4044,44.8601 h 15.4044"
         style="fill:#f5f5f5;fill-opacity:1;fill-rule:nonzero;stroke:none;stroke-width:1.0249"
         id="path1921" />
      <path
         d="m 2912.2097,3869.8261 h -3.0132 c -1.9268,12.2066 -6.0674,23.7368 -12.0119,34.0473 v 10.208 c 8.025,-13.1802 13.293,-28.1746 15.0251,-44.2553"
         style="fill:#c1c9d2;fill-opacity:1;fill-rule:nonzero;stroke:none;stroke-width:1.0249"
         id="path1923" />
      <path
         d="m 2708.5919,3869.8261 h -9.7263 c 1.6296,15.4555 6.5696,29.9579 14.1744,42.7692 l -0.031,0.041 c 0.4099,0.6867 0.8199,1.3734 1.2504,2.0601 v -24.198 c -2.6545,-6.5901 -4.5404,-13.5287 -5.6678,-20.6723"
         style="fill:#c1c9d2;fill-opacity:1;fill-rule:nonzero;stroke:none;stroke-width:1.0249"
         id="path1925" />
      <path
         d="m 2714.2597,3801.9159 c -8.2505,13.3135 -13.662,28.5128 -15.3941,44.8396 v 0 h 8.7014 c 0.072,-1.3734 0.1743,-2.7058 0.3075,-4.0279 0.9839,-9.0909 3.126,-17.7616 6.3852,-25.9301 v -14.8816"
         style="fill:#c1c9d2;fill-opacity:1;fill-rule:nonzero;stroke:none;stroke-width:1.0249"
         id="path1927" />
      <path
         d="m 2813.7061,3930.3364 h -17.2286 v 29.0253 h 17.2286 v -29.0253"
         style="fill:#ba821c;fill-opacity:1;fill-rule:nonzero;stroke:none;stroke-width:1.0249"
         id="path1929" />
      <path
         d="m 2796.7952,3757.1071 h 17.2352 v 29.0256 h -17.2352 z"
         style="fill:#ba821c;fill-opacity:1;fill-rule:nonzero;stroke:none;stroke-width:1.0249"
         id="path1931" />
      <path
         d="m 2772.9867,3858.2959 c 0,-8.9167 -7.2358,-16.1628 -16.1628,-16.1628 -8.9269,0 -16.1627,7.2461 -16.1627,16.1628 0,8.9269 7.2358,16.1627 16.1627,16.1627 8.927,0 16.1628,-7.2358 16.1628,-16.1627"
         style="fill:#434b57;fill-opacity:1;fill-rule:nonzero;stroke:none;stroke-width:1.0249"
         id="path1933" />
      <path
         d="m 2870.8241,3858.2959 c 0,-8.9167 -7.2461,-16.1628 -16.173,-16.1628 -8.9167,0 -16.1525,7.2461 -16.1525,16.1628 0,8.9269 7.2358,16.1627 16.1525,16.1627 8.9269,0 16.173,-7.2358 16.173,-16.1627"
         style="fill:#434b57;fill-opacity:1;fill-rule:nonzero;stroke:none;stroke-width:1.0249"
         id="path1935" />
      <path
         d="m 2820.0503,3855.3237 c 0,-8.025 -6.4979,-14.5332 -14.5229,-14.5332 -8.0045,0 -14.5024,6.5082 -14.5024,14.5332 0,7.9942 6.4979,14.5024 14.5024,14.5024 8.025,0 14.5229,-6.5082 14.5229,-14.5024"
         style="fill:#8799ac;fill-opacity:1;fill-rule:nonzero;stroke:none;stroke-width:1.0249"
         id="path1937" />
      <g
         id="g1939"
         transform="matrix(1.0249045,0,0,1.0249045,-69.176105,-95.45787)">
        <g
           id="g1941"
           clip-path="url(#clipPath1945)">
          <path
             d="m 2806.16,3844.88 h -2.6 c -0.99,0 -1.82,0.81 -1.82,1.81 v 4.98 h -4.97 c -0.98,0 -1.8,0.8 -1.8,1.8 v 2.6 c 0,0.99 0.82,1.81 1.8,1.81 h 4.97 v 4.97 c 0,1 0.83,1.81 1.82,1.81 h 2.6 c 1,0 1.8,-0.81 1.8,-1.81 v -4.97 h 4.98 c 0.99,0 1.81,-0.82 1.81,-1.81 v -2.6 c 0,-1 -0.82,-1.8 -1.81,-1.8 h -4.98 v -4.98 c 0,-1 -0.8,-1.81 -1.8,-1.81"
             style="fill:url(#radialGradient1951);fill-opacity:1;fill-rule:nonzero;stroke:none"
             id="path1953" />
        </g>
      </g>
      <path
         d="m 2646.8517,3908.4342 v -98.1551 c 0,-38.3827 -26.2991,-70.6877 -61.8735,-79.7683 -2.8082,-0.7687 -5.7087,-1.3324 -8.6195,-1.7423 -3.8741,-0.574 -7.861,-0.8712 -11.8991,-0.8712 -4.6531,0 -9.1831,0.3485 -13.6312,1.1581 -17.3004,2.8185 -32.8687,11.0895 -44.7166,22.9271 -14.8919,14.9124 -24.0955,35.5335 -24.0955,58.2966 v 98.2064 h 162.9291 l 1.9063,-0.051"
         style="fill:#dee8e5;fill-opacity:1;fill-rule:nonzero;stroke:none;stroke-width:1.0249"
         id="path1955" />
      <path
         d="m 2563.6089,3837.1214 c 10.4438,0 18.9403,-8.4658 18.9403,-18.93 0,-10.4541 -8.4965,-18.9403 -18.9403,-18.9403 -10.4642,0 -18.9402,8.4862 -18.9402,18.9403 0,10.4642 8.476,18.93 18.9402,18.93"
         style="fill:#8799ac;fill-opacity:1;fill-rule:nonzero;stroke:none;stroke-width:1.0249"
         id="path1957" />
      <g
         id="g1959"
         transform="matrix(1.0249045,0,0,1.0249045,-69.176105,-95.45787)">
        <g
           id="g1961"
           clip-path="url(#clipPath1965)">
          <path
             d="m 2570.5,3805.66 h -3.41 c -1.28,0 -2.34,1.05 -2.34,2.34 v 6.49 h -6.49 c -1.3,0 -2.36,1.07 -2.36,2.37 v 3.39 c 0,1.31 1.06,2.37 2.36,2.37 h 6.49 v 2.45 l 8.12,0.17 v -2.62 h 6.48 c 1.3,0 2.35,-1.06 2.35,-2.37 v -3.39 c 0,-1.3 -1.05,-2.37 -2.35,-2.37 h -6.48 V 3808 c 0,-1.29 -1.06,-2.34 -2.37,-2.34"
             style="fill:url(#radialGradient1971);fill-opacity:1;fill-rule:nonzero;stroke:none"
             id="path1973" />
        </g>
      </g>
      <path
         d="m 2518.2467,4011.7548 c 6.6618,0 12.0528,-5.4114 12.0528,-12.0631 v -105.9956 c 0,-6.6619 -5.391,-12.0631 -12.0528,-12.0631 -6.6824,0 -12.0734,5.4012 -12.0734,12.0631 v 105.9956 c 0,6.6517 5.391,12.0631 12.0734,12.0631"
         style="fill:#6d516e;fill-opacity:1;fill-rule:nonzero;stroke:none;stroke-width:1.0249"
         id="path1975" />
      <path
         d="m 2608.9712,4011.7548 c 6.6721,0 12.0631,-5.4114 12.0631,-12.0631 v -105.9956 c 0,-6.6619 -5.391,-12.0631 -12.0631,-12.0631 -6.6516,0 -12.0631,5.4012 -12.0631,12.0631 v 105.9956 c 0,6.6517 5.4115,12.0631 12.0631,12.0631"
         style="fill:#6d516e;fill-opacity:1;fill-rule:nonzero;stroke:none;stroke-width:1.0249"
         id="path1977" />
      <path
         d="m 2482.0163,3908.4957 h 162.9701 l 1.8653,-0.061 c 13.9797,-1.0044 24.9667,-12.6576 24.9667,-26.8422 0,-7.3998 -2.9928,-14.113 -7.8508,-18.9813 -4.4583,-4.4583 -10.4643,-7.328 -17.1159,-7.7995 l -1.8653,-0.062 h -162.9701 c -14.7894,0.1333 -26.6168,12.1246 -26.6168,26.8423 0,7.3998 2.9825,14.1846 7.8405,19.0427 4.7863,4.7965 11.4585,7.7995 18.7763,7.861"
         style="fill:#fcfcfd;fill-opacity:1;fill-rule:nonzero;stroke:none;stroke-width:1.0249"
         id="path1979" />
      <path
         d="m 2482.0163,3823.2544 v 31.4338 h 162.9701 l 1.8653,0.061 v -28.0414 l -65.6964,-1.3733 c -2.8185,6.9181 -9.6239,11.7864 -17.5464,11.7864 -8.2197,0 -15.2095,-5.2168 -17.8333,-12.5346 l -63.7593,-1.3324"
         style="fill:#cad8d8;fill-opacity:1;fill-rule:nonzero;stroke:none;stroke-width:1.0249"
         id="path1981" />
      <path
         d="m 2545.7756,3824.5868 c 2.6238,7.3178 9.6136,12.5346 17.8333,12.5346 7.9225,0 14.7279,-4.8683 17.5464,-11.7864 l -13.3853,-0.287 v 3.9561 c 0,1.3221 -1.0864,2.4085 -2.429,2.4085 h -3.4949 c -1.3119,0 -2.3983,-1.0864 -2.3983,-2.4085 v -4.1303 l -13.6722,-0.287"
         style="fill:#798ea3;fill-opacity:1;fill-rule:nonzero;stroke:none;stroke-width:1.0249"
         id="path1983" />
      <g
         id="g1985"
         transform="matrix(1.0249045,0,0,1.0249045,-69.176105,-95.45787)">
        <g
           id="g1987"
           clip-path="url(#clipPath1991)">
          <path
             d="m 2564.75,3825.07 v 4.03 c 0,1.29 1.06,2.35 2.34,2.35 h 3.41 c 1.31,0 2.37,-1.06 2.37,-2.35 v -3.86 l -8.12,-0.17"
             style="fill:url(#radialGradient1997);fill-opacity:1;fill-rule:nonzero;stroke:none"
             id="path1999" />
        </g>
      </g>
      <path
         d="m 2657.4184,3710.1767 v 147.6272 c 2.4188,1.2607 4.6326,2.8903 6.5492,4.8068 4.858,4.8683 7.8508,11.5815 7.8508,18.9813 0,10.3413 -5.8318,19.3297 -14.4,23.829 v 62.8164 l 0.01,-0.01 55.4781,-55.4884 c -7.5946,-12.842 -12.5756,-27.3752 -14.2257,-42.9025 -0.41,-3.7819 -0.6047,-7.656 -0.6047,-11.5302 0,-3.8843 0.1947,-7.7585 0.6047,-11.5404 1.7321,-16.337 7.1436,-31.5363 15.4146,-44.8703 4.3968,-7.1128 9.6033,-13.6722 15.4863,-19.5449 l -72.1636,-72.1738"
         style="fill:#d7cdc4;fill-opacity:1;fill-rule:nonzero;stroke:none;stroke-width:1.0249"
         id="path2001" />
      <path
         d="m 2925.7487,3699.8969 h -278.5383 v 0.051 h 278.4973 l 0.041,-0.051 m -10.249,10.2593 h -258.0813 v 0.021 l 72.1636,72.1738 c 11.3969,-11.3867 25.3254,-20.2112 40.9039,-25.5304 -0.021,0.01 -0.031,0.031 -0.051,0.041 10.9972,-3.8024 22.8041,-5.8625 35.103,-5.8625 19.8114,0 38.3826,5.3603 54.3199,14.7997 l 55.6421,-55.6421"
         style="fill:#c3bbb8;fill-opacity:1;fill-rule:nonzero;stroke:none;stroke-width:1.0249"
         id="path2003" />
      <path
         d="m 2647.2104,3699.9686 v 154.8631 c 3.6487,0.3075 7.1026,1.3426 10.208,2.9722 v -147.6272 l -10.208,-10.2081 m 10.208,205.4524 c -0.6866,0.3587 -1.3733,0.6969 -2.0908,0.9942 -1.4246,0.6047 -2.9004,1.0864 -4.4378,1.4246 -1.1991,0.2767 -2.429,0.4612 -3.6794,0.5637 v 70.0419 l 10.208,-10.208 v -62.8164"
         style="fill:#7f8185;fill-opacity:1;fill-rule:nonzero;stroke:none;stroke-width:1.0249"
         id="path2005" />
      <path
         d="m 2925.7077,3699.9481 h -278.4973 v 0.021 l 10.208,10.2081 v -0.021 h 258.0813 l 10.1978,-10.1978 0.01,-0.01"
         style="fill:#72777e;fill-opacity:1;fill-rule:nonzero;stroke:none;stroke-width:1.0249"
         id="path2007" />
      <path
         d="m 2987.9297,3637.7262 h -402.9515 l 0.01,92.7538 c 9.7469,2.5008 18.7865,6.7439 26.7808,12.3604 6.6106,4.6428 12.5038,10.2285 17.4849,16.5624 11.0279,14.0105 17.5976,31.6696 17.5976,50.8558 v 44.5526 c 0.123,0.01 0.2357,0.01 0.3587,0.021 v -154.8631 -0.021 -0.051 h 278.5383 l 62.181,-62.1707 m -340.7193,270.6773 c -0.123,0.021 -0.2357,0.021 -0.3587,0.031 v 0 l -1.0557,0.041 -0.8506,0.041 h -23.9111 v 91.1755 c 0,2.675 -0.8814,5.1655 -2.3572,7.1641 -0.1333,0.1845 -0.2768,0.3587 -0.4203,0.533 l 28.9536,-28.9434 v -70.0419"
         style="fill:#bbbab0;fill-opacity:1;fill-rule:nonzero;stroke:none;stroke-width:1.0249"
         id="path2009" />
      <path
         d="m 2729.582,3782.3505 c -5.883,5.8727 -11.0895,12.4321 -15.4863,19.5449 -8.271,13.334 -13.6825,28.5333 -15.4146,44.8703 -0.41,3.7819 -0.6047,7.6561 -0.6047,11.5404 0,3.8742 0.1947,7.7483 0.6047,11.5302 1.6501,15.5273 6.6311,30.0605 14.2257,42.9025 l 0.1025,-0.1025 c -7.5638,-12.8215 -12.5039,-27.3137 -14.154,-42.8102 v 0 0 h 0.01 c -0.41,-3.7717 -0.6252,-7.6561 -0.6252,-11.5302 v 0 0 c 0,-3.8844 0.2152,-7.7585 0.6252,-11.5404 h -0.01 v 0 c 1.7424,-16.3268 7.1334,-31.5363 15.4044,-44.8601 v 0.021 c 0,-0.01 0.01,-0.021 0.01,-0.031 4.3763,-7.082 9.5521,-13.6004 15.3941,-19.4526 l -0.082,-0.082"
         style="fill:#a8a8a9;fill-opacity:1;fill-rule:nonzero;stroke:none;stroke-width:1.0249"
         id="path2011" />
      <path
         d="m 2770.4859,3756.8201 c -15.5785,5.3192 -29.507,14.1437 -40.9039,25.5304 l 0.082,0.082 c 11.3559,-11.3765 25.2536,-20.2009 40.7707,-25.5714 0.021,-0.01 0.031,-0.031 0.051,-0.041"
         style="fill:#969aa0;fill-opacity:1;fill-rule:nonzero;stroke:none;stroke-width:1.0249"
         id="path2013" />
      <path
         d="m 2698.8656,3869.8261 v 0 h -0.01 c 1.6501,15.4965 6.5902,29.9887 14.154,42.8102 l 0.031,-0.041 c -7.6048,-12.8113 -12.5448,-27.3137 -14.1744,-42.7692"
         style="fill:#a1a1a2;fill-opacity:1;fill-rule:nonzero;stroke:none;stroke-width:1.0249"
         id="path2015" />
      <path
         d="m 2714.2597,3801.8954 c -8.271,13.3238 -13.662,28.5333 -15.4044,44.8601 h 0.01 v 0 c 1.7321,-16.3268 7.1436,-31.5261 15.3941,-44.8396 v -0.021"
         style="fill:#a1a1a2;fill-opacity:1;fill-rule:nonzero;stroke:none;stroke-width:1.0249"
         id="path2017" />
      <path
         d="m 2611.7692,3742.8404 c 6.6106,4.6428 12.5038,10.2285 17.4849,16.5624 -4.9811,-6.3339 -10.8743,-11.9196 -17.4849,-16.5624"
         style="fill:#bbbab0;fill-opacity:1;fill-rule:nonzero;stroke:none;stroke-width:1.0249"
         id="path2019" />
      <path
         d="m 2621.0343,3908.5162 h -0.02 v 91.155 c 0,2.675 -0.8609,5.1655 -2.3367,7.1846 1.4758,-1.9986 2.3572,-4.4891 2.3572,-7.1641 v -91.1755"
         style="fill:#5c4254;fill-opacity:1;fill-rule:nonzero;stroke:none;stroke-width:1.0249"
         id="path2021" />
      <path
         d="m 2646.8517,3854.8112 v 0.01 l 0.3587,0.051 c 3.6692,0.246 7.0923,1.3324 10.2183,2.962 2.3778,1.2299 4.6326,2.839 6.5081,4.7965 4.8991,4.8478 7.8713,11.5712 7.8713,18.9915 0,10.3106 -5.8112,19.2785 -14.3794,23.7778 -0.6867,0.369 -1.3836,0.7072 -2.1011,1.0147 0.7175,-0.2973 1.4042,-0.6355 2.0908,-0.9942 8.5682,-4.4993 14.4,-13.4877 14.4,-23.829 0,-7.3998 -2.9928,-14.113 -7.8508,-18.9813 -1.9166,-1.9165 -4.1304,-3.5461 -6.5492,-4.8068 -3.1054,-1.6296 -6.5593,-2.6647 -10.208,-2.9722 -0.123,-0.01 -0.2357,-0.01 -0.3587,-0.021 m 4.0381,53.0286 c -1.1991,0.2562 -2.429,0.4407 -3.6794,0.5329 l -0.3587,0.031 -0.9839,0.062 -0.072,0.01 1.0557,-0.041 c 0.123,-0.01 0.2357,-0.01 0.3587,-0.031 1.2504,-0.1025 2.4803,-0.287 3.6794,-0.5637"
         style="fill:#d7cdc4;fill-opacity:1;fill-rule:nonzero;stroke:none;stroke-width:1.0249"
         id="path2023" />
      <path
         d="m 2596.8773,3908.5162 h -11.8889 v 41.2934 l -0.01,0.01 v 0.1332 l 11.8991,-11.8889 v -29.548"
         style="fill:#bbbab0;fill-opacity:1;fill-rule:nonzero;stroke:none;stroke-width:1.0249"
         id="path2025" />
      <path
         d="m 2792.2344,3333.9445 -0.02,0.021 c 174.0595,4.981 325.7864,99.057 411.2019,238.239 -85.3745,-139.182 -237.1116,-233.258 -411.1814,-238.2595"
         style="fill:#ddc598;fill-opacity:1;fill-rule:nonzero;stroke:none;stroke-width:1.0249"
         id="path2027" />
      <path
         d="m 2792.2139,3385.2908 -195.3366,144.0005 c 19.5655,-16.9827 44.0914,-28.4309 71.1079,-31.7721 0.072,-0.01 0.1537,-0.021 0.2357,-0.031 0.031,-0.01 0.072,-0.01 0.1025,-0.01 5.3295,-0.6456 10.7513,-0.9839 16.2448,-0.9839 73.7521,0 133.75,59.9775 133.75,133.7501 v 7.4818 h 207.7994 v 441.1189 l 216.6103,-254.7186 c -0.8199,-93.748 -75.1863,-141.6694 -120.9483,-216.2824 -85.4155,-139.1821 -203.2802,-144.0883 -323.9862,-232.7702"
         style="fill:#1e9cf1;fill-opacity:1;fill-rule:nonzero;stroke:none;stroke-width:1.0249"
         id="path2029" />
      <path
         d="m 2684.5682,3496.4943 c -5.4935,0 -10.9153,0.3383 -16.2448,0.9839 5.309,-0.6456 10.7103,-0.9839 16.1935,-0.9839 73.7829,0 133.7398,59.957 133.7398,133.7501 v 7.4818 h 0.062 v -7.4818 c 0,-73.7726 -59.9979,-133.7501 -133.75,-133.7501 m -16.3473,0.9942 c -0.082,0.01 -0.1639,0.021 -0.2357,0.031 0.072,-0.01 0.1537,-0.021 0.2357,-0.031"
         style="fill:#d9491f;fill-opacity:1;fill-rule:nonzero;stroke:none;stroke-width:1.0249"
         id="path2031" />
      <path
         d="m 2684.5477,3522.0145 c -41.0167,0.01 -76.7756,22.9476 -95.1214,56.6874 -8.312,15.3326 -13.0471,32.879 -13.0471,51.5425 v 98.4933 c 2.88,0.41 5.7395,0.9224 8.599,1.7321 v -92.7334 -0.01 0.01 -0.01 h 0.01 207.7482 v -7.4818 c 0,-32.0898 -13.9695,-60.9203 -36.1689,-80.742 -9.5213,-8.4965 -20.5391,-15.3428 -32.6227,-20.0779 -0.01,0 -0.031,-0.01 -0.051,-0.01 -0.031,-0.021 -0.061,-0.031 -0.092,-0.041 -12.1759,-4.7453 -25.4074,-7.3588 -39.2538,-7.3588"
         style="fill:#1e9cf1;fill-opacity:1;fill-rule:nonzero;stroke:none;stroke-width:1.0249"
         id="path2033" />
      <path
         d="m 2684.5169,3522.0145 c -41.0269,0 -76.7653,22.9373 -95.0906,56.6874 18.3458,-33.7398 54.1047,-56.6772 95.1214,-56.6874 -0.01,0 -0.021,0 -0.031,0 m 39.2846,7.3588 c 0.031,0.01 0.061,0.02 0.092,0.041 -0.031,-0.021 -0.061,-0.031 -0.092,-0.041 m 0.1435,0.051 c 12.0836,4.7351 23.1014,11.5814 32.6227,20.0779 -9.5111,-8.4965 -20.5391,-15.3428 -32.6227,-20.0779"
         style="fill:#d9491f;fill-opacity:1;fill-rule:nonzero;stroke:none;stroke-width:1.0249"
         id="path2035" />
      <path
         d="m 2584.9782,3637.7262 v 0 92.7436 c 0.01,0.01 0.01,0.01 0.01,0.01 v 0 c 0,-0.01 0,-0.01 -0.01,-0.01 v -92.7436"
         style="fill:#bcb288;fill-opacity:1;fill-rule:nonzero;stroke:none;stroke-width:1.0249"
         id="path2037" />
      <path
         d="m 2584.9782,3637.7262 v 0 92.7436 c 0.01,0 0.01,0 0.01,0.01 v -92.7538"
         style="fill:#a08f6b;fill-opacity:1;fill-rule:nonzero;stroke:none;stroke-width:1.0249"
         id="path2039" />
      <path
         d="m 2584.9782,3908.506 h -54.6787 v 91.1857 c 0,2.5213 -0.7789,4.8683 -2.101,6.8156 l 56.7797,-56.6874 v -41.3139"
         style="fill:#1e9cf1;fill-opacity:1;fill-rule:nonzero;stroke:none;stroke-width:1.0249"
         id="path2041" />
      <path
         d="m 2584.9884,3908.506 h -0.01 v 41.3139 -41.3037 h 0.01 v -0.01"
         style="fill:#bcb288;fill-opacity:1;fill-rule:nonzero;stroke:none;stroke-width:1.0249"
         id="path2043" />
      <path
         d="m 2530.2995,3908.506 h -0.041 v 91.114 c 0,2.7672 -0.9121,5.3295 -2.5622,7.3793 l 0.5022,-0.492 c 1.3221,-1.9473 2.101,-4.2943 2.101,-6.8156 v -91.1857"
         style="fill:#5e3e41;fill-opacity:1;fill-rule:nonzero;stroke:none;stroke-width:1.0249"
         id="path2045" />
      <path
         d="m 2584.9884,3908.5162 h -0.01 v 41.3037 l 0.01,-0.01 v -41.2934"
         style="fill:#a08f6b;fill-opacity:1;fill-rule:nonzero;stroke:none;stroke-width:1.0249"
         id="path2047" />
    </g>
  </g>
</svg>
