<?xml version="1.0" encoding="UTF-8" standalone="no"?>
<!-- Created with Inkscape (http://www.inkscape.org/) -->

<svg
   version="1.1"
   id="svg1329"
   width="133"
   height="132.99998"
   viewBox="0 0 133 132.99999"
   xmlns="http://www.w3.org/2000/svg"
   xmlns:svg="http://www.w3.org/2000/svg">
  <defs
     id="defs1333">
    <linearGradient
       id="linearGradient12516">
      <stop
         style="stop-color:#000000;stop-opacity:1;"
         offset="0"
         id="stop12514" />
    </linearGradient>
    <linearGradient
       id="linearGradient10464">
      <stop
         style="stop-color:#000000;stop-opacity:1;"
         offset="0"
         id="stop10462" />
    </linearGradient>
  </defs>
  <g
     id="g1337"
     transform="matrix(1.3333333,0,0,-1.3333333,-163.20532,436.79598)">
    <g
       id="g1339"
       transform="scale(0.1)">
      <path
         d="m 2221.54,2777.6601 c 0,-275.6937 -223.4964,-499.1901 -499.1901,-499.1901 -275.6835,0 -499.1799,223.4964 -499.1799,499.1901 0,275.6835 223.4964,499.1799 499.1799,499.1799 275.6937,0 499.1901,-223.4964 499.1901,-499.1799"
         style="fill:#1e9cf1;fill-opacity:1;fill-rule:nonzero;stroke:none;stroke-width:23.0599;stroke-dasharray:none;stroke-opacity:1"
         id="path1403" />
      <path
         d="m 1669.7221,2479.3575 c -4.3148,0 -8.7013,0.9634 -12.8315,2.9517 -14.6764,7.1024 -20.8359,24.7406 -13.7232,39.4272 43.8957,90.7945 51.8693,185.9037 23.7055,282.6834 -21.3688,73.3715 -56.6248,120.3726 -56.9733,120.8338 -9.8286,12.975 -7.3381,31.4742 5.6062,41.3438 12.934,9.8594 31.4126,7.4202 41.2925,-5.4934 1.6808,-2.2035 41.3541,-54.575 66.0435,-137.7648 22.8549,-77.02 36.7831,-196.3165 -26.524,-327.2966 -5.1039,-10.5358 -15.6294,-16.6851 -26.5957,-16.6851"
         style="fill:#a0c4c6;fill-opacity:1;fill-rule:nonzero;stroke:none;stroke-width:1.02488"
         id="path1405" />
      <path
         d="m 1625.5804,2914.0721 c 2.4802,-0.6661 5.1141,-1.0248 7.7891,-1.0248 h -7.7891 c -16.3264,0 -31.2897,6.0263 -42.6557,15.9676 -12.8725,11.2328 -21.2458,27.4464 -22.2092,45.6176 -0.041,1.1171 -0.072,2.2035 -0.072,3.3514 0,79.8179 64.9367,105.8192 64.9367,105.8192 v -102.7138 c 0,-2.1625 0.8711,-4.1303 2.2855,-5.5446 1.4143,-1.4246 3.3718,-2.2855 5.5036,-2.2855 -2.675,0 -5.3089,-0.3587 -7.7891,-0.9839 -12.9956,-3.4231 -22.5987,-15.1888 -22.5987,-29.1272 0,-13.9589 9.6031,-25.6938 22.5987,-29.076"
         style="fill:#a0c4c6;fill-opacity:1;fill-rule:nonzero;stroke:none;stroke-width:1.02488"
         id="path1407" />
      <path
         d="m 1706.126,2977.9839 c 0,-1.1479 -0.031,-2.2343 -0.072,-3.3514 -0.9429,-18.1712 -9.3162,-34.3848 -22.1887,-45.6176 -11.366,-9.9311 -26.3293,-15.9676 -42.6557,-15.9676 h -7.8403 c 2.7159,0 5.3601,0.3587 7.8403,1.0248 12.9751,3.3822 22.5372,15.1171 22.5372,29.076 0,13.9487 -9.5621,25.6631 -22.5372,29.0862 -2.4802,0.6662 -5.1244,1.0249 -7.8403,1.0249 4.3352,0 7.8403,3.4948 7.8403,7.8301 v 102.7138 c 0,0 64.9162,-26.0013 64.9162,-105.8192"
         style="fill:#d3e4e1;fill-opacity:1;fill-rule:nonzero;stroke:none;stroke-width:1.02488"
         id="path1409" />
      <path
         d="m 1663.747,2943.1481 c 0,-13.9589 -9.5724,-25.6938 -22.5372,-29.076 -2.4802,-0.6661 -5.1244,-1.0248 -7.8403,-1.0248 -2.675,0 -5.3089,0.3587 -7.7891,1.0248 -12.9956,3.3822 -22.5987,15.1171 -22.5987,29.076 0,13.9384 9.6031,25.7041 22.5987,29.1272 2.4802,0.6252 5.1141,0.9839 7.7891,0.9839 2.7159,0 5.3601,-0.3587 7.8403,-1.0249 12.9648,-3.4231 22.5372,-15.1478 22.5372,-29.0862"
         style="fill:#d3e4e1;fill-opacity:1;fill-rule:nonzero;stroke:none;stroke-width:1.02488"
         id="path1411" />
      <path
         d="m 1597.0271,2479.3575 c -10.9663,0 -21.4918,6.139 -26.5855,16.6851 -63.3378,130.9801 -49.3994,250.2766 -26.5445,327.2966 24.6895,83.1898 64.3627,135.5613 66.0435,137.7648 9.9107,12.9341 28.4406,15.3938 41.3746,5.4832 12.934,-9.9106 15.404,-28.3995 5.5139,-41.3336 -0.6252,-0.8404 -35.6865,-47.7493 -56.9528,-120.8338 -28.1741,-96.7797 -20.2005,-191.8889 23.7158,-282.6834 7.0819,-14.6866 0.9429,-32.3248 -13.7232,-39.4272 -4.1405,-1.9883 -8.5168,-2.9517 -12.8418,-2.9517"
         style="fill:#d3e4e1;fill-opacity:1;fill-rule:nonzero;stroke:none;stroke-width:1.02488"
         id="path1413" />
      <path
         d="m 1556.9439,2882.27 c -2.6339,-6.1698 -5.3089,-12.6778 -7.9121,-19.401 -7.3587,2.7979 -15.4655,16.9105 -11.4172,27.7026 l 19.3293,-8.3016"
         style="fill:#f25d19;fill-opacity:1;fill-rule:nonzero;stroke:none;stroke-width:1.02488"
         id="path1415" />
      <path
         d="m 1613.2818,2475.2375 c -5.1245,-2.4803 -10.6076,-3.7306 -16.2342,-3.7306 -14.2766,0 -27.4976,8.2503 -33.6982,21.0921 -64.4139,133.2759 -50.2398,254.6118 -26.9954,332.9642 3.9458,13.2312 8.2298,25.6528 12.6778,37.3058 2.6032,6.7232 5.2782,13.2312 7.9121,19.401 l 7.2459,-3.0951 54.3086,-23.2239 7.2357,-3.1054 c -6.4875,-14.9223 -12.8623,-31.8841 -18.2942,-50.619 -27.6206,-94.8427 -19.8007,-188.0662 23.2239,-277.0773 8.9575,-18.5504 1.1684,-40.9339 -17.382,-49.9118"
         style="fill:#f25d19;fill-opacity:1;fill-rule:nonzero;stroke:none;stroke-width:1.02488"
         id="path1417" />
      <path
         d="m 1710.8097,2882.27 c 2.6339,-6.1698 5.3089,-12.6778 7.9018,-19.401 7.3792,2.7979 15.4758,16.9105 11.4275,27.7026 l -19.3293,-8.3016"
         style="fill:#f25d19;fill-opacity:1;fill-rule:nonzero;stroke:none;stroke-width:1.02488"
         id="path1419" />
      <path
         d="m 1654.4616,2475.2375 c 5.1551,-2.4803 10.6178,-3.7306 16.2341,-3.7306 14.2869,0 27.5182,8.2503 33.6982,21.0921 64.414,133.2759 50.2603,254.6118 26.9954,332.9642 -3.9458,13.2312 -8.2195,25.6528 -12.6778,37.3058 -2.5929,6.7232 -5.2679,13.2312 -7.9018,19.401 l -7.2357,-3.0951 -54.3086,-23.2239 -7.2562,-3.1054 c 6.4978,-14.9223 12.8931,-31.8841 18.3045,-50.619 27.6308,-94.8427 19.8007,-188.0662 -23.2136,-277.0773 -8.9678,-18.5504 -1.1787,-40.9339 17.3615,-49.9118"
         style="fill:#f25d19;fill-opacity:1;fill-rule:nonzero;stroke:none;stroke-width:1.02488"
         id="path1421" />
      <path
         d="m 1616.7254,2477.1232 v 0.01 c 0.123,0.072 0.2357,0.1435 0.3587,0.2152 l -0.021,-0.01 c -0.1128,-0.072 -0.2255,-0.1435 -0.3382,-0.2153 m 2.6134,1.7833 c 0.6764,0.5022 1.3324,1.0249 1.9678,1.5681 0,0 0,0 -0.01,0 -0.6251,-0.5432 -1.2708,-1.0556 -1.937,-1.5476 0,-0.01 -0.01,-0.01 -0.021,-0.021 m 4.1098,3.5564 c 0.5534,0.5534 1.0864,1.1274 1.5988,1.7115 v 0 c -0.5124,-0.5841 -1.0454,-1.1581 -1.5988,-1.7115 v 0 m 2.8902,3.2591 c 0.7891,1.0044 1.5271,2.0498 2.2035,3.1259 v -0.01 c -0.6764,-1.0762 -1.4144,-2.1113 -2.1933,-3.1054 0,0 -0.01,0 -0.01,-0.01 m 3.1156,4.6325 c 0.4817,0.8404 0.9224,1.7013 1.3324,2.5622 0,0 -0.01,-0.01 -0.01,-0.021 -0.4099,-0.8507 -0.8404,-1.6911 -1.3118,-2.5212 0,-0.01 -0.01,-0.01 -0.01,-0.021"
         style="fill:#3d8cac;fill-opacity:1;fill-rule:nonzero;stroke:none;stroke-width:1.02488"
         id="path1423" />
      <path
         d="m 1616.7254,2477.1335 -0.021,0.021 v 0.123 c -0.01,-0.01 -0.031,-0.021 -0.051,-0.041 l -0.2459,0.4407 -0.1538,0.2357 c -1.0966,1.9575 -4.9194,8.5783 -17.3205,30.1008 l -0.123,0.2563 c -50.6293,98.8807 -51.5107,210.0191 -25.4171,303.837 4.0995,14.7275 13.1082,38.9968 20.2312,54.4623 l 24.8637,-10.6178 7.2254,-3.1464 c -2.2445,-5.1757 -4.4787,-10.5973 -6.672,-16.2444 -4.1303,-10.6486 -8.1171,-22.1477 -11.6632,-34.3951 -27.5591,-94.8017 -19.7802,-188.0662 23.2751,-277.0261 1.6296,-3.3821 2.6545,-6.8667 3.1669,-10.3513 0.02,0.1025 0.031,0.205 0.051,0.3075 0,-0.021 0,-0.051 0.01,-0.072 -0.6867,-4.079 -0.6662,-8.199 0,-12.1961 -0.01,-0.01 -0.01,-0.031 -0.01,-0.041 -0.02,0.1025 -0.031,0.2153 -0.051,0.3177 -0.1947,-1.4348 -0.5124,-2.9721 -0.9224,-4.407 -0.4099,-1.6398 -1.0146,-3.2796 -1.7423,-4.8169 -0.1127,-0.3177 -0.2357,-0.6354 -0.3689,-0.9634 -0.41,-0.8609 -0.8507,-1.7218 -1.3324,-2.5622 -0.1435,-0.2255 -0.2869,-0.451 -0.4509,-0.6764 l -0.4612,-0.8302 c -0.6764,-1.0761 -1.4144,-2.1215 -2.2035,-3.1259 -0.1948,-0.2152 -0.3997,-0.4407 -0.615,-0.6559 -0.2049,-0.2972 -0.4304,-0.5944 -0.6764,-0.8917 -0.5124,-0.5841 -1.0454,-1.1581 -1.5988,-1.7115 -0.369,-0.3485 -0.7379,-0.6764 -1.1069,-0.9839 l -0.3074,-0.3075 c -0.2358,-0.2357 -0.4817,-0.4714 -0.7277,-0.6969 -0.6354,-0.5432 -1.2914,-1.0659 -1.9678,-1.5681 -0.4509,-0.3177 -0.9121,-0.6149 -1.4041,-0.9121 l -0.8506,-0.6457 c -0.123,-0.072 -0.2357,-0.1435 -0.3587,-0.2152"
         style="fill:#d84e1f;fill-opacity:1;fill-rule:nonzero;stroke:none;stroke-width:1.02488"
         id="path1425" />
      <path
         d="m 1633.8819,2502.8273 c -0.6662,3.9971 -0.6867,8.1171 0,12.1961 0.1333,-0.8301 0.246,-1.65 0.328,-2.4802 -0.2357,-2.4187 -0.2357,-4.8374 -0.01,-7.2254 -0.082,-0.8302 -0.1844,-1.6603 -0.3177,-2.4905"
         style="fill:#d84e1f;fill-opacity:1;fill-rule:nonzero;stroke:none;stroke-width:1.02488"
         id="path1427" />
      <path
         d="m 1651.6841,2477.1232 c -10.1463,6.2928 -16.3776,16.8696 -17.4845,28.1946 0.2358,2.388 0.246,4.8067 0.01,7.2254 0.4099,4.2635 1.5681,8.5271 3.5358,12.6061 43.0144,89.0111 50.8445,182.2346 23.2341,277.0773 -5.4421,18.7349 -11.8271,35.6967 -18.3044,50.619 l 7.2255,3.1054 24.8841,10.6178 c 7.123,-15.4655 16.1317,-39.7348 20.221,-54.4623 26.0833,-93.8179 25.2224,-204.9563 -25.4274,-303.837 l -0.1025,-0.2563 c -12.4113,-21.5225 -16.2239,-28.1433 -17.3205,-30.1008 l -0.1537,-0.2357 -0.287,-0.5125 -0.031,-0.041"
         style="fill:#d84e1f;fill-opacity:1;fill-rule:nonzero;stroke:none;stroke-width:1.02488"
         id="path1429" />
      <path
         d="m 1634.1996,2505.3178 c -0.2254,2.388 -0.2254,4.8067 0.01,7.2254 0.2357,-2.4187 0.2255,-4.8374 -0.01,-7.2254"
         style="fill:#bb4120;fill-opacity:1;fill-rule:nonzero;stroke:none;stroke-width:1.02488"
         id="path1431" />
      <path
         d="m 1647.6666,2943.1481 c 0,-6.5695 -4.4992,-12.0936 -10.6075,-13.6822 -1.1787,-0.3075 -2.4188,-0.4817 -3.6896,-0.4817 -1.2606,0 -2.5007,0.1742 -3.6691,0.4817 -6.1083,1.5886 -10.6383,7.1127 -10.6383,13.6822 0,6.5592 4.53,12.1141 10.6383,13.7129 1.1684,0.287 2.4085,0.4612 3.6691,0.4612 1.2708,0 2.5109,-0.1742 3.6896,-0.4714 6.1083,-1.6193 10.6075,-7.1435 10.6075,-13.7027"
         style="fill:#a0c4c6;fill-opacity:1;fill-rule:nonzero;stroke:none;stroke-width:1.02488"
         id="path1433" />
      <path
         d="m 1625.5906,3083.8031 v -96.4825 c -7.3792,2.7467 -12.6471,9.8696 -12.6471,18.2122 v 71.3934 c 7.4714,4.7964 12.6471,6.8769 12.6471,6.8769"
         style="fill:#f5f5f5;fill-opacity:1;fill-rule:nonzero;stroke:none;stroke-width:1.02488"
         id="path1435" />
      <path
         d="m 1641.2201,3083.8031 v -96.4825 c 7.4099,2.7467 12.6675,9.8696 12.6675,18.2122 v 71.3934 c -7.4714,4.7964 -12.6675,6.8769 -12.6675,6.8769"
         style="fill:#f5f5f5;fill-opacity:1;fill-rule:nonzero;stroke:none;stroke-width:1.02488"
         id="path1437" />
      <path
         d="m 1879.2186,2513.4554 c -8.3528,0 -15.1068,6.7744 -15.1068,15.117 0,8.3118 6.754,15.076 15.1068,15.076 8.3118,0 15.0658,-6.7642 15.0658,-15.076 0,-8.3426 -6.754,-15.117 -15.0658,-15.117 m 45.4536,35.7787 -7.7584,177.684 -0.5944,12.6778 -74.0479,-0.041 -0.5637,-12.7496 v -0.082 l -7.6251,-177.5611 -0.9122,-21.2561 c 0,-25.5811 20.6924,-46.2837 46.2428,-46.2427 12.7393,-0.041 24.3205,5.1961 32.6323,13.5387 1.0659,1.1069 2.0395,2.1625 2.9312,3.3104 2.9106,3.4231 5.2371,7.1946 6.9692,11.4479 2.4084,5.5446 3.6281,11.6119 3.6281,17.9457 l -0.9019,21.3279"
         style="fill:#f8ca0c;fill-opacity:1;fill-rule:nonzero;stroke:none;stroke-width:1.02488"
         id="path1439" />
      <path
         d="m 1925.5228,2745.5505 c 0,-4.5505 -3.7203,-8.2708 -8.281,-8.2708 l -75.8927,-0.031 c -4.5505,0.01 -8.2503,3.7203 -8.281,8.3015 l 0.021,4.0381 c -0.021,4.5812 3.6998,8.2503 8.24,8.2708 l 75.8824,0.01 c 4.612,0 8.3118,-3.6691 8.3118,-8.2708 v -4.0483"
         style="fill:#f8ca0c;fill-opacity:1;fill-rule:nonzero;stroke:none;stroke-width:1.02488"
         id="path1441" />
      <path
         d="m 1902.6474,3040.8912 -7.9223,-20.8563 0.082,-262.1448 -31.0232,-0.031 -0.092,262.1447 -7.9326,20.8666 8.978,42.42 28.9017,0.01 9.0087,-42.4097"
         style="fill:#a0c4c6;fill-opacity:1;fill-rule:nonzero;stroke:none;stroke-width:1.02488"
         id="path1443" />
      <path
         d="m 1890.9022,3083.3214 3.7511,-33.7904 c 0.021,-6.4773 -8.9575,-11.6324 -15.486,-11.6222 -6.4875,-0.031 -14.7788,5.4012 -14.7583,11.8784 l 3.0746,33.5035 23.4186,0.031"
         style="fill:#f5f5f5;fill-opacity:1;fill-rule:nonzero;stroke:none;stroke-width:1.02488"
         id="path1445" />
      <path
         d="m 1924.8054,2568.5531 h -90.8457 l 5.1347,119.9626 h 80.4431 l 5.2679,-119.9626"
         style="fill:#f25d19;fill-opacity:1;fill-rule:nonzero;stroke:none;stroke-width:1.02488"
         id="path1447" />
      <path
         d="m 1772.1797,2280.9093 -0.01,0.021 c 135.92,13.4567 255.8007,81.4475 337.4942,181.7836 -81.6628,-100.3361 -201.5537,-168.3372 -337.484,-181.8041 m 337.525,181.8553 c 0.061,0.072 0.1229,0.1538 0.1844,0.2255 -0.061,-0.082 -0.123,-0.1537 -0.1844,-0.2255"
         style="fill:#c8bfc5;fill-opacity:1;fill-rule:nonzero;stroke:none;stroke-width:1.02488"
         id="path1449" />
      <path
         d="m 1772.1695,2348.8155 -200.539,132.643 c 2.1112,-1.9473 4.4377,-3.6383 6.9384,-5.0527 5.5652,-3.1771 11.9194,-4.9707 18.4582,-4.9707 3.7408,0 7.3997,0.5842 10.9253,1.7013 1.814,0.5637 3.5973,1.2607 5.3294,2.1011 1.1888,0.5739 2.3264,1.1991 3.4231,1.8755 v -0.041 l 0.3587,0.2665 c 0.7891,0.5022 1.5578,1.0351 2.2957,1.5885 0.6867,0.4817 1.3324,0.9942 1.937,1.5476 0.7482,0.6354 1.4656,1.3016 2.1523,1.9883 0.5637,0.5329 1.1069,1.1069 1.5988,1.7115 0.451,0.5022 0.8814,1.0249 1.3016,1.5579 0.8199,0.9429 1.4861,1.9472 2.1523,3.0234 l 0.041,0.082 c 0.3177,0.5022 0.6252,1.0146 0.9224,1.5373 0.5124,0.8199 0.9531,1.6705 1.3118,2.5212 1.4656,3.1054 2.5007,6.3953 3.0747,9.7774 0,0.01 0,0.021 0.01,0.031 0,0.031 0,0.051 0.01,0.072 v 0.01 c 1.8243,-11.5607 9.1727,-22.1785 20.5489,-27.5591 5.1244,-2.4597 10.6588,-3.7921 16.2956,-3.7921 10.0849,0 19.6676,4.1611 26.5753,11.1405 2.8696,2.8902 5.2884,6.2621 7.1024,10.0234 64.414,133.2759 50.2603,254.6118 26.9954,332.9642 -3.9355,13.221 -8.2195,25.6426 -12.6675,37.2955 4.1508,1.5681 8.5168,6.7335 10.833,12.8623 0,0.01 0,0.01 0.01,0.021 0.01,0.031 0.021,0.061 0.031,0.1025 0.01,0.01 0.01,0.031 0.02,0.041 0.01,0.031 0.021,0.051 0.021,0.072 0.01,0.031 0.021,0.051 0.031,0.082 0.01,0.01 0.01,0.031 0.021,0.041 l 0.031,0.092 c 0,0.01 0.01,0.021 0.01,0.031 0.01,0.041 0.031,0.082 0.041,0.1127 v 0.01 c 0.2153,0.5944 0.41,1.2093 0.574,1.8243 v 0 l 0.031,0.123 c 0,0 0.01,0.01 0.01,0.021 0.01,0.031 0.021,0.061 0.021,0.1024 0.01,0.01 0.01,0.021 0.01,0.031 l 0.031,0.092 c 0,0.01 0.01,0.031 0.01,0.051 0.01,0.021 0.01,0.041 0.021,0.061 0,0.031 0.01,0.051 0.01,0.082 0.01,0.01 0.01,0.031 0.02,0.041 0,0.031 0.01,0.061 0.02,0.1025 v 0.02 c 0.9532,3.8741 1.0044,7.9531 -0.3587,11.6325 h -0.01 c -0.01,0.021 -0.021,0.041 -0.021,0.062 l -19.3293,-8.3016 c 0,-0.021 0.01,-0.031 0.021,-0.041 v 0 c -0.01,0.01 -0.021,0.021 -0.021,0.041 l -7.2357,-3.0951 -0.8711,-0.369 c -7.9326,18.3762 -16.0087,34.0774 -23.1317,46.6834 1.4144,1.1172 2.8492,2.2343 4.2635,3.4539 6.1493,5.3704 11.2635,11.8682 15.0351,19.1551 3.5666,6.8872 5.9443,14.4816 6.8565,22.5269 0.1537,1.3324 0.2767,2.675 0.3484,4.0278 v 0.451 c 0.031,0.9531 0.051,1.896 0.051,2.8799 0,36.7216 -13.7437,62.0567 -28.584,78.711 l 186.2008,-186.0983 0.041,-112.7372 h -22.4552 c -3.3206,-0.01 -6.1903,-1.9781 -7.5021,-4.817 -0.492,-1.0454 -0.7584,-2.224 -0.7584,-3.4538 v -4.0996 c 0,-4.5095 3.6793,-8.3015 8.2913,-8.3015 h 0.8096 l -0.1332,-2.9312 -0.369,-7.5226 -1.6398,-38.218 h -0.9326 l -5.1347,-119.9626 h 0.031 l -0.01,-0.062 h 0.9224 l -0.3485,-8.24 -0.4714,-11.0893 -0.369,-8.6603 -0.5534,-12.5958 c 0,-25.6221 20.7026,-46.3247 46.2222,-46.3247 7.9326,0 15.4348,2.0395 21.9633,5.6163 3.9561,2.1421 7.5636,4.858 10.6998,8.0044 1.0659,1.1069 2.0395,2.1625 2.9312,3.3104 2.9106,3.4231 5.2371,7.1946 6.9692,11.4479 2.4084,5.5446 3.6281,11.6119 3.6281,17.9457 l -0.7482,17.6075 -0.1435,3.7101 -0.8199,19.2678 h 0.9224 v 0.062 h 0.02 l -5.2679,119.9626 h -0.9429 l -1.6808,38.4024 -0.4817,10.3616 h 0.8097 c 2.3469,0 4.4684,0.9839 5.975,2.552 0,0.01 0.01,0.01 0.01,0.02 h 0.01 c 0.533,0.5637 0.9839,1.1888 1.3426,1.8755 0.6047,1.1479 0.9429,2.4495 0.9429,3.8228 v 4.0483 c 0,4.6017 -3.6998,8.2708 -8.3118,8.2708 h -29.8446 l 7.3689,0.021 h 0.072 l -0.051,157.9551 v 104.2102 l 7.9019,20.8051 -0.01,0.031 v 0 l -8.9985,42.379 282.7191,-301.0375 c -4.694,-110.8309 -59.9003,-220.1473 -125.4314,-300.7852 -0.061,-0.072 45.169,102.8277 50.1129,42.3552 -11.0046,68.2245 -24.5827,-37.467 -24.593,-37.4875 -81.6935,-100.3361 -141.7178,-96.2815 -277.6379,-109.7383"
         style="fill:#1e9cf1;fill-opacity:1;fill-rule:nonzero;stroke:none;stroke-width:1.02488"
         id="path1451" />
      <path
         d="m 1702.6619,2878.7854 c -7.9736,18.4274 -16.06,34.0774 -23.1317,46.6732 0.01,0.01 0.021,0.021 0.041,0.031 7.123,-12.606 15.1991,-28.3072 23.1317,-46.6834 l -0.041,-0.02"
         style="fill:#79919a;fill-opacity:1;fill-rule:nonzero;stroke:none;stroke-width:1.02488"
         id="path1453" />
      <path
         d="m 1698.8698,2948.0983 c 3.5563,6.8872 5.9238,14.4816 6.8565,22.5269 -0.9122,-8.0453 -3.2899,-15.6397 -6.8565,-22.5269 m 7.2049,27.0057 v 2.8286 c 0,36.8959 -13.8359,62.313 -28.7992,79.0186 l 0.2665,-0.2563 c 14.8403,-16.6543 28.584,-41.9894 28.584,-78.711 0,-0.9839 -0.021,-1.9268 -0.051,-2.8799"
         style="fill:#a2a8ae;fill-opacity:1;fill-rule:nonzero;stroke:none;stroke-width:1.02488"
         id="path1455" />
      <path
         d="m 1607.9524,2473.1364 c 1.7935,0.5637 3.5461,1.2607 5.2679,2.0908 1.2196,0.6047 2.3162,1.2094 3.4333,2.0088 l 0.041,-0.072 0.01,-0.01 v -0.041 c -1.0967,-0.6764 -2.2343,-1.3016 -3.4231,-1.8755 -1.7321,-0.8404 -3.5154,-1.5374 -5.3294,-2.1011 m -29.3835,3.2694 c -2.5007,1.4144 -4.8272,3.1054 -6.9384,5.0527 l -0.123,0.123 c 2.1523,-1.9883 4.5197,-3.7306 7.0614,-5.1757 m 55.2823,26.2678 c 0,0.01 0,0.021 0.01,0.031 -0.01,-0.01 -0.01,-0.021 -0.01,-0.031 m 0.02,0.1025 v 0.01 0 -0.01"
         style="fill:#c24820;fill-opacity:1;fill-rule:nonzero;stroke:none;stroke-width:1.02488"
         id="path1457" />
      <path
         d="m 1729.5548,2875.721 c 0,0.01 0,0.01 0.01,0.021 -0.01,-0.01 -0.01,-0.01 -0.01,-0.021 m 0.041,0.123 c 0.01,0.01 0.01,0.031 0.02,0.041 -0.01,-0.01 -0.01,-0.031 -0.02,-0.041 m 0.041,0.1127 c 0.01,0.031 0.021,0.051 0.031,0.082 -0.01,-0.031 -0.021,-0.051 -0.031,-0.082 m 0.051,0.123 c 0.01,0.031 0.02,0.062 0.031,0.092 -0.01,-0.031 -0.021,-0.061 -0.031,-0.092 m 0.041,0.123 c 0.01,0.041 0.031,0.082 0.041,0.1127 -0.01,-0.031 -0.031,-0.072 -0.041,-0.1127 m 0.041,0.123 c 0.2153,0.6047 0.41,1.2093 0.574,1.8243 -0.164,-0.615 -0.3587,-1.2299 -0.574,-1.8243 m 0.574,1.8243 c 0.01,0.041 0.02,0.082 0.031,0.123 -0.01,-0.041 -0.021,-0.082 -0.031,-0.123 m 0.041,0.1435 c 0.01,0.031 0.021,0.061 0.021,0.1024 0,-0.041 -0.01,-0.072 -0.021,-0.1024 m 0.031,0.1332 c 0.01,0.031 0.021,0.061 0.031,0.092 -0.01,-0.031 -0.021,-0.062 -0.031,-0.092 m 0.041,0.1435 c 0.01,0.021 0.01,0.041 0.021,0.061 -0.01,-0.021 -0.01,-0.041 -0.021,-0.061 m 0.031,0.1435 c 0.01,0.01 0.01,0.031 0.02,0.041 -0.01,-0.01 -0.01,-0.031 -0.02,-0.041 m 0.041,0.1434 c 0,0 0,0.01 0,0.02 0,-0.01 0,-0.02 0,-0.02 m -19.6982,3.3719 c -0.01,0.01 -0.021,0.021 -0.021,0.041 l 19.3293,8.3016 c 0,-0.021 0.01,-0.041 0.021,-0.062 l -19.3293,-8.2811"
         style="fill:#c24820;fill-opacity:1;fill-rule:nonzero;stroke:none;stroke-width:1.02488"
         id="path1459" />
      <path
         d="m 1697.2915,2482.5756 c 2.8491,2.8799 5.2474,6.2313 7.0409,9.9721 64.4652,133.3374 50.3218,254.5811 27.0672,332.9847 -4.0073,13.221 -8.2093,25.6221 -12.7188,37.3058 0.02,0.01 0.031,0.01 0.041,0.021 4.448,-11.6529 8.732,-24.0745 12.6675,-37.2955 23.2649,-78.3524 37.4186,-199.6883 -26.9954,-332.9642 -1.814,-3.7613 -4.2328,-7.1332 -7.1024,-10.0234 m 5.4011,396.1483 c -0.01,0.021 -0.021,0.041 -0.031,0.062 l 0.041,0.02 0.8711,0.369 7.2357,3.0951 c 0,-0.021 0.01,-0.031 0.021,-0.041 l -0.041,-0.02 -7.2767,-3.0746 -0.8199,-0.41"
         style="fill:#c24820;fill-opacity:1;fill-rule:nonzero;stroke:none;stroke-width:1.02488"
         id="path1461" />
      <path
         d="m 1617.0636,2477.3385 0.021,0.01 c 0.7789,0.5022 1.5271,1.0147 2.2547,1.5578 0.01,0.01 0.021,0.01 0.021,0.021 -0.7379,-0.5534 -1.5066,-1.0863 -2.2957,-1.5885 m 4.2327,3.1361 c 0.01,0 0.01,0 0.01,0 0.7379,0.6354 1.4553,1.3016 2.142,1.9883 v 0 c -0.6867,-0.6867 -1.4041,-1.3529 -2.1523,-1.9883 m 3.7511,3.6998 v 0 c 0.451,0.5125 0.8814,1.0249 1.2914,1.5476 0,0.01 0.01,0.01 0.01,0.01 -0.4202,-0.533 -0.8506,-1.0557 -1.3016,-1.5579 m 3.4949,4.6633 v 0.01 c 0.3177,0.492 0.6252,1.0044 0.9121,1.5066 0,0.01 0.01,0.01 0.01,0.021 -0.2972,-0.5227 -0.6047,-1.0351 -0.9224,-1.5373 m 2.2342,4.0585 c 0,0.01 0.01,0.021 0.01,0.021 1.4553,3.0951 2.4904,6.385 3.0644,9.7569 -0.574,-3.3821 -1.6091,-6.672 -3.0747,-9.7774 m 3.0849,9.8081 c 0,0.031 0,0.051 0.01,0.072 -0.01,-0.021 -0.01,-0.041 -0.01,-0.072"
         style="fill:#2e6886;fill-opacity:1;fill-rule:nonzero;stroke:none;stroke-width:1.02488"
         id="path1463" />
      <path
         d="m 1616.7049,2477.154 -0.01,0.01 -0.041,0.072 c 0.02,0.021 0.041,0.031 0.051,0.041 v -0.1025 -0.021 m 0.3792,0.1947 0.8506,0.6457 c 0.492,0.2972 0.9532,0.5944 1.4041,0.9121 -0.7276,-0.5431 -1.4758,-1.0556 -2.2547,-1.5578 m 4.2225,3.1259 c 0.246,0.2255 0.4919,0.4612 0.7277,0.6969 l 0.3074,0.3075 c 0.369,0.3075 0.7379,0.6354 1.1069,0.9839 -0.6867,-0.6867 -1.4041,-1.3529 -2.142,-1.9883 m 3.7408,3.6998 c 0.246,0.2973 0.4715,0.5945 0.6764,0.8917 0.2153,0.2152 0.4202,0.4407 0.615,0.6559 -0.41,-0.5227 -0.8404,-1.0351 -1.2914,-1.5476 m 3.4949,4.6735 0.4612,0.8302 c 0.164,0.2254 0.3074,0.4509 0.4509,0.6764 -0.2869,-0.5022 -0.5944,-1.0146 -0.9121,-1.5066 m 2.2445,4.0688 c 0.1332,0.328 0.2562,0.6457 0.3689,0.9634 0.7277,1.5373 1.3324,3.1771 1.7423,4.8169 0.41,1.4349 0.7277,2.9722 0.9224,4.407 0.02,-0.1024 0.031,-0.2152 0.051,-0.3177 v -0.01 c -0.01,-0.021 -0.01,-0.041 -0.01,-0.072 -0.01,-0.01 -0.01,-0.021 -0.01,-0.031 -0.574,-3.3719 -1.6091,-6.6618 -3.0644,-9.7569"
         style="fill:#a63c1f;fill-opacity:1;fill-rule:nonzero;stroke:none;stroke-width:1.02488"
         id="path1465" />
      <path
         d="m 1901.3458,2487.1978 c 3.9253,2.1523 7.5124,4.858 10.628,8.0146 1.1274,1.0249 2.0498,2.1523 2.9722,3.2797 2.8697,3.3821 5.2372,7.1742 6.9795,11.4787 2.4494,5.5343 3.5768,11.5811 3.5768,17.9354 l -0.6764,17.6075 0.7482,-17.6075 c 0,-6.3338 -1.2197,-12.4011 -3.6281,-17.9457 -1.7321,-4.2533 -4.0586,-8.0248 -6.9692,-11.4479 -0.8917,-1.1479 -1.8653,-2.2035 -2.9312,-3.3104 -3.1362,-3.1464 -6.7437,-5.8623 -10.6998,-8.0044 m -67.6321,53.3042 0.369,8.6603 0.4714,11.0893 -0.4714,-11.1303 -0.369,-8.6193 m 84.8809,148.0137 h -0.061 l -1.6398,38.4229 -0.5022,10.3411 h 0.041 l 0.4817,-10.3616 1.6808,-38.4024 m -76.5588,45.7406 0.1332,2.9312 h 0.01 l -0.1435,-2.9312"
         style="fill:#bf981b;fill-opacity:1;fill-rule:nonzero;stroke:none;stroke-width:1.02488"
         id="path1467" />
      <path
         d="m 1916.3911,2737.2797 -0.01,0.01 h 0.8302 c 2.3675,0 4.4992,0.9838 6.0058,2.5417 -1.5066,-1.5681 -3.6281,-2.552 -5.975,-2.552 h -0.8097 -0.041 m 6.836,2.5725 h 0.01 -0.01 m 1.3528,1.8755 c 0.5945,1.1274 0.9224,2.4085 0.9224,3.7613 v 4.0996 c 0,4.6119 -3.6896,8.199 -8.2913,8.199 h -53.3964 l 23.5518,0.082 h 29.8446 c 4.612,0 8.3118,-3.6691 8.3118,-8.2708 v -4.0483 c 0,-1.3733 -0.3382,-2.6749 -0.9429,-3.8228 m -90.7534,11.3147 c 1.3118,2.8389 4.1815,4.8067 7.5021,4.817 h 22.4552 v 0 h 0.031 v -0.072 h -22.5577 c -3.2797,0 -6.1186,-1.9472 -7.4304,-4.7452"
         style="fill:#bf981b;fill-opacity:1;fill-rule:nonzero;stroke:none;stroke-width:1.02488"
         id="path1469" />
      <path
         d="m 1863.7838,2757.8594 v 0 l -0.041,112.7372 0.072,-0.072 v -112.6654 h -0.031 m 30.9515,0.031 h 0.02 v 157.9551 l 0.051,-157.9551 h -0.072 m 7.9121,283.0011 -9.019,42.3995 0.02,-0.021 8.9985,-42.379 v 0"
         style="fill:#79919a;fill-opacity:1;fill-rule:nonzero;stroke:none;stroke-width:1.02488"
         id="path1471" />
      <path
         d="m 1924.8054,2568.5531 h -0.02 l -5.3294,119.9524 h -0.9224 v 0.01 h 0.061 0.9429 l 5.2679,-119.9626 m -90.8149,0 h -0.031 l 5.1347,119.9626 h 0.9326 v -0.01 h -0.9224 l -5.1141,-119.9524"
         style="fill:#c24820;fill-opacity:1;fill-rule:nonzero;stroke:none;stroke-width:1.02488"
         id="path1473" />
      <path
         d="m 1633.8717,2515.1054 c -0.574,3.4026 -1.6296,6.7848 -3.2079,10.0439 -26.2165,54.2368 -39.3658,110.0417 -39.3863,166.8306 -0.01,36.4038 5.3704,73.1971 16.1624,110.2467 3.5461,12.2268 7.4919,23.6953 11.6017,34.3336 2.2035,5.6573 4.4377,11.079 6.6822,16.2341 l -0.01,0.01 c 0.01,0.01 0.02,0.021 0.02,0.041 v 0 0 l -7.2357,3.1054 c 4.6427,10.6998 9.3265,20.3439 13.7437,28.789 0.3792,0.7174 0.7584,1.4246 1.1376,2.1215 2.388,-4.4993 4.858,-9.3675 7.3792,-14.5636 2.1317,-4.4378 4.3045,-9.1215 6.4875,-14.0512 0.369,-0.8609 0.7482,-1.7218 1.1274,-2.5827 l -4.0893,-1.8448 -2.2753,-0.9736 c 0.01,-0.021 0.01,-0.031 0.021,-0.041 l -0.01,-0.01 c 6.4568,-14.8608 12.811,-31.8738 18.2429,-50.6292 26.729,-91.5734 20.2825,-181.7016 -18.8886,-267.9148 -1.3836,-3.0337 -2.8082,-6.0776 -4.2737,-9.101 -0.2153,-0.4612 -0.4305,-0.9224 -0.6355,-1.3836 -1.2503,-2.8492 -2.142,-5.7598 -2.5929,-8.6603"
         style="fill:#0b8dd9;fill-opacity:1;fill-rule:nonzero;stroke:none;stroke-width:1.02488"
         id="path1475" />
      <path
         d="m 1648.3738,2855.664 c -0.3792,0.8609 -0.7584,1.7218 -1.1274,2.5827 0.3792,-0.8609 0.7482,-1.7115 1.1274,-2.5827 v 0 m -7.6149,16.6339 c -2.5212,5.1961 -4.9912,10.0643 -7.3792,14.5636 0.01,0.021 0.021,0.041 0.031,0.061 2.3675,-4.5198 4.8272,-9.3982 7.3484,-14.6251"
         style="fill:#79919a;fill-opacity:1;fill-rule:nonzero;stroke:none;stroke-width:1.02488"
         id="path1477" />
      <path
         d="m 1618.4984,2855.951 v 0 h -0.01 l -0.041,0.021 c 4.7144,10.6485 9.3367,20.3439 13.7949,28.7685 -4.4172,-8.4451 -9.101,-18.0892 -13.7437,-28.789"
         style="fill:#a2a8ae;fill-opacity:1;fill-rule:nonzero;stroke:none;stroke-width:1.02488"
         id="path1479" />
      <path
         d="m 1633.8717,2515.0952 c -0.574,3.4026 -1.6296,6.7847 -3.2079,10.0541 -26.2165,54.2368 -39.3658,110.0417 -39.3863,166.8306 0.021,-56.7889 13.1698,-112.5938 39.3863,-166.8306 1.5783,-3.2591 2.6339,-6.6413 3.2079,-10.0439 0,-0.01 0,-0.01 0,-0.01 m -8.1376,337.7504 -7.2357,3.1054 h -0.01 v 0 h 0.01 v 0 l 7.2357,-3.1054 v 0"
         style="fill:#c24820;fill-opacity:1;fill-rule:nonzero;stroke:none;stroke-width:1.02488"
         id="path1481" />
      <path
         d="m 1636.4646,2523.7657 c 0.205,0.4612 0.4202,0.9224 0.6355,1.3836 1.4655,3.0234 2.8901,6.0673 4.2737,9.101 -1.3836,-3.0439 -2.8082,-6.0776 -4.2737,-9.1113 -0.2153,-0.4612 -0.4305,-0.9121 -0.6355,-1.3733 m 5.5651,329.0389 c -0.01,0.01 -0.01,0.021 -0.021,0.041 l 2.2753,0.9736 -2.2548,-1.0146"
         style="fill:#c24820;fill-opacity:1;fill-rule:nonzero;stroke:none;stroke-width:1.02488"
         id="path1483" />
      <path
         d="m 1633.8204,2514.7877 c -0.5124,3.4846 -1.5373,6.9692 -3.1669,10.3513 -43.0553,88.9599 -50.8342,182.2244 -23.2751,277.0261 3.5461,12.2474 7.5329,23.7465 11.6632,34.3951 -4.1098,-10.6383 -8.0556,-22.1068 -11.6017,-34.3336 -10.792,-37.0496 -16.1726,-73.8429 -16.1624,-110.2467 0.021,-56.7889 13.1698,-112.5938 39.3863,-166.8306 1.5783,-3.2694 2.6339,-6.6515 3.2079,-10.0541 -0.02,-0.1025 -0.031,-0.205 -0.051,-0.3075 m -8.1068,338.0169 -7.2254,3.1464 h 0.01 l 7.2357,-3.1054 c 0,-0.021 -0.01,-0.031 -0.02,-0.041"
         style="fill:#a63c1f;fill-opacity:1;fill-rule:nonzero;stroke:none;stroke-width:1.02488"
         id="path1485" />
    </g>
  </g>
</svg>
