<?xml version="1.0" encoding="UTF-8" standalone="no"?>
<!-- Created with Inkscape (http://www.inkscape.org/) -->

<svg
   version="1.1"
   id="svg1329"
   width="133"
   height="133"
   viewBox="0 0 133 133"
   xmlns="http://www.w3.org/2000/svg"
   xmlns:svg="http://www.w3.org/2000/svg">
  <defs
     id="defs1333">
    <linearGradient
       id="linearGradient12516">
      <stop
         style="stop-color:#000000;stop-opacity:1;"
         offset="0"
         id="stop12514" />
    </linearGradient>
    <linearGradient
       id="linearGradient10464">
      <stop
         style="stop-color:#000000;stop-opacity:1;"
         offset="0"
         id="stop10462" />
    </linearGradient>
  </defs>
  <g
     id="g1337"
     transform="matrix(1.3333333,0,0,-1.3333333,-22.499999,577.50132)">
    <g
       id="g1339"
       transform="scale(0.1)">
      <g
         id="g2704"
         style="stroke:none"
         transform="matrix(1.0249046,0,0,1.0249046,-16.612845,-95.457986)">
        <path
           d="m 1154.12,3832.95 c 0,-268.99 -218.065,-487.06 -487.061,-487.06 -268.993,0 -487.059,218.07 -487.059,487.06 0,269 218.066,487.06 487.059,487.06 268.996,0 487.061,-218.06 487.061,-487.06"
           style="fill:#1e9cf1;fill-opacity:1;fill-rule:nonzero;stroke:none;stroke-width:22.5;stroke-dasharray:none"
           id="path1805" />
        <path
           d="m 482.656,3661.77 h 317.113 v 478.281 H 482.656 Z"
           style="fill:#f4b20f;fill-opacity:1;fill-rule:nonzero;stroke:none"
           id="path1807" />
        <path
           d="m 527.406,3947.6 h 223.785 v 143.23 H 527.406 Z"
           style="fill:#f0f7f4;fill-opacity:1;fill-rule:nonzero;stroke:none"
           id="path1809" />
        <path
           d="m 708.023,3741.41 c -37.968,-37.96 -99.492,-37.96 -137.449,0 -37.961,37.95 -37.961,99.49 0,137.44 37.957,37.95 99.481,37.95 137.449,0 37.95,-37.95 37.95,-99.49 0,-137.44"
           style="fill:#d84730;fill-opacity:1;fill-rule:nonzero;stroke:none"
           id="path1811" />
        <path
           d="M 799.77,3661.77 H 650.223 l -78.672,78.68 c 7.105,-6.92 15.012,-12.53 23.41,-16.83 11.41,-5.86 23.734,-9.31 36.223,-10.35 2.703,-0.22 5.414,-0.34 8.125,-0.34 6.222,0 12.453,0.6 18.586,1.79 7.453,1.45 14.765,3.78 21.781,6.98 10.269,4.69 19.89,11.26 28.347,19.71 8.661,8.66 15.344,18.55 20.051,29.11 10.344,23.17 11.156,49.57 2.43,73.24 -4.477,12.17 -11.465,23.62 -20.969,33.54 l 90.235,-90.23 v -125.3"
           style="fill:#f4b20f;fill-opacity:1;fill-rule:nonzero;stroke:none"
           id="path1813" />
        <path
           d="m 679.676,3721.7 c 10.265,4.69 19.883,11.26 28.332,19.71 v 0 0 c 8.668,8.66 15.355,18.55 20.066,29.11 -4.707,-10.56 -11.39,-20.45 -20.051,-29.11 -8.457,-8.45 -18.078,-15.02 -28.347,-19.71 m -84.715,1.92 c -8.398,4.3 -16.305,9.91 -23.41,16.83 l -0.965,0.96 c 7.352,-7.36 15.594,-13.29 24.375,-17.79 m 135.543,120.14 c -4.715,12.8 -12.215,24.8 -22.496,35.07 l 1.527,-1.53 c 9.504,-9.92 16.492,-21.37 20.969,-33.54"
           style="fill:#bd3821;fill-opacity:1;fill-rule:nonzero;stroke:none"
           id="path1815" />
        <path
           d="m 622.563,3756.33 c -10.235,-10.24 -26.825,-10.24 -37.071,0 -10.242,10.23 -10.242,26.83 0,37.07 l 70.528,70.53 c 10.238,10.23 26.839,10.23 37.085,0 10.223,-10.23 10.223,-26.84 0,-37.08 l -70.542,-70.52"
           style="fill:#f35e39;fill-opacity:1;fill-rule:nonzero;stroke:none"
           id="path1817" />
        <path
           d="m 639.293,3712.93 c -2.703,0 -5.41,0.12 -8.109,0.34 -0.985,0.09 -1.965,0.18 -2.946,0.29 l -0.008,0.01 c 3.676,-0.42 7.368,-0.63 11.063,-0.63 9.184,0 18.367,1.29 27.258,3.88 -2.86,-0.83 -5.746,-1.53 -8.656,-2.1 -6.141,-1.19 -12.372,-1.79 -18.602,-1.79"
           style="fill:#d78618;fill-opacity:1;fill-rule:nonzero;stroke:none"
           id="path1819" />
        <path
           d="m 639.293,3712.94 c -3.695,0 -7.387,0.21 -11.063,0.63 l -42.058,42.11 c 5.027,-4.69 11.445,-7.03 17.859,-7.03 6.707,0 13.414,2.56 18.532,7.68 l 70.542,70.52 c 9.903,9.92 10.215,25.82 0.934,36.1 l 41.813,-41.78 c 3.253,-28.38 -6.071,-57.96 -27.844,-79.76 v 0 0 c -11.969,-11.96 -26.285,-20.16 -41.457,-24.59 -8.891,-2.59 -18.074,-3.88 -27.258,-3.88"
           style="fill:#bd3821;fill-opacity:1;fill-rule:nonzero;stroke:none"
           id="path1821" />
        <path
           d="m 639.309,3712.93 c -2.711,0 -5.422,0.12 -8.125,0.34 2.699,-0.22 5.406,-0.34 8.109,-0.34 6.23,0 12.461,0.6 18.602,1.79 -6.133,-1.19 -12.364,-1.79 -18.586,-1.79"
           style="fill:#be621d;fill-opacity:1;fill-rule:nonzero;stroke:none"
           id="path1823" />
        <path
           d="m 604.031,3748.65 c -6.414,0 -12.832,2.34 -17.859,7.03 l -0.668,0.66 c 5.101,-5.12 11.805,-7.68 18.516,-7.68 6.707,0 13.421,2.56 18.543,7.68 l 70.507,70.51 c 5.137,5.15 7.676,11.82 7.676,18.54 0,6.7 -2.539,13.41 -7.676,18.52 l 0.969,-0.96 c 9.281,-10.28 8.969,-26.18 -0.934,-36.1 l -70.542,-70.52 c -5.118,-5.12 -11.825,-7.68 -18.532,-7.68"
           style="fill:#da4926;fill-opacity:1;fill-rule:nonzero;stroke:none"
           id="path1825" />
        <path
           d="m 728.109,4058.72 -12.246,-39.51 c -8.629,2.65 -17.445,4.87 -26.425,6.59 l 6.867,40.83 c 10.82,-2.04 21.449,-4.68 31.804,-7.91"
           style="fill:#f35e39;fill-opacity:1;fill-rule:nonzero;stroke:none"
           id="path1827" />
        <path
           d="m 696.305,4066.63 -6.867,-40.83 c -15.606,3.07 -31.723,4.65 -48.227,4.65 -26,0 -51.059,-3.95 -74.648,-11.24 l -12.247,39.51 c 27.43,8.52 56.629,13.08 86.895,13.08 18.848,0 37.266,-1.76 55.094,-5.17"
           style="fill:#61c0be;fill-opacity:1;fill-rule:nonzero;stroke:none"
           id="path1829" />
        <path
           d="m 628.406,3978.88 4.739,-17.69 15.742,8.9 27.414,92.08 -47.895,-83.29"
           style="fill:#584359;fill-opacity:1;fill-rule:nonzero;stroke:none"
           id="path1831" />
        <path
           d="m 629.016,3540.5 h -43.153 c -7.058,0 -12.789,-5.73 -12.789,-12.8 0,-3.56 1.422,-6.76 3.746,-9.08 2.321,-2.31 5.524,-3.74 9.043,-3.74 h 43.153 v 25.62"
           style="fill:#c2e0d3;fill-opacity:1;fill-rule:nonzero;stroke:none"
           id="path1833" />
        <path
           d="m 629.016,3609.55 h -43.153 c -7.058,0 -12.789,-5.74 -12.789,-12.8 0,-3.55 1.422,-6.76 3.746,-9.07 2.321,-2.31 5.524,-3.75 9.043,-3.75 h 43.153 v 25.62"
           style="fill:#c2e0d3;fill-opacity:1;fill-rule:nonzero;stroke:none"
           id="path1835" />
        <path
           d="m 800.012,3874.77 h -0.242 v -19.18 h 0.242 c 87.765,0 159.203,-71.39 159.203,-159.21 0,-87.77 -71.438,-159.21 -159.203,-159.21 h -71.903 v -19.18 h 71.903 c 98.351,0 178.375,80.03 178.375,178.39 0,98.37 -80.024,178.39 -178.375,178.39"
           style="fill:#d84730;fill-opacity:1;fill-rule:nonzero;stroke:none"
           id="path1837" />
        <path
           d="m 800.012,3805.72 h -0.242 v -19.18 h 0.242 c 49.672,0 90.144,-40.44 90.144,-90.16 0,-49.68 -40.472,-90.15 -90.144,-90.15 h -71.903 v -19.19 h 71.903 c 60.261,0 109.328,49.07 109.328,109.34 0,60.3 -49.067,109.34 -109.328,109.34"
           style="fill:#443443;fill-opacity:1;fill-rule:nonzero;stroke:none"
           id="path1839" />
        <path
           d="m 805.684,3855.49 c -0.02,0 -0.039,0 -0.059,0 0.02,0 0.039,0 0.059,0 m -0.27,0.01 c -0.098,0 -0.191,0 -0.289,0 0.102,0 0.188,0 0.289,0 m -0.414,0.01 c -0.098,0 -0.195,0.01 -0.297,0.01 0.102,0 0.195,-0.01 0.297,-0.01 m -0.355,0.01 c -0.133,0 -0.262,0.01 -0.391,0.01 0.129,0 0.262,-0.01 0.391,-0.01 m -0.426,0.01 c -1.258,0.03 -2.524,0.05 -3.793,0.06 1.269,-0.01 2.535,-0.03 3.793,-0.06 m -3.809,0.06 c -0.137,0 -0.277,0 -0.414,0 h -0.226 0.242 c 0.133,0 0.265,0 0.398,0 m 0.07,19.18 c -0.019,0 -0.046,0 -0.062,0 0.02,0 0.043,0 0.062,0 m -0.234,0 c -0.058,0 -0.113,0 -0.176,0 0.063,0 0.118,0 0.176,0"
           style="fill:#295949;fill-opacity:1;fill-rule:nonzero;stroke:none"
           id="path1841" />
        <path
           d="m 851.785,3846.97 c 0,0 -0.008,0 -0.012,0 -0.121,0.04 -0.238,0.08 -0.355,0.12 -14.402,4.93 -29.766,7.84 -45.734,8.4 -0.02,0 -0.039,0 -0.059,0 -0.07,0 -0.141,0 -0.211,0.01 -0.101,0 -0.187,0 -0.289,0 -0.039,0.01 -0.082,0.01 -0.125,0.01 -0.102,0 -0.195,0.01 -0.297,0.01 -0.019,0 -0.039,0 -0.058,0 -0.129,0 -0.262,0.01 -0.391,0.01 -0.012,0 -0.024,0 -0.035,0 -1.258,0.03 -2.524,0.05 -3.793,0.06 -0.004,0 -0.008,0 -0.016,0 -0.133,0 -0.265,0 -0.398,0 h -0.242 v 19.18 h 0.226 c 0.024,0 0.051,0 0.074,0 0.063,0 0.118,0 0.176,0 0.055,0 0.113,0 0.172,0 0.016,0 0.043,0 0.062,0 0.715,-0.01 1.434,-0.01 2.149,-0.02 1.672,-0.03 3.336,-0.09 4.965,-0.14 0.769,-0.04 1.539,-0.07 2.304,-0.11 3.239,-0.2 6.407,-0.48 9.571,-0.83 0.691,-0.05 1.375,-0.12 2.054,-0.2 0.473,-0.05 0.946,-0.11 1.418,-0.17 1.391,-0.19 2.762,-0.41 4.133,-0.63 0.906,-0.12 1.805,-0.25 2.696,-0.39 7.25,-1.22 14.347,-2.89 21.269,-4.96 1.41,-0.44 2.82,-0.88 4.223,-1.32 0.324,-0.11 0.652,-0.21 0.976,-0.32 l -4.453,-18.71"
           style="fill:#b32a22;fill-opacity:1;fill-rule:nonzero;stroke:none"
           id="path1843" />
        <path
           d="m 835.602,3779.17 c -10.93,4.76 -22.981,7.37 -35.606,7.37 h -0.226 0.242 c 12.633,0 24.668,-2.62 35.597,-7.34 l -0.007,-0.03"
           style="fill:#295949;fill-opacity:1;fill-rule:nonzero;stroke:none"
           id="path1845" />
        <path
           d="m 835.609,3779.2 c -10.929,4.72 -22.964,7.34 -35.597,7.34 h -0.242 v 19.18 -0.05 h 0.207 c 3.796,0 7.5,-0.2 11.199,-0.6 1.797,-0.19 3.691,-0.4 5.5,-0.7 1.297,-0.2 2.695,-0.4 3.992,-0.7 0.91,-0.1 1.809,-0.3 2.609,-0.5 2.996,-0.6 5.899,-1.4 8.692,-2.3 2.801,-0.8 5.508,-1.8 8.105,-2.8 0.016,0 0.031,-0.01 0.047,-0.02 l -4.512,-18.85"
           style="fill:#381d1a;fill-opacity:1;fill-rule:nonzero;stroke:none"
           id="path1847" />
        <path
           d="m 629.016,3551.19 h 79.144 c 12.973,0 23.481,-10.51 23.481,-23.48 0,-6.52 -2.602,-12.4 -6.875,-16.66 -4.243,-4.21 -10.129,-6.87 -16.606,-6.87 h -79.144 v 47.01"
           style="fill:#f35e39;fill-opacity:1;fill-rule:nonzero;stroke:none"
           id="path1849" />
        <path
           d="m 629.016,3620.24 h 79.144 c 12.973,0 23.481,-10.51 23.481,-23.48 0,-6.52 -2.602,-12.39 -6.875,-16.65 -4.243,-4.22 -10.129,-6.87 -16.606,-6.87 h -79.144 v 47"
           style="fill:#5f485f;fill-opacity:1;fill-rule:nonzero;stroke:none"
           id="path1851" />
        <path
           d="m 557.773,3947.59 h -30.378 v 143.24 h 223.8 v -15.04 l -0.004,15.04 H 527.406 V 3947.6 h 30.367 v -0.01"
           style="fill:#ad8d1d;fill-opacity:1;fill-rule:nonzero;stroke:none"
           id="path1853" />
        <path
           d="m 557.773,3947.6 h -30.367 v 143.23 h 223.785 v -15.04 H 557.773 v -16.02 c -1.156,-0.34 -2.308,-0.69 -3.457,-1.05 l 3.457,-11.15 v -99.97"
           style="fill:#aebfc8;fill-opacity:1;fill-rule:nonzero;stroke:none"
           id="path1855" />
        <path
           d="m 557.773,4047.57 -3.457,11.15 c 1.149,0.36 2.301,0.71 3.457,1.05 v -12.2"
           style="fill:#4892a1;fill-opacity:1;fill-rule:nonzero;stroke:none"
           id="path1857" />
        <path
           d="m 567.68,3910.51 c 0,-11.3 -9.157,-20.46 -20.453,-20.46 -11.305,0 -20.457,9.16 -20.457,20.46 0,11.3 9.152,20.46 20.457,20.46 11.296,0 20.453,-9.16 20.453,-20.46"
           style="fill:#f0f7f4;fill-opacity:1;fill-rule:nonzero;stroke:none"
           id="path1859" />
        <path
           d="m 751.195,3910.51 c 0,-11.3 -9.152,-20.46 -20.453,-20.46 -11.308,0 -20.465,9.16 -20.465,20.46 0,11.3 9.157,20.46 20.465,20.46 11.301,0 20.453,-9.16 20.453,-20.46"
           style="fill:#443443;fill-opacity:1;fill-rule:nonzero;stroke:none"
           id="path1861" />
        <path
           d="m 859.195,3385.25 c 0.043,0.02 0.075,0.03 0.118,0.05 -0.036,-0.01 -0.083,-0.03 -0.118,-0.05 m 0.539,0.23 c 0.098,0.05 0.196,0.09 0.293,0.13 -0.093,-0.04 -0.199,-0.09 -0.293,-0.13 m 0.356,0.16 c 30.707,13.27 59.769,29.6 86.816,48.62 -27.043,-19.02 -56.113,-35.36 -86.816,-48.62 m 86.867,48.66 c 0.137,0.09 0.281,0.19 0.418,0.29 -0.137,-0.1 -0.281,-0.2 -0.418,-0.29 m 0.684,0.48 c 0.047,0.03 0.074,0.05 0.121,0.08 -0.039,-0.03 -0.082,-0.05 -0.121,-0.08 m 0.586,0.41 0.007,0.01 -0.007,-0.01"
           style="fill:#c8bfc5;fill-opacity:1;fill-rule:nonzero;stroke:none"
           id="path1863" />
        <path
           d="M 719.49455,3398.8999 576.773,3518.57 c 2.25,-2.25 5.344,-3.63 8.844,-3.69 v 0 h 0.024 0.222 0.012 v 0 h 43.094 v -10.71 h 79.199 c 5.766,0 10.98,2.04 15.082,5.5 0.523,0.44 1.031,0.9 1.516,1.38 1.379,1.38 2.582,2.92 3.582,4.6 0.449,0.74 0.855,1.52 1.226,2.32 h 70.403 c 73.316,0 136.421,44.42 163.828,107.77 9.379,21.67 14.582,45.56 14.582,70.64 0,44.7 -16.524,85.61 -43.785,116.95 -0.036,0.04 -0.071,0.08 -0.106,0.12 -0.008,0.01 -0.016,0.01 -0.019,0.03 -16.59,19.03 -37.145,34.52 -60.372,45.16 -7.761,3.56 -15.828,6.58 -24.136,9 -4.614,1.38 -9.309,2.5 -14.094,3.53 -1.984,0.41 -3.969,0.78 -5.984,1.09 -2.371,0.4 -4.758,0.76 -7.161,1.06 -0.343,0.05 -0.687,0.09 -1.035,0.13 -3.929,0.48 -7.89,0.83 -11.894,1.05 -0.41,0.03 -0.821,0.05 -1.231,0.07 -0.3,0.01 -0.605,0.02 -0.91,0.03 -1.691,0.08 -3.39,0.12 -5.097,0.15 -0.86,0.01 -1.723,0.02 -2.586,0.02 h -0.207 v 265.3 l 312.8125,-326.4788 c -13.34,-145.52 -82.1695,-241.5676 -195.17546,-321.6076 l 43.78027,-7.6144 c -0.161,-0.11 10.15918,64.2359 5.43659,14.7208 17.60381,65.1693 -16.19795,55.2806 -19.95617,-3.1357 -12.44277,67.5814 -47.48319,61.2021 0.1277,1.9704 -0.137,-0.1 52.37791,22.0629 52.24091,21.9729 -0.023,-0.02 -65.68796,-16.6203 -65.70796,-16.6303 -27.047,-19.02 -36.02224,-53.5493 -66.72924,-66.8193 -15.37654,65.9562 13.76495,99.9655 30.92584,21.384 8.89724,-40.7414 -23.81012,2.8441 -23.90812,2.7941 -0.144,-0.06 -28.39318,-6.9032 -28.53718,-6.9632 -0.043,-0.02 56.43999,26.4808 18.85222,-20.456 -36.488,-15.67 -89.24299,-4.3529 -129.68399,-10.7129"
           style="fill:#1e9cf1;fill-opacity:1;fill-rule:nonzero;stroke:none"
           id="path1865" />
        <path
           d="m 585.875,3514.88 h -0.012 c -0.074,0 -0.148,0 -0.222,0 0.078,0 0.156,0 0.234,0 m -0.258,0 v 0 0"
           style="fill:#92a4a1;fill-opacity:1;fill-rule:nonzero;stroke:none"
           id="path1867" />
        <path
           d="m 963.805,3625.74 c 9.375,21.67 14.57,45.55 14.57,70.63 0,44.7 -16.516,85.62 -43.773,116.96 27.261,-31.34 43.785,-72.25 43.785,-116.95 0,-25.08 -5.203,-48.97 -14.582,-70.64 m -29.309,187.71 c -0.008,0.01 -0.016,0.02 -0.019,0.03 0.003,-0.02 0.011,-0.02 0.019,-0.03 m -60.391,45.19 c -5.785,2.65 -11.734,5 -17.832,7.03 l -0.605,0.2 c -0.137,0.04 -0.27,0.09 -0.406,0.13 -1.399,0.46 -2.809,0.9 -4.223,1.32 -0.055,0.02 -0.109,0.04 -0.164,0.06 -0.301,0.08 -0.602,0.17 -0.906,0.26 8.308,-2.42 16.375,-5.44 24.136,-9 m -44.214,13.62 c -0.039,0.01 -0.082,0.02 -0.121,0.02 -2.262,0.38 -4.54,0.72 -6.829,1.02 -0.07,0.01 -0.14,0.02 -0.211,0.02 2.403,-0.3 4.79,-0.66 7.161,-1.06 m -8.196,1.19 c -0.058,0.01 -0.113,0.02 -0.172,0.02 -3.839,0.47 -7.714,0.81 -11.625,1.03 -0.031,0 -0.066,0 -0.097,0 4.004,-0.22 7.965,-0.57 11.894,-1.05 m -14.035,1.15 c -0.023,0.01 -0.043,0.01 -0.066,0.01 -1.649,0.07 -3.305,0.11 -4.965,0.14 -0.024,0 -0.043,0 -0.066,0 1.707,-0.03 3.406,-0.07 5.097,-0.15"
           style="fill:#a73728;fill-opacity:1;fill-rule:nonzero;stroke:none"
           id="path1869" />
        <path
           d="m 855.262,3866 c -1.403,0.44 -2.813,0.88 -4.223,1.32 1.414,-0.42 2.824,-0.86 4.223,-1.32 m -25.492,6.28 c -0.891,0.14 -1.79,0.27 -2.696,0.39 -1.371,0.22 -2.742,0.44 -4.133,0.63 2.289,-0.3 4.567,-0.64 6.829,-1.02 m -8.247,1.19 c -0.679,0.08 -1.363,0.15 -2.054,0.2 -3.164,0.35 -6.332,0.63 -9.571,0.83 3.911,-0.22 7.786,-0.56 11.625,-1.03 m -13.929,1.14 c -1.629,0.05 -3.293,0.11 -4.965,0.14 1.66,-0.03 3.316,-0.07 4.965,-0.14"
           style="fill:#8a211d;fill-opacity:1;fill-rule:nonzero;stroke:none"
           id="path1871" />
        <path
           d="m 723.25,3509.67 c 0.523,0.45 1.031,0.91 1.52,1.4 1.382,1.38 2.578,2.91 3.578,4.58 -1,-1.68 -2.203,-3.22 -3.582,-4.6 -0.485,-0.48 -0.993,-0.94 -1.516,-1.38"
           style="fill:#c0492f;fill-opacity:1;fill-rule:nonzero;stroke:none"
           id="path1873" />
        <path
           d="m 799.977,3537.17 h -70.305 c -0.266,0.59 -0.555,1.17 -0.863,1.73 -3.973,7.32 -11.731,12.29 -20.649,12.29 h -79.144 v -0.02 h -0.047 V 3540.5 H 603.844 L 482.672,3661.77 H 799.77 v 124.7 h 0.207 c 3.398,0 6.699,-0.2 9.89,-0.6 2.805,-0.2 5.508,-0.7 8.203,-1.2 3.106,-0.7 6.203,-1.4 9.102,-2.4 2.598,-0.8 5.305,-1.8 7.805,-2.9 l 0.593,-0.2 c 24.489,-10.6 43.387,-31.68 50.977,-57.51 2.348,-8.02 3.609,-16.5 3.609,-25.28 0,-49.68 -40.472,-90.15 -90.144,-90.15 h -70.36 c -3.636,8.25 -11.89,14.01 -21.492,14.01 h -79.144 v -0.07 h -0.047 v -10.6 h -43.094 c -3.23,0 -6.172,-1.2 -8.418,-3.18 -2.504,-2.19 -4.148,-5.34 -4.359,-8.87 -0.016,-0.28 -0.028,-0.56 -0.028,-0.85 0,-3.5 1.399,-6.7 3.703,-9 2.305,-2.3 5.497,-3.79 9.102,-3.79 h 43.094 v -10.71 h 79.199 c 6.504,0 12.305,2.7 16.602,6.9 1.343,1.34 2.503,2.82 3.457,4.43 0.484,0.79 0.921,1.62 1.308,2.47 h 70.442 c 32.394,0 61.531,14.18 81.558,36.65 17.281,19.34 27.805,44.85 27.805,72.76 0,49.25 -32.723,90.98 -77.543,104.62 -8.559,2.62 -17.563,4.2 -26.863,4.61 -0.036,0 -0.071,0 -0.102,0 -0.074,0.01 -0.148,0.01 -0.223,0.02 -0.082,0 -0.16,0 -0.242,0 -0.027,0 -0.058,0.01 -0.086,0.01 -0.101,0 -0.199,0 -0.297,0.01 -0.007,0 -0.019,0 -0.027,0 -0.102,0 -0.203,0.01 -0.305,0.01 -0.007,0 -0.015,0 -0.027,0 -0.105,0 -0.211,0.01 -0.316,0.01 -0.004,0 -0.004,0 -0.008,0 -0.106,0 -0.219,0.01 -0.324,0.01 h -0.004 c -0.77,0.02 -1.543,0.03 -2.313,0.03 -0.004,0 -0.004,0 -0.008,0 -0.105,0.01 -0.214,0.01 -0.32,0.01 -0.043,0 -0.086,0 -0.129,0 -0.066,0 -0.129,0 -0.191,0 h -0.242 v 49.85 h 0.207 c 2.695,0 5.398,-0.1 8.093,-0.2 1.797,-0.1 3.606,-0.2 5.403,-0.4 1.394,-0.09 2.8,-0.2 4.297,-0.4 1.804,-0.2 3.503,-0.4 5.3,-0.69 5.606,-0.81 11.203,-1.91 16.602,-3.31 3.363,-0.9 6.723,-1.87 9.969,-2.9 16.218,-5.33 31.293,-13.21 44.757,-23.15 0.055,-0.04 0.114,-0.09 0.168,-0.13 0.02,-0.01 0.039,-0.03 0.063,-0.04 39.16,-29.05 64.547,-75.57 64.547,-127.98 0,-87.8 -71.406,-159.2 -159.199,-159.2"
           style="fill:#1e9cf1;fill-opacity:1;fill-rule:nonzero;stroke:none"
           id="path1875" />
        <path
           d="m 628.969,3540.47 h -25.098 l -0.027,0.03 h 25.125 v -0.03"
           style="fill:#92a4a1;fill-opacity:1;fill-rule:nonzero;stroke:none"
           id="path1877" />
        <path
           d="m 573.098,3597.52 c 0.211,3.53 1.855,6.68 4.359,8.87 -2.492,-2.19 -4.133,-5.34 -4.359,-8.87"
           style="fill:#92a4a1;fill-opacity:1;fill-rule:nonzero;stroke:none"
           id="path1879" />
        <path
           d="m 799.977,3537.17 h -70.305 v 0 h 70.305 v 0 m 94.652,287.18 c -0.024,0.01 -0.043,0.03 -0.063,0.04 0.02,-0.01 0.043,-0.03 0.063,-0.04 m -0.231,0.17 c -13.464,9.94 -28.539,17.82 -44.757,23.15 0.597,-0.19 1.191,-0.38 1.777,-0.58 0.125,-0.04 0.246,-0.08 0.367,-0.13 v 0.01 c 15.414,-5.33 29.75,-12.95 42.613,-22.45"
           style="fill:#a73728;fill-opacity:1;fill-rule:nonzero;stroke:none"
           id="path1881" />
        <path
           d="M 799.977,3606.17 H 729.68 c -0.008,0.02 -0.02,0.04 -0.028,0.06 h 70.36 c 49.672,0 90.144,40.47 90.144,90.15 0,8.78 -1.261,17.26 -3.609,25.28 2.359,-8.03 3.625,-16.51 3.625,-25.29 0,-49.7 -40.5,-90.2 -90.195,-90.2 m 81.558,17.45 c 17.246,19.35 27.738,44.85 27.738,72.75 0,46.18 -28.679,85.67 -69.152,101.68 l 0.008,0.03 c -2.727,1.09 -5.504,2.06 -8.332,2.92 44.82,-13.64 77.543,-55.37 77.543,-104.62 0,-27.91 -10.524,-53.42 -27.805,-72.76 m -76.601,181.99 c -0.036,0 -0.067,0 -0.102,0 0.031,0 0.066,0 0.102,0 m -0.325,0.02 c -0.082,0 -0.16,0 -0.242,0 0.082,0 0.16,0 0.242,0 m -0.328,0.01 c -0.101,0 -0.199,0 -0.297,0.01 0.098,-0.01 0.196,-0.01 0.297,-0.01 m -0.324,0.01 c -0.102,0 -0.203,0.01 -0.305,0.01 0.102,0 0.203,-0.01 0.305,-0.01 m -0.332,0.01 c -0.105,0 -0.211,0.01 -0.316,0.01 0.105,0 0.211,-0.01 0.316,-0.01 m -0.324,0.01 c -0.11,0 -0.215,0.01 -0.324,0.01 0.105,0 0.218,-0.01 0.324,-0.01 m -0.328,0.01 c -0.77,0.02 -1.539,0.03 -2.313,0.03 0.77,0 1.543,-0.01 2.313,-0.03 m -2.321,0.03 c -0.105,0.01 -0.214,0.01 -0.32,0.01 0.106,0 0.215,0 0.32,-0.01 m -0.449,0.01 c -0.07,0 -0.137,0 -0.207,0 h -0.226 0.242 c 0.062,0 0.125,0 0.191,0"
           style="fill:#352832;fill-opacity:1;fill-rule:nonzero;stroke:none"
           id="path1883" />
        <path
           d="m 851.785,3846.96 c -0.121,0.05 -0.242,0.09 -0.367,0.13 0.117,-0.04 0.234,-0.08 0.355,-0.12 0.004,0 0.012,0 0.012,0 v -0.01"
           style="fill:#8a211d;fill-opacity:1;fill-rule:nonzero;stroke:none"
           id="path1885" />
        <path
           d="m 831.797,3801 c -8.563,2.61 -17.563,4.2 -26.863,4.61 9.3,-0.41 18.304,-1.99 26.863,-4.61 m -26.965,4.61 c -0.074,0.01 -0.152,0.01 -0.223,0.02 0.075,-0.01 0.149,-0.01 0.223,-0.02 m -0.465,0.02 c -0.027,0 -0.058,0.01 -0.086,0.01 0.028,0 0.059,-0.01 0.086,-0.01 m -0.383,0.02 c -0.011,0 -0.015,0 -0.027,0 0.008,0 0.02,0 0.027,0 m -0.332,0.01 c -0.007,0 -0.019,0 -0.027,0 0.012,0 0.02,0 0.027,0 m -0.343,0.01 c -0.004,0 -0.004,0 -0.008,0 0.004,0 0.004,0 0.008,0 m -0.332,0.01 c -0.004,0 0,0 -0.004,0 h 0.004 m -2.317,0.03 c -0.004,0 -0.004,0 -0.008,0 0.004,0 0.004,0 0.008,0 m -0.328,0.01 c -0.039,0 -0.09,0 -0.129,0 0.043,0 0.086,0 0.129,0"
           style="fill:#224238;fill-opacity:1;fill-rule:nonzero;stroke:none"
           id="path1887" />
        <path
           d="m 840.121,3798.05 c -0.016,0.01 -0.031,0.02 -0.047,0.02 -2.597,1 -5.304,2 -8.105,2.8 -2.793,0.9 -5.696,1.7 -8.692,2.3 -0.8,0.2 -1.699,0.4 -2.609,0.5 -1.297,0.3 -2.695,0.5 -3.992,0.7 -1.809,0.3 -3.703,0.51 -5.5,0.7 -3.699,0.4 -7.403,0.6 -11.199,0.6 h -0.207 v 0.05 h 0.226 c 0.07,0 0.137,0 0.207,0 0.039,0 0.09,0 0.129,0 0.106,0 0.215,0 0.32,-0.01 0.004,0 0.004,0 0.008,0 0.774,0 1.543,-0.01 2.313,-0.03 0.004,0 0,0 0.004,0 0.109,0 0.214,-0.01 0.324,-0.01 0.004,0 0.004,0 0.008,0 0.105,0 0.211,-0.01 0.316,-0.01 0.008,0 0.02,0 0.027,0 0.102,0 0.203,-0.01 0.305,-0.01 0.012,0 0.016,0 0.027,0 0.098,-0.01 0.196,-0.01 0.297,-0.01 0.028,0 0.059,-0.01 0.086,-0.01 0.082,0 0.16,0 0.242,0 0.071,-0.01 0.149,-0.01 0.223,-0.02 0.035,0 0.066,0 0.102,0 9.3,-0.41 18.3,-2 26.863,-4.61 2.828,-0.86 5.605,-1.83 8.332,-2.92 l -0.008,-0.03"
           style="fill:#2b1816;fill-opacity:1;fill-rule:nonzero;stroke:none"
           id="path1889" />
        <path
           d="m 728.809,3538.9 c -4.02,7.27 -11.727,12.27 -20.641,12.27 h -79.152 v 0.02 h 79.144 c 8.918,0 16.676,-4.97 20.649,-12.29"
           style="fill:#c0492f;fill-opacity:1;fill-rule:nonzero;stroke:none"
           id="path1891" />
        <path
           d="m 728.227,3584.5 c 0.464,0.79 0.882,1.62 1.242,2.47 h 0.066 c -0.387,-0.85 -0.824,-1.68 -1.308,-2.47 m 1.453,21.67 h -0.008 c -3.699,8.2 -11.902,14 -21.504,14 h -79.152 v 0.07 h 79.144 c 9.602,0 17.856,-5.76 21.492,-14.01 0.008,-0.02 0.02,-0.04 0.028,-0.06"
           style="fill:#4a3648;fill-opacity:1;fill-rule:nonzero;stroke:none"
           id="path1893" />
      </g>
    </g>
  </g>
</svg>
